<?xml version="1.0" encoding="UTF-8" standalone="no"?>
<!-- Created with Inkscape (http://www.inkscape.org/) -->

<svg
   version="1.1"
   id="svg1"
   width="1280"
   height="746.66669"
   viewBox="0 0 1280 746.66669"
   sodipodi:docname="s0ocj-s2a3k.ai"
   xmlns:inkscape="http://www.inkscape.org/namespaces/inkscape"
   xmlns:sodipodi="http://sodipodi.sourceforge.net/DTD/sodipodi-0.dtd"
   xmlns="http://www.w3.org/2000/svg"
   xmlns:svg="http://www.w3.org/2000/svg">
  <defs
     id="defs1">
    <clipPath
       clipPathUnits="userSpaceOnUse"
       id="clipPath2">
      <path
         d="M 0,560 H 960 V 0 H 0 Z"
         transform="translate(-297.6958,-425.73781)"
         id="path2" />
    </clipPath>
    <clipPath
       clipPathUnits="userSpaceOnUse"
       id="clipPath4">
      <path
         d="M 0,560 H 960 V 0 H 0 Z"
         transform="translate(-301.81791,-399.59521)"
         id="path4" />
    </clipPath>
    <clipPath
       clipPathUnits="userSpaceOnUse"
       id="clipPath6">
      <path
         d="M 0,560 H 960 V 0 H 0 Z"
         transform="translate(-373.85211,-411.69781)"
         id="path6" />
    </clipPath>
    <clipPath
       clipPathUnits="userSpaceOnUse"
       id="clipPath8">
      <path
         d="M 0,560 H 960 V 0 H 0 Z"
         transform="translate(-610.89652,-324.07471)"
         id="path8" />
    </clipPath>
    <clipPath
       clipPathUnits="userSpaceOnUse"
       id="clipPath10">
      <path
         d="M 0,560 H 960 V 0 H 0 Z"
         transform="translate(-670.91891,-396.96341)"
         id="path10" />
    </clipPath>
    <clipPath
       clipPathUnits="userSpaceOnUse"
       id="clipPath12">
      <path
         d="M 0,560 H 960 V 0 H 0 Z"
         transform="translate(-596.44342,-412.08111)"
         id="path12" />
    </clipPath>
    <clipPath
       clipPathUnits="userSpaceOnUse"
       id="clipPath14">
      <path
         d="M 0,560 H 960 V 0 H 0 Z"
         transform="translate(-485.00001,-218.00001)"
         id="path14" />
    </clipPath>
    <clipPath
       clipPathUnits="userSpaceOnUse"
       id="clipPath16">
      <path
         d="M 0,560 H 960 V 0 H 0 Z"
         transform="translate(-485.00001,-185)"
         id="path16" />
    </clipPath>
    <clipPath
       clipPathUnits="userSpaceOnUse"
       id="clipPath19">
      <path
         d="M 0,560 H 960 V 0 H 0 Z"
         transform="translate(-422.22361,-266.17871)"
         id="path19" />
    </clipPath>
    <clipPath
       clipPathUnits="userSpaceOnUse"
       id="clipPath21">
      <path
         d="M 0,560 H 960 V 0 H 0 Z"
         transform="translate(-527.99321,-235.49901)"
         id="path21" />
    </clipPath>
    <clipPath
       clipPathUnits="userSpaceOnUse"
       id="clipPath23">
      <path
         d="M 0,560 H 960 V 0 H 0 Z"
         transform="translate(-534.49321,-331.49851)"
         id="path23" />
    </clipPath>
    <clipPath
       clipPathUnits="userSpaceOnUse"
       id="clipPath25">
      <path
         d="M 0,560 H 960 V 0 H 0 Z"
         transform="translate(-487.49321,-251.499)"
         id="path25" />
    </clipPath>
    <clipPath
       clipPathUnits="userSpaceOnUse"
       id="clipPath27">
      <path
         d="M 0,560 H 960 V 0 H 0 Z"
         transform="translate(-444.00001,-250.25001)"
         id="path27" />
    </clipPath>
    <clipPath
       clipPathUnits="userSpaceOnUse"
       id="clipPath29">
      <path
         d="M 0,560 H 960 V 0 H 0 Z"
         transform="translate(-523.80871,-307.20001)"
         id="path29" />
    </clipPath>
  </defs>
  <sodipodi:namedview
     id="namedview1"
     pagecolor="#ffffff"
     bordercolor="#000000"
     borderopacity="0.25"
     inkscape:showpageshadow="2"
     inkscape:pageopacity="0.0"
     inkscape:pagecheckerboard="0"
     inkscape:deskcolor="#d1d1d1">
    <inkscape:page
       x="0"
       y="0"
       inkscape:label="1"
       id="page1"
       width="1280"
       height="746.66669"
       margin="158.66667 360.49866 87.068001 374.39334"
       bleed="0" />
  </sodipodi:namedview>
  <g
     id="layer-MC0"
     inkscape:groupmode="layer"
     inkscape:label="Слой 2">
    <path
       id="path1"
       d="m 0,0 c -2.774,-1.602 -3.729,-5.163 -2.126,-7.938 l 56.287,-97.493 6.16,3.66 -5.439,20.033 c -0.83,3.059 0.498,6.294 3.24,7.886 l 69.823,40.564 c 2.838,1.647 6.44,1.104 8.663,-1.308 l 13.989,-15.178 6.113,3.53 -56.296,97.508 c -0.777,1.344 -2.029,2.306 -3.528,2.708 -1.499,0.401 -3.065,0.195 -4.409,-0.581 z m 53.666,-119.958 c -1.092,0 -2.188,0.144 -3.269,0.434 -3.253,0.871 -5.973,2.958 -7.657,5.875 l -56.991,98.711 C -19.712,-5.477 -16.459,6.663 -7,12.124 l 92.477,53.391 c 4.582,2.647 9.921,3.349 15.032,1.98 5.112,-1.37 9.384,-4.648 12.029,-9.231 l 56.991,-98.711 c 3.476,-6.022 1.406,-13.749 -4.615,-17.226 l -12.168,-7.026 c -2.837,-1.638 -6.428,-1.089 -8.648,1.318 l -13.977,15.166 -60.32,-35.042 5.425,-19.98 c 0.824,-3.035 -0.476,-6.246 -3.18,-7.852 l -12.004,-7.132 c -1.999,-1.154 -4.179,-1.737 -6.376,-1.737"
       style="fill:#000000;fill-opacity:1;fill-rule:nonzero;stroke:none"
       transform="matrix(1.3333333,0,0,-1.3333333,396.92773,179.01627)"
       clip-path="url(#clipPath2)" />
    <path
       id="path3"
       d="m 0,0 -6.969,12.143 111.948,64.252 6.969,-12.143 z"
       style="fill:#000000;fill-opacity:1;fill-rule:nonzero;stroke:none"
       transform="matrix(1.3333333,0,0,-1.3333333,402.42387,213.87307)"
       clip-path="url(#clipPath4)" />
    <path
       id="path5"
       d="m 0,0 c -5.984,0 -10.852,-4.868 -10.852,-10.852 0,-5.983 4.868,-10.852 10.852,-10.852 5.983,0 10.852,4.869 10.852,10.852 C 10.852,-4.868 5.983,0 0,0 m 0,-35.704 c -13.704,0 -24.852,11.149 -24.852,24.852 C -24.852,2.852 -13.704,14 0,14 13.703,14 24.852,2.852 24.852,-10.852 24.852,-24.555 13.703,-35.704 0,-35.704"
       style="fill:#000000;fill-opacity:1;fill-rule:nonzero;stroke:none"
       transform="matrix(1.3333333,0,0,-1.3333333,498.46947,197.73627)"
       clip-path="url(#clipPath6)" />
  </g>
  <g
     id="layer-MC1"
     inkscape:groupmode="layer"
     inkscape:label="Слой 3">
    <path
       id="path7"
       d="m 0,0 6.057,-3.627 57.852,96.593 c 1.646,2.748 0.748,6.324 -2,7.97 l -91.608,54.867 c -2.749,1.647 -6.325,0.751 -7.97,-1.999 l -57.844,-96.579 6.192,-3.604 14.863,14.49 c 2.27,2.213 5.745,2.624 8.467,1.003 L 3.396,27.809 C 6.217,26.13 7.492,22.718 6.464,19.602 Z m 6.513,-18.141 c -2.204,0 -4.435,0.577 -6.458,1.789 l -12.054,7.219 c -2.81,1.683 -4.077,5.088 -3.051,8.198 l 6.459,19.587 -59.942,35.682 -14.824,-14.452 c -2.252,-2.196 -5.693,-2.62 -8.409,-1.037 l -12.066,7.025 c -6.04,3.617 -7.986,11.377 -4.415,17.341 l 58.567,97.786 c 5.612,9.371 17.802,12.429 27.174,6.816 L 69.103,112.946 C 78.474,107.333 81.531,95.144 75.92,85.772 L 17.353,-12.013 c -2.361,-3.941 -6.55,-6.128 -10.84,-6.128"
       style="fill:#000000;fill-opacity:1;fill-rule:nonzero;stroke:none"
       transform="matrix(1.3333333,0,0,-1.3333333,814.52867,314.56707)"
       clip-path="url(#clipPath8)" />
    <path
       id="path9"
       d="m 0,0 -110.565,66.605 7.224,11.993 L 7.225,11.992 Z"
       style="fill:#000000;fill-opacity:1;fill-rule:nonzero;stroke:none"
       transform="matrix(1.3333333,0,0,-1.3333333,894.55853,217.38213)"
       clip-path="url(#clipPath10)" />
    <path
       id="path11"
       d="m 0,0 c -1.821,0 -3.623,-0.463 -5.259,-1.373 v -0.001 c -2.533,-1.408 -4.366,-3.719 -5.161,-6.507 -0.795,-2.787 -0.457,-5.717 0.952,-8.25 2.907,-5.229 9.528,-7.119 14.759,-4.21 5.229,2.908 7.117,9.529 4.209,14.758 C 8.091,-3.049 5.779,-1.216 2.992,-0.421 2.005,-0.14 0.999,0 0,0 m 0.059,-35.705 c -8.737,0 -17.223,4.608 -21.761,12.768 -3.228,5.802 -4.002,12.512 -2.181,18.896 1.821,6.384 6.018,11.676 11.82,14.903 5.799,3.226 12.511,4.001 18.895,2.18 6.384,-1.821 11.676,-6.019 14.902,-11.82 6.662,-11.975 2.337,-27.137 -9.638,-33.798 -3.815,-2.121 -7.954,-3.129 -12.037,-3.129"
       style="fill:#000000;fill-opacity:1;fill-rule:nonzero;stroke:none"
       transform="matrix(1.3333333,0,0,-1.3333333,795.25787,197.2252)"
       clip-path="url(#clipPath12)" />
  </g>
  <g
     id="layer-MC2"
     inkscape:groupmode="layer"
     inkscape:label="Слой 5">
    <path
       id="path13"
       d="M 0,0 C -23.435,0 -42.5,-19.065 -42.5,-42.5 -42.5,-65.935 -23.435,-85 0,-85 23.435,-85 42.5,-65.935 42.5,-42.5 42.5,-19.065 23.435,0 0,0 m 0,-99 c -31.154,0 -56.5,25.346 -56.5,56.5 C -56.5,-11.346 -31.154,14 0,14 31.154,14 56.5,-11.346 56.5,-42.5 56.5,-73.654 31.154,-99 0,-99"
       style="fill:#000000;fill-opacity:1;fill-rule:nonzero;stroke:none"
       transform="matrix(1.3333333,0,0,-1.3333333,646.66667,456)"
       clip-path="url(#clipPath14)" />
    <path
       id="path15"
       d="m 0,0 c -5.238,0 -9.5,-4.262 -9.5,-9.5 0,-5.238 4.262,-9.5 9.5,-9.5 5.238,0 9.5,4.262 9.5,9.5 C 9.5,-4.262 5.238,0 0,0 m 0,-33 c -12.958,0 -23.5,10.542 -23.5,23.5 C -23.5,3.458 -12.958,14 0,14 12.958,14 23.5,3.458 23.5,-9.5 23.5,-22.458 12.958,-33 0,-33"
       style="fill:#000000;fill-opacity:1;fill-rule:nonzero;stroke:none"
       transform="matrix(1.3333333,0,0,-1.3333333,646.66667,500)"
       clip-path="url(#clipPath16)" />
  </g>
  <g
     id="layer-MC3"
     inkscape:groupmode="layer"
     inkscape:label="Слой 6">
    <path
       id="path17"
       d="m 0,0 -87.541,152.568 12.144,6.968 87.54,-152.569 z"
       style="fill:#000000;fill-opacity:1;fill-rule:nonzero;stroke:none"
       transform="matrix(1.3333333,0,0,-1.3333333,660.5716,451.3112)" />
    <path
       id="path18"
       d="m 0,0 c -2.414,0 -4.761,1.249 -6.061,3.486 l -46.147,79.501 c -1.941,3.344 -0.804,7.628 2.54,9.569 3.344,1.938 7.627,0.803 9.568,-2.54 L 6.048,10.516 C 7.988,7.172 6.852,2.888 3.508,0.947 2.402,0.305 1.193,0 0,0"
       style="fill:#000000;fill-opacity:1;fill-rule:nonzero;stroke:none"
       transform="matrix(1.3333333,0,0,-1.3333333,562.9648,391.76173)"
       clip-path="url(#clipPath19)" />
    <path
       id="path20"
       d="m 0,0 c -1.218,0 -2.451,0.317 -3.574,0.986 -3.322,1.978 -4.411,6.274 -2.434,9.596 l 64,107.5 c 1.977,3.322 6.271,4.414 9.596,2.434 3.321,-1.978 4.411,-6.274 2.433,-9.596 L 6.021,3.42 C 4.712,1.221 2.387,0 0,0"
       style="fill:#000000;fill-opacity:1;fill-rule:nonzero;stroke:none"
       transform="matrix(1.3333333,0,0,-1.3333333,703.99093,432.668)"
       clip-path="url(#clipPath21)" />
    <path
       id="path22"
       d="M 0,0 C -1.166,0 -2.35,0.292 -3.438,0.908 -6.803,2.81 -7.989,7.08 -6.087,10.446 l 19.5,34.5 c 1.901,3.365 6.171,4.553 9.538,2.649 3.365,-1.902 4.552,-6.172 2.65,-9.538 L 6.101,3.557 C 4.813,1.28 2.442,0 0,0"
       style="fill:#000000;fill-opacity:1;fill-rule:nonzero;stroke:none"
       transform="matrix(1.3333333,0,0,-1.3333333,712.6576,304.66867)"
       clip-path="url(#clipPath23)" />
    <path
       id="path24"
       d="m 0,0 c -1.31,0 -2.634,0.367 -3.813,1.135 -3.24,2.109 -4.156,6.446 -2.046,9.685 l 14,21.501 c 2.109,3.239 6.448,4.156 9.685,2.046 3.24,-2.11 4.156,-6.446 2.047,-9.685 l -14,-21.5 C 4.531,1.121 2.288,0 0,0"
       style="fill:#000000;fill-opacity:1;fill-rule:nonzero;stroke:none"
       transform="matrix(1.3333333,0,0,-1.3333333,649.99093,411.33467)"
       clip-path="url(#clipPath25)" />
    <path
       id="path26"
       d="m 0,0 c 0,-3.866 -3.134,-7 -7,-7 -3.866,0 -7,3.134 -7,7 0,3.866 3.134,7 7,7 3.866,0 7,-3.134 7,-7"
       style="fill:#000000;fill-opacity:1;fill-rule:nonzero;stroke:none"
       transform="matrix(1.3333333,0,0,-1.3333333,592,413)"
       clip-path="url(#clipPath27)" />
    <path
       id="path28"
       d="m 0,0 c 0,-3.866 -3.134,-7 -7,-7 -3.866,0 -7,3.134 -7,7 0,3.866 3.134,7 7,7 3.866,0 7,-3.134 7,-7"
       style="fill:#000000;fill-opacity:1;fill-rule:nonzero;stroke:none"
       transform="matrix(1.3333333,0,0,-1.3333333,698.4116,337.06667)"
       clip-path="url(#clipPath29)" />
  </g>
</svg>
