<?xml version="1.0" encoding="UTF-8"?>
<svg xmlns="http://www.w3.org/2000/svg" xmlns:xlink="http://www.w3.org/1999/xlink" width="299.9pt" height="300pt" viewBox="0 0 299.9 300" version="1.1">
<g id="surface1">
<path style="fill:none;stroke-width:0.035;stroke-linecap:round;stroke-linejoin:round;stroke:rgb(0%,0%,0%);stroke-opacity:1;stroke-miterlimit:10;" d="M 148.789063 299 L 146.640625 298.980469 L 144.289063 298.921875 L 142.101563 298.851563 L 140.480469 298.769531 L 138.890625 298.660156 L 136.839844 298.488281 L 134.691406 298.289063 L 132.769531 298.089844 L 130.800781 297.851563 L 128.46875 297.53125 L 126.160156 297.199219 L 124.261719 296.898438 L 122.410156 296.570313 L 120.25 296.148438 L 118.128906 295.71875 L 116.410156 295.339844 L 114.761719 294.960938 L 112.898438 294.5 L 111.109375 294.039063 L 109.710938 293.671875 L 108.289063 293.261719 L 106.421875 292.699219 L 104.460938 292.089844 L 102.699219 291.519531 L 100.871094 290.898438 L 98.691406 290.128906 L 96.53125 289.328125 L 94.738281 288.640625 L 92.949219 287.910156 L 90.789063 287 L 88.628906 286.058594 L 86.808594 285.230469 L 85 284.371094 L 82.851563 283.320313 L 80.71875 282.238281 L 78.96875 281.308594 L 77.300781 280.398438 L 75.460938 279.359375 L 73.71875 278.359375 L 72.410156 277.578125 L 71.148438 276.800781 L 69.640625 275.839844 L 68.109375 274.859375 L 66.820313 274.011719 L 65.511719 273.121094 L 63.898438 272 L 62.269531 270.851563 L 60.878906 269.839844 L 59.449219 268.761719 L 57.679688 267.378906 L 55.878906 265.949219 L 54.328125 264.679688 L 52.769531 263.359375 L 50.941406 261.769531 L 49.140625 260.171875 L 47.660156 258.820313 L 46.21875 257.460938 L 44.519531 255.789063 L 42.839844 254.109375 L 41.460938 252.679688 L 40.128906 251.238281 L 38.601563 249.558594 L 37.121094 247.898438 L 35.929688 246.53125 L 34.761719 245.128906 L 33.308594 243.339844 L 31.839844 241.488281 L 30.578125 239.851563 L 29.289063 238.109375 L 27.71875 235.910156 L 26.148438 233.640625 L 24.820313 231.648438 L 23.539063 229.671875 L 22.140625 227.441406 L 20.828125 225.289063 L 19.839844 223.601563 L 18.941406 221.988281 L 17.910156 220.089844 L 16.910156 218.199219 L 16.121094 216.640625 L 15.390625 215.171875 L 14.601563 213.53125 L 13.871094 211.988281 L 13.339844 210.820313 L 12.839844 209.679688 L 12.21875 208.238281 L 11.601563 206.738281 L 11.058594 205.429688 L 10.519531 204.050781 L 9.871094 202.351563 L 9.21875 200.621094 L 8.691406 199.128906 L 8.148438 197.550781 L 7.480469 195.488281 L 6.808594 193.339844 L 6.238281 191.410156 L 5.699219 189.460938 L 5.101563 187.21875 L 4.539063 185.058594 L 4.128906 183.328125 L 3.761719 181.671875 L 3.351563 179.71875 L 2.96875 177.789063 L 2.679688 176.199219 L 2.410156 174.628906 L 2.121094 172.71875 L 1.839844 170.808594 L 1.621094 169.199219 L 1.421875 167.589844 L 1.199219 165.699219 L 1 163.839844 L 0.851563 162.308594 L 0.710938 160.308594 L 0.621094 157.378906 L 0.558594 153.75 L 0.550781 149.480469 L 0.578125 144.101563 L 0.648438 140.769531 L 0.808594 138.039063 L 1.101563 134.980469 L 1.359375 132.769531 L 1.679688 130.21875 L 2.03125 127.75 L 2.328125 125.78125 L 2.640625 123.960938 L 3 121.980469 L 3.351563 120.128906 L 3.628906 118.769531 L 3.929688 117.410156 L 4.359375 115.609375 L 4.839844 113.679688 L 5.28125 111.929688 L 5.769531 110.109375 L 6.378906 107.96875 L 7 105.871094 L 7.539063 104.148438 L 8.089844 102.488281 L 8.738281 100.589844 L 9.390625 98.75 L 9.929688 97.289063 L 10.488281 95.851563 L 11.191406 94.101563 L 11.929688 92.320313 L 12.570313 90.808594 L 13.269531 89.230469 L 14.210938 87.21875 L 15.199219 85.128906 L 16.109375 83.28125 L 17.039063 81.449219 L 18.109375 79.421875 L 19.140625 77.5 L 19.96875 76.03125 L 20.78125 74.640625 L 21.78125 72.980469 L 22.789063 71.320313 L 23.648438 69.941406 L 24.550781 68.550781 L 25.679688 66.859375 L 26.839844 65.160156 L 27.851563 63.710938 L 28.898438 62.261719 L 30.171875 60.550781 L 31.449219 58.859375 L 32.539063 57.46875 L 33.628906 56.109375 L 34.941406 54.53125 L 36.238281 52.96875 L 37.328125 51.710938 L 38.539063 50.359375 L 40.300781 48.480469 L 42.25 46.449219 L 44.121094 44.558594 L 46.011719 42.699219 L 48.039063 40.75 L 49.910156 38.988281 L 51.261719 37.769531 L 52.53125 36.691406 L 54.078125 35.378906 L 55.660156 34.078125 L 57.019531 32.980469 L 58.410156 31.898438 L 60.101563 30.621094 L 61.808594 29.351563 L 63.261719 28.300781 L 64.710938 27.289063 L 66.421875 26.128906 L 68.109375 25 L 69.5 24.101563 L 70.878906 23.230469 L 72.53125 22.21875 L 74.191406 21.230469 L 75.589844 20.410156 L 77.058594 19.589844 L 79 18.550781 L 81.039063 17.46875 L 82.890625 16.53125 L 84.769531 15.609375 L 86.890625 14.601563 L 88.929688 13.660156 L 90.519531 12.949219 L 92.089844 12.300781 L 94.011719 11.519531 L 95.960938 10.75 L 97.621094 10.109375 L 99.300781 9.5 L 101.28125 8.808594 L 103.25 8.148438 L 104.871094 7.628906 L 106.511719 7.128906 L 108.550781 6.539063 L 110.640625 5.960938 L 112.441406 5.480469 L 114.25 5.03125 L 116.339844 4.539063 L 118.390625 4.078125 L 120.039063 3.738281 L 121.699219 3.421875 L 123.75 3.058594 L 125.839844 2.710938 L 127.648438 2.429688 L 129.488281 2.179688 L 131.71875 1.890625 L 133.960938 1.621094 L 135.839844 1.421875 L 138.359375 1.210938 L 141.109375 1.089844 L 144.558594 1.019531 L 149.390625 1 L 154.179688 1.019531 L 157.648438 1.089844 L 160.421875 1.210938 L 162.929688 1.410156 L 164.808594 1.609375 L 167.050781 1.871094 L 169.28125 2.148438 L 171.121094 2.410156 L 172.941406 2.679688 L 175.058594 3.039063 L 177.148438 3.398438 L 178.851563 3.730469 L 180.519531 4.078125 L 182.53125 4.519531 L 184.539063 4.988281 L 186.210938 5.398438 L 187.851563 5.828125 L 189.75 6.351563 L 191.609375 6.871094 L 193.101563 7.308594 L 194.578125 7.78125 L 196.398438 8.378906 L 198.261719 9.011719 L 199.851563 9.570313 L 201.441406 10.160156 L 203.300781 10.859375 L 205.128906 11.578125 L 206.621094 12.191406 L 208.128906 12.828125 L 210.03125 13.671875 L 211.96875 14.550781 L 213.671875 15.351563 L 215.371094 16.179688 L 217.308594 17.160156 L 219.191406 18.128906 L 220.679688 18.929688 L 222.128906 19.730469 L 223.839844 20.710938 L 225.550781 21.699219 L 226.960938 22.550781 L 228.359375 23.421875 L 230.011719 24.480469 L 231.660156 25.550781 L 233.019531 26.460938 L 234.378906 27.398438 L 236.019531 28.570313 L 237.679688 29.769531 L 239.078125 30.800781 L 240.46875 31.871094 L 242.128906 33.171875 L 243.78125 34.488281 L 245.140625 35.609375 L 246.539063 36.808594 L 248.300781 38.351563 L 250.109375 39.980469 L 251.699219 41.441406 L 253.308594 42.980469 L 255.210938 44.871094 L 257.089844 46.78125 L 258.628906 48.421875 L 260.070313 50.011719 L 261.628906 51.761719 L 263.078125 53.421875 L 264.148438 54.679688 L 265.160156 55.921875 L 266.421875 57.5 L 267.710938 59.148438 L 268.828125 60.621094 L 269.960938 62.160156 L 271.308594 64.050781 L 272.648438 65.96875 L 273.761719 67.628906 L 274.800781 69.210938 L 275.898438 70.929688 L 276.898438 72.519531 L 277.609375 73.679688 L 278.289063 74.851563 L 279.179688 76.410156 L 280.121094 78.089844 L 280.96875 79.628906 L 281.828125 81.269531 L 282.851563 83.269531 L 283.851563 85.28125 L 284.660156 87 L 285.449219 88.75 L 286.390625 90.898438 L 287.320313 93.089844 L 288.078125 94.949219 L 288.820313 96.871094 L 289.679688 99.199219 L 290.519531 101.558594 L 291.199219 103.558594 L 291.828125 105.570313 L 292.539063 107.929688 L 293.210938 110.261719 L 293.730469 112.171875 L 294.199219 114.050781 L 294.738281 116.300781 L 295.238281 118.539063 L 295.640625 120.410156 L 295.988281 122.261719 L 296.390625 124.480469 L 296.761719 126.699219 L 297.039063 128.550781 L 297.300781 130.421875 L 297.578125 132.710938 L 297.839844 135.03125 L 298.039063 137 L 298.21875 139.5 L 298.351563 142.308594 L 298.429688 145.628906 L 298.449219 149.710938 L 298.429688 153.25 L 298.371094 156.648438 L 298.28125 159.570313 L 298.160156 161.46875 L 298.011719 163.070313 L 297.808594 165.058594 L 297.578125 167.089844 L 297.378906 168.839844 L 297.148438 170.570313 L 296.859375 172.550781 L 296.570313 174.460938 L 296.308594 175.96875 L 296.03125 177.460938 L 295.648438 179.339844 L 295.25 181.261719 L 294.890625 182.929688 L 294.488281 184.671875 L 293.960938 186.789063 L 293.398438 188.941406 L 292.890625 190.769531 L 292.371094 192.570313 L 291.75 194.601563 L 291.128906 196.539063 L 290.628906 198.058594 L 290.101563 199.558594 L 289.410156 201.449219 L 288.679688 203.378906 L 288.019531 205.070313 L 287.320313 206.800781 L 286.441406 208.871094 L 285.539063 210.941406 L 284.75 212.671875 L 283.949219 214.378906 L 282.96875 216.371094 L 281.980469 218.328125 L 281.140625 219.921875 L 280.300781 221.460938 L 279.308594 223.230469 L 278.320313 224.949219 L 277.5 226.339844 L 276.648438 227.730469 L 275.550781 229.480469 L 274.390625 231.28125 L 273.351563 232.859375 L 272.261719 234.460938 L 270.949219 236.320313 L 269.640625 238.148438 L 268.53125 239.628906 L 267.441406 241.058594 L 266.160156 242.671875 L 264.921875 244.230469 L 263.910156 245.460938 L 262.839844 246.71875 L 261.378906 248.378906 L 259.808594 250.128906 L 258.359375 251.71875 L 256.808594 253.359375 L 254.898438 255.289063 L 252.96875 257.199219 L 251.308594 258.769531 L 249.710938 260.238281 L 247.941406 261.820313 L 246.269531 263.289063 L 245.019531 264.371094 L 243.75 265.398438 L 242.089844 266.71875 L 240.320313 268.101563 L 238.71875 269.320313 L 237.058594 270.539063 L 235.109375 271.941406 L 233.179688 273.289063 L 231.589844 274.359375 L 230.019531 275.378906 L 228.148438 276.558594 L 226.269531 277.71875 L 224.699219 278.648438 L 223.148438 279.539063 L 221.328125 280.558594 L 219.519531 281.558594 L 218.050781 282.339844 L 216.550781 283.109375 L 214.671875 284.039063 L 212.738281 284.960938 L 211.050781 285.738281 L 209.328125 286.5 L 207.261719 287.390625 L 205.191406 288.25 L 203.449219 288.941406 L 201.691406 289.609375 L 199.539063 290.390625 L 197.351563 291.160156 L 195.480469 291.78125 L 193.570313 292.378906 L 191.21875 293.070313 L 188.839844 293.75 L 186.808594 294.289063 L 184.820313 294.789063 L 182.570313 295.320313 L 180.410156 295.808594 L 178.730469 296.160156 L 177.128906 296.46875 L 175.269531 296.800781 L 173.441406 297.109375 L 171.960938 297.351563 L 170.480469 297.558594 L 168.679688 297.800781 L 166.859375 298.019531 L 165.300781 298.191406 L 163.699219 298.351563 L 161.679688 298.519531 L 159.621094 298.679688 L 157.820313 298.800781 L 155.921875 298.890625 L 153.5 298.960938 L 151 299 L 148.789063 299 " transform="matrix(1,0,0,-1,0,300)"/>
<path style="fill:none;stroke-width:0.035;stroke-linecap:round;stroke-linejoin:round;stroke:rgb(0%,0%,0%);stroke-opacity:1;stroke-miterlimit:10;" d="M 151.640625 284.871094 L 153.949219 284.808594 L 156.558594 284.691406 L 159.058594 284.550781 L 161.03125 284.410156 L 162.859375 284.238281 L 164.941406 284.019531 L 166.941406 283.78125 L 168.511719 283.578125 L 170.109375 283.328125 L 172.21875 282.96875 L 174.449219 282.558594 L 176.46875 282.171875 L 178.53125 281.730469 L 180.890625 281.191406 L 183.191406 280.628906 L 185.019531 280.148438 L 186.761719 279.660156 L 188.730469 279.070313 L 190.640625 278.480469 L 192.148438 277.980469 L 193.660156 277.460938 L 195.570313 276.769531 L 197.539063 276.03125 L 199.28125 275.359375 L 201.121094 274.601563 L 203.449219 273.589844 L 205.859375 272.5 L 207.96875 271.488281 L 210.050781 270.460938 L 212.351563 269.28125 L 214.519531 268.121094 L 216.171875 267.210938 L 217.730469 266.289063 L 219.601563 265.160156 L 221.46875 263.988281 L 223.039063 262.988281 L 224.511719 262.011719 L 226.101563 260.941406 L 227.558594 259.929688 L 228.621094 259.171875 L 229.601563 258.449219 L 230.789063 257.550781 L 232 256.621094 L 233.019531 255.828125 L 234.058594 254.988281 L 235.339844 253.941406 L 236.648438 252.851563 L 237.769531 251.898438 L 238.96875 250.828125 L 240.570313 249.359375 L 242.261719 247.769531 L 243.789063 246.300781 L 245.320313 244.789063 L 246.96875 243.089844 L 248.511719 241.480469 L 249.648438 240.238281 L 250.660156 239.101563 L 251.769531 237.828125 L 252.800781 236.628906 L 253.570313 235.71875 L 254.339844 234.78125 L 255.371094 233.46875 L 256.480469 232.039063 L 257.488281 230.710938 L 258.558594 229.25 L 259.871094 227.410156 L 261.191406 225.5 L 262.308594 223.820313 L 263.398438 222.140625 L 264.601563 220.21875 L 265.75 218.351563 L 266.621094 216.859375 L 267.441406 215.398438 L 268.421875 213.601563 L 269.390625 211.769531 L 270.179688 210.210938 L 270.960938 208.621094 L 271.871094 206.710938 L 272.75 204.78125 L 273.46875 203.171875 L 274.148438 201.550781 L 274.929688 199.628906 L 275.679688 197.730469 L 276.269531 196.160156 L 276.808594 194.648438 L 277.390625 192.960938 L 277.929688 191.351563 L 278.328125 190.101563 L 278.679688 188.960938 L 279.058594 187.660156 L 279.429688 186.429688 L 279.699219 185.46875 L 279.980469 184.441406 L 280.359375 182.929688 L 280.761719 181.261719 L 281.128906 179.671875 L 281.5 177.980469 L 281.898438 176.011719 L 282.28125 174.089844 L 282.558594 172.53125 L 282.808594 170.941406 L 283.101563 168.910156 L 283.378906 166.789063 L 283.609375 164.910156 L 283.808594 162.890625 L 284.019531 160.320313 L 284.210938 157.648438 L 284.328125 155.289063 L 284.429688 152.609375 L 284.460938 149.96875 L 284.429688 147.351563 L 284.339844 144.71875 L 284.230469 142.539063 L 284.101563 140.300781 L 283.960938 138.308594 L 283.851563 137 L 283.71875 135.800781 L 283.53125 134.230469 L 283.320313 132.558594 L 283.121094 131.058594 L 282.898438 129.519531 L 282.609375 127.71875 L 282.308594 125.960938 L 282.050781 124.53125 L 281.769531 123.140625 L 281.421875 121.511719 L 281.070313 119.898438 L 280.769531 118.589844 L 280.429688 117.230469 L 279.96875 115.46875 L 279.46875 113.628906 L 279 111.980469 L 278.480469 110.25 L 277.800781 108.160156 L 277.101563 106.050781 L 276.460938 104.261719 L 275.800781 102.5 L 275.019531 100.480469 L 274.238281 98.53125 L 273.589844 96.96875 L 272.890625 95.371094 L 271.898438 93.261719 L 270.828125 91.03125 L 269.828125 89.011719 L 268.789063 87 L 267.601563 84.800781 L 266.460938 82.71875 L 265.558594 81.171875 L 264.691406 79.738281 L 263.671875 78.101563 L 262.648438 76.511719 L 261.820313 75.230469 L 260.929688 73.921875 L 259.71875 72.21875 L 258.421875 70.421875 L 257.230469 68.808594 L 255.988281 67.199219 L 254.550781 65.378906 L 253.148438 63.640625 L 252.019531 62.28125 L 250.738281 60.839844 L 248.789063 58.761719 L 246.589844 56.480469 L 244.449219 54.308594 L 242.269531 52.179688 L 239.980469 50 L 237.898438 48.070313 L 236.449219 46.808594 L 235.148438 45.75 L 233.601563 44.5 L 232.050781 43.28125 L 230.75 42.289063 L 229.46875 41.339844 L 227.980469 40.25 L 226.5 39.199219 L 225.300781 38.351563 L 224.070313 37.53125 L 222.539063 36.53125 L 220.96875 35.519531 L 219.589844 34.660156 L 218.140625 33.800781 L 216.300781 32.730469 L 214.378906 31.660156 L 212.699219 30.738281 L 210.980469 29.839844 L 208.910156 28.800781 L 206.859375 27.800781 L 205.140625 27.011719 L 203.46875 26.261719 L 201.53125 25.429688 L 199.640625 24.648438 L 198.121094 24.039063 L 196.578125 23.460938 L 194.621094 22.761719 L 192.578125 22.050781 L 190.78125 21.449219 L 188.871094 20.851563 L 186.480469 20.160156 L 184.019531 19.480469 L 181.878906 18.929688 L 179.789063 18.429688 L 177.5 17.910156 L 175.351563 17.449219 L 173.738281 17.140625 L 172.210938 16.871094 L 170.339844 16.570313 L 168.449219 16.289063 L 166.851563 16.070313 L 165.230469 15.878906 L 163.320313 15.671875 L 161.421875 15.46875 L 159.839844 15.320313 L 158.039063 15.199219 L 155.308594 15.109375 L 152.25 15.039063 L 149.269531 15.019531 L 146.300781 15.050781 L 143.289063 15.109375 L 140.628906 15.210938 L 138.929688 15.320313 L 137.441406 15.46875 L 135.601563 15.671875 L 133.71875 15.878906 L 132.089844 16.078125 L 130.460938 16.308594 L 128.570313 16.589844 L 126.710938 16.890625 L 125.199219 17.148438 L 123.730469 17.429688 L 121.988281 17.789063 L 120.269531 18.148438 L 118.859375 18.460938 L 117.488281 18.789063 L 115.941406 19.179688 L 114.449219 19.558594 L 113.269531 19.890625 L 112.078125 20.238281 L 110.53125 20.710938 L 108.910156 21.21875 L 107.449219 21.691406 L 105.898438 22.210938 L 103.980469 22.890625 L 102.019531 23.621094 L 100.320313 24.269531 L 98.628906 24.941406 L 96.699219 25.75 L 94.808594 26.550781 L 93.308594 27.21875 L 91.890625 27.890625 L 90.25 28.679688 L 88.648438 29.46875 L 87.371094 30.128906 L 86.148438 30.78125 L 84.710938 31.570313 L 83.300781 32.351563 L 82.148438 33 L 80.910156 33.730469 L 79.179688 34.800781 L 77.308594 35.980469 L 75.558594 37.121094 L 73.789063 38.300781 L 71.839844 39.640625 L 70.03125 40.921875 L 68.671875 41.921875 L 67.421875 42.871094 L 66 43.988281 L 64.609375 45.089844 L 63.5 45.988281 L 62.339844 46.96875 L 60.769531 48.339844 L 59.089844 49.828125 L 57.550781 51.230469 L 55.949219 52.75 L 54.078125 54.589844 L 52.238281 56.460938 L 50.738281 58.039063 L 49.359375 59.570313 L 47.878906 61.230469 L 46.519531 62.789063 L 45.539063 63.941406 L 44.640625 65.050781 L 43.550781 66.421875 L 42.449219 67.828125 L 41.519531 69.050781 L 40.589844 70.300781 L 39.5 71.820313 L 38.429688 73.351563 L 37.550781 74.640625 L 36.710938 75.910156 L 35.75 77.378906 L 34.828125 78.820313 L 34.109375 79.980469 L 33.390625 81.171875 L 32.488281 82.71875 L 31.558594 84.351563 L 30.75 85.808594 L 29.921875 87.371094 L 28.921875 89.339844 L 27.910156 91.378906 L 27.058594 93.171875 L 26.25 94.960938 L 25.359375 97 L 24.511719 98.96875 L 23.878906 100.53125 L 23.289063 102.050781 L 22.621094 103.859375 L 21.96875 105.671875 L 21.449219 107.179688 L 20.96875 108.671875 L 20.429688 110.390625 L 19.921875 112.070313 L 19.519531 113.421875 L 19.171875 114.710938 L 18.769531 116.191406 L 18.410156 117.628906 L 18.128906 118.769531 L 17.871094 119.910156 L 17.550781 121.359375 L 17.230469 122.859375 L 16.96875 124.171875 L 16.699219 125.558594 L 16.398438 127.28125 L 16.109375 129.050781 L 15.878906 130.589844 L 15.671875 132.171875 L 15.429688 134.109375 L 15.210938 136.070313 L 15.039063 137.75 L 14.890625 139.539063 L 14.738281 141.898438 L 14.609375 144.398438 L 14.53125 146.660156 L 14.488281 149.089844 L 14.488281 151.730469 L 14.550781 154.320313 L 14.648438 156.601563 L 14.78125 158.671875 L 14.949219 160.941406 L 15.128906 163.070313 L 15.289063 164.679688 L 15.480469 166.238281 L 15.738281 168.21875 L 16.039063 170.261719 L 16.328125 172.058594 L 16.648438 173.851563 L 17.03125 175.890625 L 17.421875 177.859375 L 17.75 179.421875 L 18.101563 180.929688 L 18.539063 182.738281 L 19.011719 184.558594 L 19.429688 186.078125 L 19.878906 187.628906 L 20.46875 189.550781 L 21.089844 191.511719 L 21.648438 193.210938 L 22.230469 194.871094 L 22.910156 196.761719 L 23.578125 198.558594 L 24.128906 199.96875 L 24.710938 201.371094 L 25.460938 203.148438 L 26.269531 204.980469 L 27 206.578125 L 27.769531 208.210938 L 28.699219 210.101563 L 29.640625 211.960938 L 30.429688 213.46875 L 31.21875 214.890625 L 32.121094 216.5 L 32.988281 218.03125 L 33.691406 219.210938 L 34.398438 220.371094 L 35.300781 221.808594 L 36.25 223.28125 L 37.078125 224.550781 L 37.980469 225.871094 L 39.101563 227.480469 L 40.269531 229.101563 L 41.300781 230.488281 L 42.359375 231.890625 L 43.660156 233.558594 L 44.980469 235.210938 L 46.101563 236.578125 L 47.261719 237.941406 L 48.679688 239.550781 L 50.128906 241.140625 L 51.359375 242.460938 L 52.621094 243.75 L 54.128906 245.269531 L 55.648438 246.78125 L 56.910156 248.011719 L 58.199219 249.21875 L 59.789063 250.660156 L 61.398438 252.078125 L 62.78125 253.261719 L 64.148438 254.390625 L 65.71875 255.648438 L 67.261719 256.859375 L 68.480469 257.800781 L 69.699219 258.699219 L 71.199219 259.789063 L 72.738281 260.878906 L 74.070313 261.800781 L 75.421875 262.699219 L 77.039063 263.738281 L 78.660156 264.769531 L 80.011719 265.589844 L 81.371094 266.398438 L 83.03125 267.351563 L 84.710938 268.300781 L 86.128906 269.078125 L 87.578125 269.839844 L 89.351563 270.738281 L 91.140625 271.621094 L 92.671875 272.339844 L 94.191406 273.03125 L 95.96875 273.820313 L 97.730469 274.570313 L 99.171875 275.171875 L 100.609375 275.738281 L 102.378906 276.410156 L 104.191406 277.070313 L 105.730469 277.621094 L 107.300781 278.148438 L 109.160156 278.738281 L 111.03125 279.320313 L 112.589844 279.769531 L 114.148438 280.199219 L 116.050781 280.699219 L 117.960938 281.171875 L 119.570313 281.558594 L 121.238281 281.921875 L 123.339844 282.339844 L 125.511719 282.75 L 127.410156 283.078125 L 129.308594 283.378906 L 131.511719 283.699219 L 133.648438 283.980469 L 135.371094 284.179688 L 137.039063 284.351563 L 139.050781 284.519531 L 141.058594 284.671875 L 142.730469 284.78125 L 144.511719 284.851563 L 146.871094 284.890625 L 149.371094 284.898438 L 151.640625 284.871094 " transform="matrix(1,0,0,-1,0,300)"/>
<path style="fill:none;stroke-width:0.035;stroke-linecap:round;stroke-linejoin:round;stroke:rgb(0%,0%,0%);stroke-opacity:1;stroke-miterlimit:10;" d="M 150.449219 275.398438 L 147 275.421875 L 143.679688 275.390625 L 140.859375 275.351563 L 139.410156 275.269531 L 138.179688 275.148438 L 136.488281 274.96875 L 134.679688 274.761719 L 132.988281 274.558594 L 131.21875 274.308594 L 129.140625 274 L 127.078125 273.660156 L 125.390625 273.351563 L 123.679688 273 L 121.570313 272.53125 L 119.410156 272.03125 L 117.550781 271.570313 L 115.699219 271.070313 L 113.570313 270.460938 L 111.5 269.839844 L 109.839844 269.308594 L 108.238281 268.761719 L 106.351563 268.089844 L 104.488281 267.398438 L 102.949219 266.800781 L 101.421875 266.179688 L 99.578125 265.398438 L 97.730469 264.589844 L 96.171875 263.878906 L 94.589844 263.128906 L 92.699219 262.179688 L 90.800781 261.210938 L 89.210938 260.351563 L 87.628906 259.46875 L 85.800781 258.410156 L 84.011719 257.339844 L 82.550781 256.449219 L 81.148438 255.558594 L 79.519531 254.480469 L 77.921875 253.398438 L 76.628906 252.5 L 75.359375 251.578125 L 73.859375 250.449219 L 72.359375 249.308594 L 71.109375 248.328125 L 69.898438 247.351563 L 68.5 246.191406 L 67.140625 245.039063 L 66.050781 244.101563 L 64.859375 243.019531 L 63.140625 241.371094 L 61.238281 239.511719 L 59.441406 237.691406 L 57.609375 235.769531 L 55.609375 233.601563 L 53.761719 231.519531 L 52.378906 229.898438 L 51.148438 228.359375 L 49.761719 226.578125 L 48.429688 224.839844 L 47.390625 223.441406 L 46.421875 222.058594 L 45.28125 220.410156 L 44.171875 218.761719 L 43.269531 217.378906 L 42.390625 215.949219 L 41.308594 214.140625 L 40.21875 212.269531 L 39.289063 210.621094 L 38.371094 208.929688 L 37.320313 206.890625 L 36.300781 204.851563 L 35.488281 203.140625 L 34.730469 201.449219 L 33.871094 199.5 L 33.058594 197.589844 L 32.429688 196.039063 L 31.839844 194.5 L 31.148438 192.609375 L 30.46875 190.671875 L 29.921875 189.011719 L 29.398438 187.371094 L 28.828125 185.460938 L 28.289063 183.609375 L 27.890625 182.121094 L 27.519531 180.691406 L 27.121094 179.011719 L 26.730469 177.351563 L 26.441406 175.988281 L 26.171875 174.660156 L 25.871094 173.070313 L 25.589844 171.488281 L 25.371094 170.171875 L 25.160156 168.828125 L 24.929688 167.148438 L 24.710938 165.429688 L 24.539063 163.929688 L 24.378906 162.28125 L 24.210938 160.03125 L 24.050781 157.609375 L 23.929688 155.378906 L 23.828125 152.710938 L 23.800781 150.179688 L 23.839844 147.640625 L 23.941406 144.960938 L 24.058594 142.71875 L 24.21875 140.289063 L 24.398438 138.050781 L 24.550781 136.410156 L 24.738281 134.839844 L 25.019531 132.839844 L 25.328125 130.761719 L 25.621094 128.921875 L 25.960938 127.078125 L 26.371094 124.980469 L 26.789063 122.941406 L 27.160156 121.320313 L 27.558594 119.738281 L 28.058594 117.820313 L 28.601563 115.878906 L 29.070313 114.238281 L 29.558594 112.640625 L 30.140625 110.859375 L 30.710938 109.148438 L 31.171875 107.820313 L 31.648438 106.539063 L 32.261719 104.960938 L 32.890625 103.359375 L 33.449219 101.988281 L 34.070313 100.53125 L 34.910156 98.660156 L 35.820313 96.710938 L 36.648438 94.980469 L 37.53125 93.230469 L 38.570313 91.25 L 39.601563 89.328125 L 40.441406 87.820313 L 41.289063 86.371094 L 42.339844 84.660156 L 43.398438 82.949219 L 44.308594 81.550781 L 45.28125 80.109375 L 46.558594 78.300781 L 47.910156 76.421875 L 49.128906 74.78125 L 50.378906 73.148438 L 51.828125 71.320313 L 53.25 69.578125 L 54.390625 68.21875 L 55.570313 66.878906 L 57.128906 65.191406 L 58.789063 63.441406 L 60.289063 61.910156 L 61.820313 60.398438 L 63.558594 58.738281 L 65.25 57.160156 L 66.589844 55.96875 L 67.871094 54.871094 L 69.371094 53.621094 L 70.839844 52.410156 L 72.050781 51.449219 L 73.261719 50.519531 L 74.761719 49.398438 L 76.28125 48.289063 L 77.601563 47.351563 L 78.960938 46.421875 L 80.660156 45.289063 L 82.390625 44.171875 L 83.890625 43.230469 L 85.519531 42.269531 L 87.660156 41.058594 L 89.941406 39.820313 L 92.011719 38.730469 L 94.070313 37.699219 L 96.339844 36.601563 L 98.480469 35.601563 L 100.089844 34.890625 L 101.609375 34.261719 L 103.449219 33.53125 L 105.300781 32.808594 L 106.859375 32.230469 L 108.488281 31.671875 L 110.578125 30.980469 L 112.761719 30.300781 L 114.699219 29.730469 L 116.671875 29.191406 L 118.988281 28.589844 L 121.269531 28.039063 L 123.128906 27.628906 L 124.910156 27.28125 L 126.929688 26.898438 L 128.859375 26.558594 L 130.378906 26.308594 L 131.890625 26.101563 L 133.800781 25.871094 L 135.769531 25.640625 L 137.511719 25.46875 L 139.339844 25.320313 L 141.640625 25.171875 L 144 25.039063 L 146.058594 24.960938 L 148.199219 24.921875 L 150.691406 24.929688 L 153.179688 24.980469 L 155.328125 25.078125 L 157.339844 25.210938 L 159.570313 25.371094 L 161.679688 25.550781 L 163.28125 25.710938 L 164.800781 25.890625 L 166.621094 26.140625 L 168.449219 26.398438 L 169.980469 26.648438 L 171.511719 26.921875 L 173.328125 27.261719 L 175.140625 27.628906 L 176.640625 27.949219 L 178.191406 28.308594 L 180.171875 28.808594 L 182.230469 29.359375 L 184.050781 29.871094 L 185.878906 30.410156 L 187.980469 31.078125 L 190.019531 31.75 L 191.648438 32.320313 L 193.210938 32.898438 L 195.03125 33.609375 L 196.820313 34.320313 L 198.28125 34.929688 L 199.75 35.570313 L 201.601563 36.421875 L 203.511719 37.328125 L 205.171875 38.140625 L 206.808594 38.980469 L 208.679688 39.96875 L 210.46875 40.941406 L 211.871094 41.730469 L 213.21875 42.53125 L 214.851563 43.53125 L 216.46875 44.539063 L 217.828125 45.421875 L 219.179688 46.328125 L 220.800781 47.449219 L 222.421875 48.601563 L 223.761719 49.578125 L 225.089844 50.578125 L 226.621094 51.78125 L 228.128906 52.96875 L 229.351563 53.96875 L 230.570313 55.011719 L 232.109375 56.351563 L 233.679688 57.761719 L 235.050781 59.011719 L 236.441406 60.339844 L 238.101563 61.988281 L 239.761719 63.691406 L 241.128906 65.160156 L 242.410156 66.578125 L 243.769531 68.121094 L 245.011719 69.550781 L 245.898438 70.601563 L 246.730469 71.621094 L 247.78125 72.960938 L 248.878906 74.378906 L 249.839844 75.648438 L 250.800781 76.96875 L 251.890625 78.5 L 252.941406 80.011719 L 253.769531 81.238281 L 254.578125 82.5 L 255.578125 84.101563 L 256.601563 85.761719 L 257.480469 87.230469 L 258.390625 88.839844 L 259.539063 90.96875 L 260.730469 93.238281 L 261.761719 95.308594 L 262.738281 97.339844 L 263.761719 99.539063 L 264.671875 101.570313 L 265.289063 103.050781 L 265.839844 104.449219 L 266.5 106.199219 L 267.160156 108.011719 L 267.710938 109.578125 L 268.238281 111.179688 L 268.839844 113.050781 L 269.410156 114.898438 L 269.859375 116.421875 L 270.269531 117.949219 L 270.761719 119.871094 L 271.230469 121.839844 L 271.609375 123.550781 L 271.96875 125.230469 L 272.339844 127.128906 L 272.671875 128.941406 L 272.910156 130.351563 L 273.121094 131.730469 L 273.359375 133.460938 L 273.589844 135.230469 L 273.761719 136.761719 L 273.921875 138.441406 L 274.089844 140.691406 L 274.238281 143.089844 L 274.351563 145.28125 L 274.421875 147.679688 L 274.441406 150.339844 L 274.421875 152.988281 L 274.351563 155.378906 L 274.238281 157.550781 L 274.078125 159.921875 L 273.921875 162.140625 L 273.761719 163.789063 L 273.570313 165.351563 L 273.320313 167.25 L 273.050781 169.171875 L 272.800781 170.800781 L 272.519531 172.421875 L 272.160156 174.300781 L 271.800781 176.140625 L 271.480469 177.628906 L 271.148438 179.050781 L 270.761719 180.660156 L 270.371094 182.210938 L 270.050781 183.429688 L 269.710938 184.640625 L 269.269531 186.140625 L 268.800781 187.679688 L 268.378906 189.019531 L 267.910156 190.429688 L 267.261719 192.238281 L 266.570313 194.128906 L 265.921875 195.808594 L 265.238281 197.511719 L 264.410156 199.488281 L 263.578125 201.429688 L 262.871094 203 L 262.148438 204.53125 L 261.261719 206.320313 L 260.371094 208.089844 L 259.601563 209.53125 L 258.828125 210.929688 L 257.910156 212.550781 L 256.988281 214.128906 L 256.230469 215.398438 L 255.441406 216.679688 L 254.410156 218.28125 L 253.320313 219.921875 L 252.351563 221.351563 L 251.359375 222.761719 L 250.199219 224.371094 L 249.058594 225.910156 L 248.140625 227.121094 L 247.191406 228.320313 L 245.949219 229.828125 L 244.660156 231.378906 L 243.5 232.730469 L 242.199219 234.179688 L 240.429688 236.058594 L 238.519531 238.03125 L 236.761719 239.789063 L 234.96875 241.5 L 233 243.351563 L 231.121094 245.039063 L 229.699219 246.269531 L 228.378906 247.359375 L 226.839844 248.589844 L 225.339844 249.769531 L 224.121094 250.691406 L 222.921875 251.570313 L 221.460938 252.609375 L 220 253.640625 L 218.761719 254.480469 L 217.5 255.320313 L 215.960938 256.300781 L 214.390625 257.28125 L 213.058594 258.089844 L 211.609375 258.929688 L 209.671875 260 L 207.589844 261.101563 L 205.691406 262.078125 L 203.808594 263.019531 L 201.789063 263.988281 L 199.910156 264.878906 L 198.558594 265.480469 L 197.230469 266.039063 L 195.460938 266.75 L 193.570313 267.480469 L 191.839844 268.128906 L 190.019531 268.769531 L 187.820313 269.5 L 185.589844 270.199219 L 183.710938 270.761719 L 181.828125 271.269531 L 179.609375 271.839844 L 177.410156 272.378906 L 175.601563 272.789063 L 173.800781 273.160156 L 171.648438 273.558594 L 169.5 273.929688 L 167.699219 274.210938 L 166.019531 274.449219 L 164.21875 274.699219 L 162.570313 274.910156 L 161.378906 275.058594 L 159.980469 275.171875 L 157.191406 275.269531 L 153.898438 275.351563 L 150.449219 275.398438 " transform="matrix(1,0,0,-1,0,300)"/>
<path style="fill:none;stroke-width:0.035;stroke-linecap:round;stroke-linejoin:round;stroke:rgb(0%,0%,0%);stroke-opacity:1;stroke-miterlimit:10;" d="M 148.550781 261.460938 L 150.53125 261.460938 L 152.75 261.410156 L 154.871094 261.339844 L 156.511719 261.25 L 158.089844 261.121094 L 159.988281 260.941406 L 161.910156 260.738281 L 163.519531 260.550781 L 165.109375 260.328125 L 166.949219 260.039063 L 168.738281 259.75 L 170.171875 259.480469 L 171.601563 259.179688 L 173.328125 258.800781 L 175.089844 258.398438 L 176.589844 258.039063 L 178.179688 257.609375 L 180.261719 257.011719 L 182.460938 256.328125 L 184.429688 255.691406 L 186.410156 255 L 188.621094 254.191406 L 190.71875 253.390625 L 192.351563 252.71875 L 193.871094 252.050781 L 195.640625 251.25 L 197.371094 250.441406 L 198.761719 249.761719 L 200.128906 249.058594 L 201.761719 248.191406 L 203.390625 247.289063 L 204.738281 246.519531 L 206.089844 245.71875 L 207.679688 244.738281 L 209.261719 243.75 L 210.558594 242.890625 L 211.828125 242.03125 L 213.28125 241.019531 L 214.679688 240.019531 L 215.789063 239.191406 L 216.898438 238.328125 L 218.308594 237.21875 L 219.75 236.058594 L 221.019531 235.019531 L 222.371094 233.851563 L 224.121094 232.25 L 225.941406 230.539063 L 227.558594 228.949219 L 229.140625 227.339844 L 230.839844 225.558594 L 232.410156 223.859375 L 233.550781 222.570313 L 234.578125 221.351563 L 235.769531 219.890625 L 236.921875 218.429688 L 237.851563 217.21875 L 238.738281 216.03125 L 239.75 214.621094 L 240.738281 213.210938 L 241.53125 212.058594 L 242.300781 210.890625 L 243.21875 209.449219 L 244.128906 207.980469 L 244.898438 206.71875 L 245.679688 205.371094 L 246.640625 203.628906 L 247.621094 201.808594 L 248.460938 200.179688 L 249.289063 198.5 L 250.230469 196.488281 L 251.140625 194.488281 L 251.859375 192.820313 L 252.53125 191.148438 L 253.300781 189.148438 L 254.039063 187.148438 L 254.621094 185.46875 L 255.171875 183.769531 L 255.800781 181.679688 L 256.410156 179.558594 L 256.890625 177.75 L 257.328125 175.949219 L 257.800781 173.878906 L 258.230469 171.871094 L 258.539063 170.269531 L 258.800781 168.761719 L 259.070313 167.058594 L 259.320313 165.449219 L 259.488281 164.210938 L 259.640625 162.929688 L 259.820313 161.210938 L 259.980469 159.371094 L 260.121094 157.691406 L 260.230469 155.648438 L 260.289063 153.210938 L 260.308594 150.519531 L 260.269531 147.710938 L 260.191406 145.140625 L 260.058594 142.441406 L 259.898438 140 L 259.75 138.308594 L 259.558594 136.789063 L 259.308594 134.960938 L 259.03125 133.128906 L 258.789063 131.589844 L 258.5 130.011719 L 258.101563 128.03125 L 257.660156 126 L 257.25 124.230469 L 256.808594 122.449219 L 256.25 120.410156 L 255.691406 118.410156 L 255.199219 116.808594 L 254.691406 115.261719 L 254.058594 113.429688 L 253.421875 111.628906 L 252.859375 110.148438 L 252.28125 108.710938 L 251.570313 107.019531 L 250.859375 105.351563 L 250.25 103.988281 L 249.621094 102.640625 L 248.820313 101.011719 L 247.988281 99.378906 L 247.261719 98.011719 L 246.539063 96.691406 L 245.710938 95.21875 L 244.910156 93.828125 L 244.28125 92.769531 L 243.621094 91.710938 L 242.738281 90.328125 L 241.789063 88.878906 L 240.921875 87.578125 L 240 86.269531 L 238.921875 84.761719 L 237.851563 83.300781 L 236.96875 82.140625 L 236.050781 80.988281 L 234.859375 79.550781 L 233.621094 78.070313 L 232.511719 76.789063 L 231.300781 75.460938 L 229.730469 73.789063 L 228.070313 72.078125 L 226.570313 70.589844 L 225.089844 69.171875 L 223.460938 67.660156 L 221.929688 66.269531 L 220.78125 65.28125 L 219.679688 64.378906 L 218.339844 63.308594 L 216.960938 62.230469 L 215.789063 61.339844 L 214.578125 60.449219 L 213.101563 59.378906 L 211.578125 58.328125 L 210.28125 57.441406 L 208.960938 56.578125 L 207.378906 55.589844 L 205.789063 54.609375 L 204.460938 53.828125 L 203.089844 53.058594 L 201.351563 52.121094 L 199.550781 51.191406 L 197.96875 50.398438 L 196.390625 49.640625 L 194.578125 48.800781 L 192.828125 48.019531 L 191.441406 47.421875 L 189.980469 46.828125 L 188.019531 46.101563 L 185.898438 45.339844 L 183.949219 44.679688 L 181.941406 44.039063 L 179.621094 43.339844 L 177.339844 42.699219 L 175.519531 42.21875 L 173.769531 41.808594 L 171.738281 41.371094 L 169.761719 40.96875 L 168.160156 40.679688 L 166.589844 40.421875 L 164.710938 40.140625 L 162.828125 39.871094 L 161.261719 39.671875 L 159.109375 39.449219 L 156.769531 39.320313 L 153.71875 39.261719 L 149.148438 39.238281 L 144.570313 39.261719 L 141.519531 39.320313 L 139.191406 39.449219 L 137.03125 39.671875 L 135.460938 39.871094 L 133.589844 40.140625 L 131.710938 40.421875 L 130.140625 40.679688 L 128.519531 40.96875 L 126.449219 41.398438 L 124.300781 41.871094 L 122.410156 42.320313 L 120.441406 42.839844 L 118.039063 43.519531 L 115.621094 44.261719 L 113.570313 44.929688 L 111.558594 45.640625 L 109.289063 46.488281 L 107.101563 47.339844 L 105.378906 48.050781 L 103.820313 48.738281 L 102.140625 49.5 L 100.578125 50.230469 L 99.449219 50.78125 L 98.351563 51.351563 L 96.898438 52.128906 L 95.371094 52.96875 L 93.988281 53.75 L 92.578125 54.570313 L 90.980469 55.539063 L 89.429688 56.5 L 88.191406 57.300781 L 87.011719 58.089844 L 85.609375 59.058594 L 84.230469 60.039063 L 83.089844 60.871094 L 81.941406 61.730469 L 80.53125 62.828125 L 79.101563 63.980469 L 77.871094 64.980469 L 76.570313 66.101563 L 74.898438 67.601563 L 73.160156 69.21875 L 71.609375 70.710938 L 70.089844 72.210938 L 68.46875 73.878906 L 66.96875 75.460938 L 65.878906 76.648438 L 64.898438 77.800781 L 63.730469 79.179688 L 62.570313 80.578125 L 61.621094 81.761719 L 60.621094 83.070313 L 59.289063 84.898438 L 57.878906 86.898438 L 56.609375 88.769531 L 55.378906 90.648438 L 54.109375 92.640625 L 52.96875 94.480469 L 52.210938 95.78125 L 51.53125 97.03125 L 50.671875 98.671875 L 49.78125 100.410156 L 49.011719 101.960938 L 48.230469 103.609375 L 47.328125 105.628906 L 46.441406 107.691406 L 45.730469 109.449219 L 45.070313 111.140625 L 44.390625 112.980469 L 43.769531 114.699219 L 43.339844 115.980469 L 42.96875 117.171875 L 42.539063 118.601563 L 42.121094 120.019531 L 41.78125 121.210938 L 41.449219 122.449219 L 41.058594 124.039063 L 40.671875 125.691406 L 40.339844 127.160156 L 40.03125 128.738281 L 39.671875 130.738281 L 39.320313 132.808594 L 39.050781 134.640625 L 38.800781 136.511719 L 38.539063 138.710938 L 38.320313 140.890625 L 38.171875 142.691406 L 38.058594 144.71875 L 38 147.199219 L 37.988281 149.949219 L 38.03125 152.78125 L 38.109375 155.398438 L 38.238281 158.140625 L 38.390625 160.609375 L 38.550781 162.308594 L 38.738281 163.828125 L 38.988281 165.671875 L 39.269531 167.519531 L 39.519531 169.078125 L 39.820313 170.710938 L 40.25 172.78125 L 40.71875 174.949219 L 41.171875 176.859375 L 41.671875 178.78125 L 42.269531 180.96875 L 42.890625 183.089844 L 43.421875 184.761719 L 43.949219 186.328125 L 44.578125 188.101563 L 45.191406 189.789063 L 45.699219 191.109375 L 46.289063 192.539063 L 47.230469 194.621094 L 48.300781 196.929688 L 49.359375 199.128906 L 50.460938 201.328125 L 51.640625 203.589844 L 52.730469 205.621094 L 53.519531 206.96875 L 54.230469 208.140625 L 55.078125 209.488281 L 55.921875 210.800781 L 56.609375 211.859375 L 57.320313 212.910156 L 58.25 214.230469 L 59.210938 215.570313 L 60.070313 216.730469 L 60.980469 217.921875 L 62.109375 219.371094 L 63.28125 220.820313 L 64.300781 222.058594 L 65.449219 223.390625 L 67.101563 225.179688 L 68.910156 227.089844 L 70.621094 228.828125 L 72.371094 230.550781 L 74.28125 232.359375 L 76.070313 234 L 77.398438 235.148438 L 78.609375 236.160156 L 80.019531 237.289063 L 81.398438 238.371094 L 82.5 239.210938 L 83.601563 240.019531 L 84.949219 240.988281 L 86.320313 241.949219 L 87.488281 242.738281 L 88.691406 243.53125 L 90.140625 244.460938 L 91.601563 245.371094 L 92.839844 246.121094 L 94.128906 246.871094 L 95.78125 247.78125 L 97.5 248.699219 L 99.019531 249.488281 L 100.578125 250.269531 L 102.460938 251.148438 L 104.328125 252.019531 L 105.890625 252.699219 L 107.53125 253.371094 L 109.648438 254.191406 L 111.871094 255 L 113.851563 255.691406 L 115.859375 256.339844 L 118.171875 257.039063 L 120.398438 257.691406 L 122.179688 258.160156 L 123.871094 258.558594 L 125.808594 259 L 127.691406 259.398438 L 129.191406 259.691406 L 130.640625 259.941406 L 132.359375 260.210938 L 134.070313 260.46875 L 135.488281 260.660156 L 136.871094 260.820313 L 138.46875 260.988281 L 140.039063 261.140625 L 141.308594 261.238281 L 142.671875 261.308594 L 144.558594 261.378906 L 146.628906 261.441406 L 148.550781 261.460938 " transform="matrix(1,0,0,-1,0,300)"/>
<path style="fill:none;stroke-width:0.035;stroke-linecap:round;stroke-linejoin:round;stroke:rgb(0%,0%,0%);stroke-opacity:1;stroke-miterlimit:10;" d="M 149.5 253.339844 L 148.730469 253.351563 L 147.988281 253.328125 L 147.351563 253.28125 L 147.011719 253.210938 L 146.730469 253.109375 L 146.371094 252.96875 L 146.011719 252.800781 L 145.691406 252.640625 L 145.351563 252.429688 L 144.898438 252.070313 L 144.429688 251.648438 L 144 251.230469 L 143.601563 250.738281 L 143.191406 250.148438 L 142.828125 249.539063 L 142.589844 249.011719 L 142.378906 248.261719 L 142.289063 247.488281 L 142.199219 241.269531 L 142.148438 230.171875 L 142.140625 198.179688 L 142.140625 148.53125 L 142.640625 147.441406 L 142.890625 146.96875 L 143.21875 146.429688 L 143.570313 145.898438 L 143.898438 145.488281 L 144.289063 145.109375 L 144.839844 144.691406 L 145.441406 144.28125 L 146.019531 143.960938 L 147.371094 143.300781 L 203.199219 143.300781 L 204.421875 143.941406 L 204.949219 144.269531 L 205.570313 144.71875 L 206.148438 145.230469 L 206.621094 145.699219 L 207.058594 146.261719 L 207.449219 146.871094 L 207.761719 147.5 L 207.988281 148.128906 L 208.140625 148.789063 L 208.238281 149.480469 L 208.269531 150.191406 L 208.25 150.921875 L 208.148438 151.648438 L 207.988281 152.328125 L 207.761719 152.988281 L 207.449219 153.628906 L 207.128906 154.171875 L 206.699219 154.738281 L 206.261719 155.269531 L 205.851563 155.671875 L 205.421875 156 L 204.878906 156.328125 L 204.320313 156.628906 L 203.839844 156.828125 L 203.25 156.980469 L 202.648438 157.050781 L 198.96875 157.128906 L 192.828125 157.191406 L 179.519531 157.199219 L 156.28125 157.199219 L 156.21875 202.640625 L 156.160156 248.078125 L 155.609375 249.261719 L 155.339844 249.78125 L 154.96875 250.371094 L 154.558594 250.929688 L 154.179688 251.359375 L 153.78125 251.75 L 153.28125 252.148438 L 152.78125 252.511719 L 152.359375 252.769531 L 151.808594 253 L 151.179688 253.171875 L 150.441406 253.28125 L 149.5 253.339844 " transform="matrix(1,0,0,-1,0,300)"/>
</g>
</svg>
