<?xml version="1.0" encoding="UTF-8" standalone="no"?>
<!-- Created with Inkscape (http://www.inkscape.org/) -->

<svg
   version="1.1"
   id="svg1"
   width="1280"
   height="746.66669"
   viewBox="0 0 1280 746.66669"
   sodipodi:docname="wmlte-yfe34.ai"
   xmlns:inkscape="http://www.inkscape.org/namespaces/inkscape"
   xmlns:sodipodi="http://sodipodi.sourceforge.net/DTD/sodipodi-0.dtd"
   xmlns="http://www.w3.org/2000/svg"
   xmlns:svg="http://www.w3.org/2000/svg">
  <defs
     id="defs1">
    <clipPath
       clipPathUnits="userSpaceOnUse"
       id="clipPath2">
      <path
         d="M 0,560 H 960 V 0 H 0 Z"
         transform="translate(-455.00001,-346.52391)"
         id="path2" />
    </clipPath>
    <clipPath
       clipPathUnits="userSpaceOnUse"
       id="clipPath4">
      <path
         d="M 0,560 H 960 V 0 H 0 Z"
         id="path4" />
    </clipPath>
    <clipPath
       clipPathUnits="userSpaceOnUse"
       id="clipPath6">
      <path
         d="M 0,560 H 960 V 0 H 0 Z"
         transform="translate(-683.16701,-337.33351)"
         id="path6" />
    </clipPath>
    <clipPath
       clipPathUnits="userSpaceOnUse"
       id="clipPath8">
      <path
         d="M 0,560 H 960 V 0 H 0 Z"
         transform="translate(-553.65041,-491.50001)"
         id="path8" />
    </clipPath>
    <clipPath
       clipPathUnits="userSpaceOnUse"
       id="clipPath10">
      <path
         d="M 0,560 H 960 V 0 H 0 Z"
         transform="translate(-553.65041,-323.50001)"
         id="path10" />
    </clipPath>
    <clipPath
       clipPathUnits="userSpaceOnUse"
       id="clipPath12">
      <path
         d="M 0,560 H 960 V 0 H 0 Z"
         id="path12" />
    </clipPath>
    <clipPath
       clipPathUnits="userSpaceOnUse"
       id="clipPath14">
      <path
         d="M 0,560 H 960 V 0 H 0 Z"
         id="path14" />
    </clipPath>
    <clipPath
       clipPathUnits="userSpaceOnUse"
       id="clipPath16">
      <path
         d="M 0,560 H 960 V 0 H 0 Z"
         transform="translate(-582.03611,-429.39161)"
         id="path16" />
    </clipPath>
    <clipPath
       clipPathUnits="userSpaceOnUse"
       id="clipPath18">
      <path
         d="M 0,560 H 960 V 0 H 0 Z"
         transform="translate(-582.03611,-404.28471)"
         id="path18" />
    </clipPath>
    <clipPath
       clipPathUnits="userSpaceOnUse"
       id="clipPath20">
      <path
         d="M 0,560 H 960 V 0 H 0 Z"
         transform="translate(-581.61911,-377.66461)"
         id="path20" />
    </clipPath>
    <clipPath
       clipPathUnits="userSpaceOnUse"
       id="clipPath22">
      <path
         d="M 0,560 H 960 V 0 H 0 Z"
         transform="translate(-580.65142,-352.16461)"
         id="path22" />
    </clipPath>
    <clipPath
       clipPathUnits="userSpaceOnUse"
       id="clipPath24">
      <path
         d="M 0,560 H 960 V 0 H 0 Z"
         transform="translate(-582.28612,-323.49801)"
         id="path24" />
    </clipPath>
    <clipPath
       clipPathUnits="userSpaceOnUse"
       id="clipPath26">
      <path
         d="M 0,560 H 960 V 0 H 0 Z"
         transform="translate(-361.66651,-435.33351)"
         id="path26" />
    </clipPath>
    <clipPath
       clipPathUnits="userSpaceOnUse"
       id="clipPath28">
      <path
         d="M 0,560 H 960 V 0 H 0 Z"
         transform="translate(-344.32861,-364.33201)"
         id="path28" />
    </clipPath>
    <clipPath
       clipPathUnits="userSpaceOnUse"
       id="clipPath30">
      <path
         d="M 0,560 H 960 V 0 H 0 Z"
         transform="translate(-344.32861,-293.66501)"
         id="path30" />
    </clipPath>
    <clipPath
       clipPathUnits="userSpaceOnUse"
       id="clipPath32">
      <path
         d="M 0,560 H 960 V 0 H 0 Z"
         transform="translate(-344.62991,-222.99801)"
         id="path32" />
    </clipPath>
    <clipPath
       clipPathUnits="userSpaceOnUse"
       id="clipPath34">
      <path
         d="M 0,560 H 960 V 0 H 0 Z"
         transform="translate(-344.32861,-153.3311)"
         id="path34" />
    </clipPath>
    <clipPath
       clipPathUnits="userSpaceOnUse"
       id="clipPath36">
      <path
         d="M 0,560 H 960 V 0 H 0 Z"
         transform="translate(-410.69431,-363.54981)"
         id="path36" />
    </clipPath>
    <clipPath
       clipPathUnits="userSpaceOnUse"
       id="clipPath38">
      <path
         d="M 0,560 H 960 V 0 H 0 Z"
         transform="translate(-410.69431,-292.8828)"
         id="path38" />
    </clipPath>
    <clipPath
       clipPathUnits="userSpaceOnUse"
       id="clipPath40">
      <path
         d="M 0,560 H 960 V 0 H 0 Z"
         transform="translate(-410.39311,-222.21581)"
         id="path40" />
    </clipPath>
    <clipPath
       clipPathUnits="userSpaceOnUse"
       id="clipPath42">
      <path
         d="M 0,560 H 960 V 0 H 0 Z"
         transform="translate(-410.69431,-152.54981)"
         id="path42" />
    </clipPath>
  </defs>
  <sodipodi:namedview
     id="namedview1"
     pagecolor="#ffffff"
     bordercolor="#000000"
     borderopacity="0.25"
     inkscape:showpageshadow="2"
     inkscape:pageopacity="0.0"
     inkscape:pagecheckerboard="0"
     inkscape:deskcolor="#d1d1d1">
    <inkscape:page
       x="0"
       y="0"
       inkscape:label="1"
       id="page1"
       width="1280"
       height="746.66669"
       margin="111.11066 318.74133 72.666664 401.33334"
       bleed="0" />
  </sodipodi:namedview>
  <g
     id="layer-MC0"
     inkscape:groupmode="layer"
     inkscape:label="Слой 4">
    <path
       id="path1"
       d="m 0,0 v -159.047 c 12.137,2.342 21.333,13.046 21.333,25.856 V -25.857 C 21.333,-13.046 12.137,-2.343 0,0 m -5,-173.524 h -9 v 188 h 9 c 22.239,0 40.333,-18.093 40.333,-40.333 v -107.334 c 0,-22.239 -18.094,-40.333 -40.333,-40.333"
       style="fill:#000000;fill-opacity:1;fill-rule:nonzero;stroke:none"
       transform="matrix(1.3333333,0,0,-1.3333333,606.66667,284.6348)"
       clip-path="url(#clipPath2)" />
    <path
       id="path3"
       d="m 490.333,263.333 h 179 v 23.334 h -179 z m 193,-14 h -207 v 51.334 h 207 z"
       style="fill:#000000;fill-opacity:1;fill-rule:nonzero;stroke:none"
       transform="matrix(1.3333333,0,0,-1.3333333,0,746.66667)"
       clip-path="url(#clipPath4)" />
    <path
       id="path5"
       d="M 0,0 -0.001,-6.944 H 0 Z M 0.11,-117.722 H 23.888 V -6.944 H 0.11 Z M 24,-131.611 H 0 c -7.598,0 -13.778,6.181 -13.778,13.778 v 111 c 0,7.597 6.18,13.777 13.778,13.777 h 24 c 7.597,0 13.777,-6.18 13.777,-13.777 v -111 c 0,-7.597 -6.18,-13.778 -13.777,-13.778"
       style="fill:#000000;fill-opacity:1;fill-rule:nonzero;stroke:none"
       transform="matrix(1.3333333,0,0,-1.3333333,910.88933,296.88867)"
       clip-path="url(#clipPath6)" />
    <path
       id="path7"
       d="m 0,0 c -6.341,0 -11.5,-5.159 -11.5,-11.5 0,-6.341 5.159,-11.5 11.5,-11.5 6.341,0 11.5,5.159 11.5,11.5 C 11.5,-5.159 6.341,0 0,0 m 0,-37 c -14.061,0 -25.5,11.439 -25.5,25.5 C -25.5,2.561 -14.061,14 0,14 14.061,14 25.5,2.561 25.5,-11.5 25.5,-25.561 14.061,-37 0,-37"
       style="fill:#000000;fill-opacity:1;fill-rule:nonzero;stroke:none"
       transform="matrix(1.3333333,0,0,-1.3333333,738.20053,91.333333)"
       clip-path="url(#clipPath8)" />
    <path
       id="path9"
       d="m 0,0 c -6.341,0 -11.5,-5.159 -11.5,-11.5 0,-6.341 5.159,-11.5 11.5,-11.5 6.341,0 11.5,5.159 11.5,11.5 C 11.5,-5.159 6.341,0 0,0 m 0,-37 c -14.061,0 -25.5,11.439 -25.5,25.5 C -25.5,2.561 -14.061,14 0,14 14.061,14 25.5,2.561 25.5,-11.5 25.5,-25.561 14.061,-37 0,-37"
       style="fill:#000000;fill-opacity:1;fill-rule:nonzero;stroke:none"
       transform="matrix(1.3333333,0,0,-1.3333333,738.20053,315.33333)"
       clip-path="url(#clipPath10)" />
    <path
       id="path11"
       d="m 563.484,330.833 h -18.333 v 130 h 18.333 z"
       style="fill:#000000;fill-opacity:1;fill-rule:nonzero;stroke:none"
       transform="matrix(1.3333333,0,0,-1.3333333,0,746.66667)"
       clip-path="url(#clipPath12)" />
    <path
       id="path13"
       d="m 551.834,337.517 h 4.967 V 454.15 h -4.967 z m 18.334,-13.367 h -31.701 v 143.367 h 31.701 z"
       style="fill:#000000;fill-opacity:1;fill-rule:nonzero;stroke:none"
       transform="matrix(1.3333333,0,0,-1.3333333,0,746.66667)"
       clip-path="url(#clipPath14)" />
    <path
       id="path15"
       d="m 0,0 c -0.719,0 -1.45,0.112 -2.172,0.347 l -55.936,18.246 c -3.675,1.199 -5.683,5.15 -4.485,8.825 1.199,3.674 5.145,5.684 8.826,4.484 L 2.17,13.657 C 5.845,12.458 7.853,8.507 6.654,4.831 5.69,1.877 2.948,0 0,0"
       style="fill:#000000;fill-opacity:1;fill-rule:nonzero;stroke:none"
       transform="matrix(1.3333333,0,0,-1.3333333,776.04813,174.14453)"
       clip-path="url(#clipPath16)" />
    <path
       id="path17"
       d="m 0,0 c -0.719,0 -1.45,0.112 -2.172,0.347 l -55.936,18.246 c -3.675,1.199 -5.683,5.15 -4.485,8.825 1.199,3.675 5.145,5.685 8.826,4.484 L 2.17,13.657 C 5.845,12.458 7.853,8.507 6.654,4.831 5.69,1.877 2.948,0 0,0"
       style="fill:#000000;fill-opacity:1;fill-rule:nonzero;stroke:none"
       transform="matrix(1.3333333,0,0,-1.3333333,776.04813,207.6204)"
       clip-path="url(#clipPath18)" />
    <path
       id="path19"
       d="m 0,0 c -0.719,0 -1.45,0.112 -2.172,0.347 l -55.935,18.246 c -3.676,1.199 -5.683,5.151 -4.485,8.826 1.199,3.674 5.145,5.683 8.826,4.484 L 2.17,13.657 C 5.846,12.458 7.853,8.506 6.654,4.831 5.69,1.877 2.948,0 0,0"
       style="fill:#000000;fill-opacity:1;fill-rule:nonzero;stroke:none"
       transform="matrix(1.3333333,0,0,-1.3333333,775.49213,243.11387)"
       clip-path="url(#clipPath20)" />
    <path
       id="path21"
       d="m 0,0 c -0.719,0 -1.45,0.112 -2.172,0.347 l -55.935,18.246 c -3.676,1.199 -5.683,5.151 -4.485,8.826 1.199,3.674 5.146,5.684 8.826,4.484 L 2.17,13.657 C 5.846,12.458 7.853,8.506 6.654,4.831 5.69,1.877 2.948,0 0,0"
       style="fill:#000000;fill-opacity:1;fill-rule:nonzero;stroke:none"
       transform="matrix(1.3333333,0,0,-1.3333333,774.20187,277.11387)"
       clip-path="url(#clipPath22)" />
    <path
       id="path23"
       d="m 0,0 c -0.719,0 -1.45,0.111 -2.172,0.347 l -55.935,18.246 c -3.675,1.199 -5.683,5.15 -4.485,8.825 1.199,3.676 5.148,5.683 8.826,4.484 L 2.17,13.657 C 5.845,12.458 7.853,8.507 6.654,4.831 5.69,1.877 2.948,0 0,0"
       style="fill:#000000;fill-opacity:1;fill-rule:nonzero;stroke:none"
       transform="matrix(1.3333333,0,0,-1.3333333,776.38147,315.336)"
       clip-path="url(#clipPath24)" />
    <path
       id="path25"
       d="M 0,0 C -25.732,0 -46.667,-20.935 -46.667,-46.667 V -291.333 C -46.667,-317.066 -25.732,-338 0,-338 h 32.667 c 25.732,0 46.666,20.934 46.666,46.667 V -46.667 C 79.333,-20.935 58.399,0 32.667,0 Z M 32.667,-352 H 0 c -33.452,0 -60.667,27.214 -60.667,60.667 V -46.667 C -60.667,-13.215 -33.452,14 0,14 h 32.667 c 33.452,0 60.666,-27.215 60.666,-60.667 V -291.333 C 93.333,-324.786 66.119,-352 32.667,-352"
       style="fill:#000000;fill-opacity:1;fill-rule:nonzero;stroke:none"
       transform="matrix(1.3333333,0,0,-1.3333333,482.222,166.222)"
       clip-path="url(#clipPath26)" />
    <path
       id="path27"
       d="m 0,0 c -1.008,0 -2.031,0.218 -3.002,0.68 l -34.334,16.333 c -3.491,1.661 -4.975,5.838 -3.314,9.329 1.661,3.49 5.837,4.975 9.329,3.314 L 3.012,13.323 C 6.503,11.662 7.987,7.485 6.326,3.994 5.127,1.474 2.617,0 0,0"
       style="fill:#000000;fill-opacity:1;fill-rule:nonzero;stroke:none"
       transform="matrix(1.3333333,0,0,-1.3333333,459.1048,260.89067)"
       clip-path="url(#clipPath28)" />
    <path
       id="path29"
       d="m 0,0 c -1.008,0 -2.031,0.219 -3.002,0.681 l -34.334,16.333 c -3.491,1.661 -4.975,5.837 -3.314,9.328 1.661,3.491 5.837,4.975 9.329,3.314 L 3.012,13.323 C 6.503,11.662 7.987,7.486 6.326,3.995 5.127,1.475 2.617,0 0,0"
       style="fill:#000000;fill-opacity:1;fill-rule:nonzero;stroke:none"
       transform="matrix(1.3333333,0,0,-1.3333333,459.1048,355.11333)"
       clip-path="url(#clipPath30)" />
    <path
       id="path31"
       d="m 0,0 c -1.008,0 -2.031,0.219 -3.002,0.681 l -34.334,16.333 c -3.491,1.661 -4.975,5.837 -3.314,9.328 1.661,3.491 5.836,4.974 9.329,3.314 L 3.012,13.323 C 6.503,11.662 7.987,7.486 6.326,3.995 5.127,1.475 2.617,0 0,0"
       style="fill:#000000;fill-opacity:1;fill-rule:nonzero;stroke:none"
       transform="matrix(1.3333333,0,0,-1.3333333,459.50653,449.336)"
       clip-path="url(#clipPath32)" />
    <path
       id="path33"
       d="m 0,0 c -1.008,0 -2.032,0.219 -3.002,0.681 l -34.334,16.334 c -3.491,1.661 -4.975,5.838 -3.314,9.328 1.661,3.491 5.838,4.976 9.329,3.314 L 3.012,13.323 C 6.503,11.662 7.987,7.485 6.326,3.995 5.127,1.475 2.617,0 0,0"
       style="fill:#000000;fill-opacity:1;fill-rule:nonzero;stroke:none"
       transform="matrix(1.3333333,0,0,-1.3333333,459.1048,542.2252)"
       clip-path="url(#clipPath34)" />
    <path
       id="path35"
       d="m 0,0 c -2.617,0 -5.127,1.474 -6.326,3.994 -1.661,3.491 -0.177,7.668 3.314,9.329 l 34.333,16.333 c 3.488,1.661 7.667,0.178 9.328,-3.314 1.662,-3.491 0.177,-7.667 -3.314,-9.328 L 3.002,0.68 C 2.032,0.219 1.008,0 0,0"
       style="fill:#000000;fill-opacity:1;fill-rule:nonzero;stroke:none"
       transform="matrix(1.3333333,0,0,-1.3333333,547.5924,261.9336)"
       clip-path="url(#clipPath36)" />
    <path
       id="path37"
       d="m 0,0 c -2.617,0 -5.127,1.475 -6.326,3.995 -1.661,3.491 -0.177,7.667 3.314,9.328 l 34.333,16.333 c 3.492,1.662 7.667,0.178 9.328,-3.314 1.662,-3.491 0.177,-7.667 -3.314,-9.328 L 3.002,0.681 C 2.032,0.219 1.008,0 0,0"
       style="fill:#000000;fill-opacity:1;fill-rule:nonzero;stroke:none"
       transform="matrix(1.3333333,0,0,-1.3333333,547.5924,356.15627)"
       clip-path="url(#clipPath38)" />
    <path
       id="path39"
       d="m 0,0 c -2.617,0 -5.127,1.475 -6.326,3.995 -1.661,3.49 -0.177,7.667 3.314,9.328 l 34.334,16.334 c 3.488,1.663 7.666,0.177 9.328,-3.314 1.661,-3.49 0.177,-7.667 -3.315,-9.328 L 3.002,0.681 C 2.032,0.219 1.008,0 0,0"
       style="fill:#000000;fill-opacity:1;fill-rule:nonzero;stroke:none"
       transform="matrix(1.3333333,0,0,-1.3333333,547.1908,450.37893)"
       clip-path="url(#clipPath40)" />
    <path
       id="path41"
       d="m 0,0 c -2.617,0 -5.127,1.475 -6.326,3.995 -1.661,3.491 -0.177,7.667 3.314,9.328 l 34.333,16.333 c 3.492,1.663 7.667,0.177 9.328,-3.314 1.662,-3.491 0.177,-7.667 -3.314,-9.328 L 3.002,0.681 C 2.032,0.219 1.008,0 0,0"
       style="fill:#000000;fill-opacity:1;fill-rule:nonzero;stroke:none"
       transform="matrix(1.3333333,0,0,-1.3333333,547.5924,543.26693)"
       clip-path="url(#clipPath42)" />
  </g>
</svg>
