<?xml version="1.0" encoding="UTF-8" standalone="no"?>
<!-- Created with Inkscape (http://www.inkscape.org/) -->

<svg
   version="1.1"
   id="svg1"
   width="1280"
   height="746.66669"
   viewBox="0 0 1280 746.66669"
   sodipodi:docname="oeyza-sbj6f.ai"
   xmlns:inkscape="http://www.inkscape.org/namespaces/inkscape"
   xmlns:sodipodi="http://sodipodi.sourceforge.net/DTD/sodipodi-0.dtd"
   xmlns="http://www.w3.org/2000/svg"
   xmlns:svg="http://www.w3.org/2000/svg">
  <defs
     id="defs1">
    <clipPath
       clipPathUnits="userSpaceOnUse"
       id="clipPath2">
      <path
         d="M 0,560 H 960 V 0 H 0 Z"
         transform="translate(-673.20412,-486.53371)"
         id="path2" />
    </clipPath>
    <clipPath
       clipPathUnits="userSpaceOnUse"
       id="clipPath4">
      <path
         d="M 0,560 H 960 V 0 H 0 Z"
         transform="translate(-611.73632,-385.75981)"
         id="path4" />
    </clipPath>
    <clipPath
       clipPathUnits="userSpaceOnUse"
       id="clipPath6">
      <path
         d="M 0,560 H 960 V 0 H 0 Z"
         transform="translate(-602.85941,-345.52781)"
         id="path6" />
    </clipPath>
    <clipPath
       clipPathUnits="userSpaceOnUse"
       id="clipPath8">
      <path
         d="M 0,560 H 960 V 0 H 0 Z"
         transform="translate(-307.79741,-317.15041)"
         id="path8" />
    </clipPath>
    <clipPath
       clipPathUnits="userSpaceOnUse"
       id="clipPath10">
      <path
         d="M 0,560 H 960 V 0 H 0 Z"
         transform="translate(-571.56151,-290.00001)"
         id="path10" />
    </clipPath>
    <clipPath
       clipPathUnits="userSpaceOnUse"
       id="clipPath12">
      <path
         d="M 0,560 H 960 V 0 H 0 Z"
         id="path12" />
    </clipPath>
    <clipPath
       clipPathUnits="userSpaceOnUse"
       id="clipPath14">
      <path
         d="M 0,560 H 960 V 0 H 0 Z"
         transform="translate(-552.34372,-232.002)"
         id="path14" />
    </clipPath>
    <clipPath
       clipPathUnits="userSpaceOnUse"
       id="clipPath16">
      <path
         d="M 0,560 H 960 V 0 H 0 Z"
         transform="translate(-551.34371,-209.65331)"
         id="path16" />
    </clipPath>
    <clipPath
       clipPathUnits="userSpaceOnUse"
       id="clipPath18">
      <path
         d="M 0,560 H 960 V 0 H 0 Z"
         transform="translate(-540.25001,-245.00001)"
         id="path18" />
    </clipPath>
    <clipPath
       clipPathUnits="userSpaceOnUse"
       id="clipPath20">
      <path
         d="M 0,560 H 960 V 0 H 0 Z"
         transform="translate(-540.80371,-246)"
         id="path20" />
    </clipPath>
    <clipPath
       clipPathUnits="userSpaceOnUse"
       id="clipPath22">
      <path
         d="M 0,560 H 960 V 0 H 0 Z"
         transform="translate(-506.28661,-222.8553)"
         id="path22" />
    </clipPath>
    <clipPath
       clipPathUnits="userSpaceOnUse"
       id="clipPath24">
      <path
         d="M 0,560 H 960 V 0 H 0 Z"
         transform="translate(-492.99411,-239.96871)"
         id="path24" />
    </clipPath>
    <clipPath
       clipPathUnits="userSpaceOnUse"
       id="clipPath26">
      <path
         d="M 0,560 H 960 V 0 H 0 Z"
         transform="translate(-595.05442,-222.8553)"
         id="path26" />
    </clipPath>
    <clipPath
       clipPathUnits="userSpaceOnUse"
       id="clipPath28">
      <path
         d="M 0,560 H 960 V 0 H 0 Z"
         transform="translate(-580.08892,-238.52831)"
         id="path28" />
    </clipPath>
    <clipPath
       clipPathUnits="userSpaceOnUse"
       id="clipPath30">
      <path
         d="M 0,560 H 960 V 0 H 0 Z"
         transform="translate(-506.28661,-164.6699)"
         id="path30" />
    </clipPath>
    <clipPath
       clipPathUnits="userSpaceOnUse"
       id="clipPath32">
      <path
         d="M 0,560 H 960 V 0 H 0 Z"
         transform="translate(-492.99411,-147.55661)"
         id="path32" />
    </clipPath>
    <clipPath
       clipPathUnits="userSpaceOnUse"
       id="clipPath34">
      <path
         d="M 0,560 H 960 V 0 H 0 Z"
         transform="translate(-597.05441,-163.66991)"
         id="path34" />
    </clipPath>
    <clipPath
       clipPathUnits="userSpaceOnUse"
       id="clipPath36">
      <path
         d="M 0,560 H 960 V 0 H 0 Z"
         transform="translate(-582.08891,-147.9971)"
         id="path36" />
    </clipPath>
    <clipPath
       clipPathUnits="userSpaceOnUse"
       id="clipPath38">
      <path
         d="M 0,560 H 960 V 0 H 0 Z"
         transform="translate(-540.25001,-141)"
         id="path38" />
    </clipPath>
    <clipPath
       clipPathUnits="userSpaceOnUse"
       id="clipPath40">
      <path
         d="M 0,560 H 960 V 0 H 0 Z"
         transform="translate(-542.95121,-120)"
         id="path40" />
    </clipPath>
    <clipPath
       clipPathUnits="userSpaceOnUse"
       id="clipPath42">
      <path
         d="M 0,560 H 960 V 0 H 0 Z"
         transform="translate(-498.50001,-183.375)"
         id="path42" />
    </clipPath>
    <clipPath
       clipPathUnits="userSpaceOnUse"
       id="clipPath44">
      <path
         d="M 0,560 H 960 V 0 H 0 Z"
         transform="translate(-604.00001,-183.375)"
         id="path44" />
    </clipPath>
    <clipPath
       clipPathUnits="userSpaceOnUse"
       id="clipPath46">
      <path
         d="M 0,560 H 960 V 0 H 0 Z"
         transform="translate(-605.00002,-205.03911)"
         id="path46" />
    </clipPath>
    <clipPath
       clipPathUnits="userSpaceOnUse"
       id="clipPath48">
      <path
         d="M 0,560 H 960 V 0 H 0 Z"
         transform="translate(-431.69631,-213.36521)"
         id="path48" />
    </clipPath>
    <clipPath
       clipPathUnits="userSpaceOnUse"
       id="clipPath50">
      <path
         d="M 0,560 H 960 V 0 H 0 Z"
         transform="translate(-420.25001,-225)"
         id="path50" />
    </clipPath>
    <clipPath
       clipPathUnits="userSpaceOnUse"
       id="clipPath52">
      <path
         d="M 0,560 H 960 V 0 H 0 Z"
         transform="translate(-420.80371,-226.00001)"
         id="path52" />
    </clipPath>
    <clipPath
       clipPathUnits="userSpaceOnUse"
       id="clipPath54">
      <path
         d="M 0,560 H 960 V 0 H 0 Z"
         transform="translate(-420.25001,-163.00001)"
         id="path54" />
    </clipPath>
    <clipPath
       clipPathUnits="userSpaceOnUse"
       id="clipPath56">
      <path
         d="M 0,560 H 960 V 0 H 0 Z"
         transform="translate(-422.95171,-142.00001)"
         id="path56" />
    </clipPath>
    <clipPath
       clipPathUnits="userSpaceOnUse"
       id="clipPath58">
      <path
         d="M 0,560 H 960 V 0 H 0 Z"
         transform="translate(-399.52511,-200.41551)"
         id="path58" />
    </clipPath>
    <clipPath
       clipPathUnits="userSpaceOnUse"
       id="clipPath60">
      <path
         d="M 0,560 H 960 V 0 H 0 Z"
         transform="translate(-382.09621,-213.291)"
         id="path60" />
    </clipPath>
    <clipPath
       clipPathUnits="userSpaceOnUse"
       id="clipPath62">
      <path
         d="M 0,560 H 960 V 0 H 0 Z"
         transform="translate(-399.52511,-187.5321)"
         id="path62" />
    </clipPath>
    <clipPath
       clipPathUnits="userSpaceOnUse"
       id="clipPath64">
      <path
         d="M 0,560 H 960 V 0 H 0 Z"
         transform="translate(-382.09621,-174.65621)"
         id="path64" />
    </clipPath>
    <clipPath
       clipPathUnits="userSpaceOnUse"
       id="clipPath66">
      <path
         d="M 0,560 H 960 V 0 H 0 Z"
         transform="translate(-463.32571,-200.41551)"
         id="path66" />
    </clipPath>
    <clipPath
       clipPathUnits="userSpaceOnUse"
       id="clipPath68">
      <path
         d="M 0,560 H 960 V 0 H 0 Z"
         transform="translate(-453.16211,-219.55371)"
         id="path68" />
    </clipPath>
    <clipPath
       clipPathUnits="userSpaceOnUse"
       id="clipPath70">
      <path
         d="M 0,560 H 960 V 0 H 0 Z"
         transform="translate(-463.32571,-187.5321)"
         id="path70" />
    </clipPath>
    <clipPath
       clipPathUnits="userSpaceOnUse"
       id="clipPath72">
      <path
         d="M 0,560 H 960 V 0 H 0 Z"
         transform="translate(-453.16211,-168.3936)"
         id="path72" />
    </clipPath>
    <clipPath
       clipPathUnits="userSpaceOnUse"
       id="clipPath74">
      <path
         d="M 0,560 H 960 V 0 H 0 Z"
         transform="translate(-421.63381,-193.79171)"
         id="path74" />
    </clipPath>
    <clipPath
       clipPathUnits="userSpaceOnUse"
       id="clipPath76">
      <path
         d="M 0,560 H 960 V 0 H 0 Z"
         transform="translate(-431.42531,-203.08301)"
         id="path76" />
    </clipPath>
  </defs>
  <sodipodi:namedview
     id="namedview1"
     pagecolor="#ffffff"
     bordercolor="#000000"
     borderopacity="0.25"
     inkscape:showpageshadow="2"
     inkscape:pageopacity="0.0"
     inkscape:pagecheckerboard="0"
     inkscape:deskcolor="#d1d1d1">
    <inkscape:page
       x="0"
       y="0"
       inkscape:label="1"
       id="page1"
       width="1280"
       height="746.66669"
       margin="66.666664 294.66666 75.29467 384.66666"
       bleed="0" />
  </sodipodi:namedview>
  <g
     id="layer-MC0"
     inkscape:groupmode="layer"
     inkscape:label="Слой 2">
    <path
       id="path1"
       d="m 0,0 c -8.785,0 -15.932,-7.147 -15.932,-15.933 0,-8.785 7.147,-15.933 15.932,-15.933 8.785,0 15.933,7.148 15.933,15.933 C 15.933,-7.147 8.785,0 0,0 m 0,-48.861 c -18.156,0 -32.927,14.772 -32.927,32.928 0,18.157 14.771,32.928 32.927,32.928 18.156,0 32.929,-14.771 32.929,-32.928 0,-18.156 -14.773,-32.928 -32.929,-32.928"
       style="fill:#000000;fill-opacity:1;fill-rule:nonzero;stroke:none"
       transform="matrix(1.3333333,0,0,-1.3333333,897.60547,97.955067)"
       clip-path="url(#clipPath2)" />
    <path
       id="path3"
       d="M 0,0 -12.895,11.072 36.48,68.572 49.375,57.5 Z"
       style="fill:#000000;fill-opacity:1;fill-rule:nonzero;stroke:none"
       transform="matrix(1.3333333,0,0,-1.3333333,815.6484,232.32027)"
       clip-path="url(#clipPath4)" />
    <path
       id="path5"
       d="m 0,0 -16.387,4.51 13.248,48.138 16.387,-4.51 z"
       style="fill:#000000;fill-opacity:1;fill-rule:nonzero;stroke:none"
       transform="matrix(1.3333333,0,0,-1.3333333,803.81253,285.96293)"
       clip-path="url(#clipPath6)" />
    <path
       id="path7"
       d="m 0,0 -2.216,-249.54 94.736,45.55 c 1.148,0.553 2.407,0.84 3.683,0.84 h 232.864 l 37.136,25.476 v 108.419 l -35.277,25.398 -233.788,-1.668 c -1.264,0.002 -2.565,0.275 -3.729,0.832 z m -1.547,-267.15 h -9.25 c -2.268,0 -4.441,0.906 -6.037,2.516 -1.597,1.611 -2.483,3.792 -2.463,6.059 l 2.417,272.084 c 0.026,2.906 1.534,5.597 4,7.136 2.464,1.538 5.545,1.71 8.168,0.456 l 103.69,-49.613 234.602,1.674 c 1.837,0.008 3.563,-0.548 5.026,-1.601 l 41.062,-29.563 c 2.219,-1.598 3.535,-4.164 3.535,-6.898 v -117.25 c 0,-2.802 -1.381,-5.424 -3.692,-7.009 l -43,-29.5 c -1.415,-0.972 -3.092,-1.491 -4.808,-1.491 H 98.14 L 2.136,-266.311 c -1.149,-0.552 -2.408,-0.839 -3.683,-0.839"
       style="fill:#000000;fill-opacity:1;fill-rule:nonzero;stroke:none"
       transform="matrix(1.3333333,0,0,-1.3333333,410.39653,323.79947)"
       clip-path="url(#clipPath8)" />
    <path
       id="path9"
       d="M 0,0 H 46.133 L 36.23,31 H 9.688 Z m 57.771,-17 h -69.333 c -2.704,0 -5.247,1.286 -6.848,3.465 -1.602,2.179 -2.071,4.99 -1.265,7.57 l 15,48 C -3.565,45.584 -0.279,48 3.438,48 h 39 c 3.699,0 6.972,-2.391 8.097,-5.914 l 15.332,-48 c 0.826,-2.585 0.368,-5.408 -1.232,-7.6 C 63.034,-15.704 60.484,-17 57.771,-17"
       style="fill:#000000;fill-opacity:1;fill-rule:nonzero;stroke:none"
       transform="matrix(1.3333333,0,0,-1.3333333,762.082,360)"
       clip-path="url(#clipPath10)" />
    <path
       id="path11"
       d="m 691,185 h 31 v 18 h -31 z m 39.5,-17 h -48 c -4.694,0 -8.5,3.806 -8.5,8.5 v 35 c 0,4.694 3.806,8.5 8.5,8.5 h 48 c 4.694,0 8.5,-3.806 8.5,-8.5 v -35 c 0,-4.694 -3.806,-8.5 -8.5,-8.5"
       style="fill:#000000;fill-opacity:1;fill-rule:nonzero;stroke:none"
       transform="matrix(1.3333333,0,0,-1.3333333,0,746.66667)"
       clip-path="url(#clipPath12)" />
    <path
       id="path13"
       d="m 0,0 c -20.955,0 -38.002,-17.047 -38.002,-38.002 0,-20.955 17.047,-38.002 38.002,-38.002 20.955,0 38.002,17.047 38.002,38.002 C 38.002,-17.047 20.955,0 0,0 m 0,-93 c -30.326,0 -54.998,24.672 -54.998,54.998 0,30.326 24.672,54.998 54.998,54.998 30.326,0 54.998,-24.672 54.998,-54.998 C 54.998,-68.328 30.326,-93 0,-93"
       style="fill:#000000;fill-opacity:1;fill-rule:nonzero;stroke:none"
       transform="matrix(1.3333333,0,0,-1.3333333,736.45827,437.33067)"
       clip-path="url(#clipPath14)" />
    <path
       id="path15"
       d="m 0,0 c -8.632,0 -15.653,-7.021 -15.653,-15.653 0,-8.632 7.021,-15.654 15.653,-15.654 8.632,0 15.653,7.022 15.653,15.654 C 15.653,-7.021 8.632,0 0,0 m 0,-43 c -15.079,0 -27.347,12.268 -27.347,27.347 0,15.079 12.268,27.346 27.347,27.346 15.079,0 27.347,-12.267 27.347,-27.346 C 27.347,-30.732 15.079,-43 0,-43"
       style="fill:#000000;fill-opacity:1;fill-rule:nonzero;stroke:none"
       transform="matrix(1.3333333,0,0,-1.3333333,735.12493,467.12893)"
       clip-path="url(#clipPath16)" />
    <path
       id="path17"
       d="m 0,0 2.25,22 h 16.5 l 3.5,-22 z"
       style="fill:#000000;fill-opacity:1;fill-rule:nonzero;stroke:none"
       transform="matrix(1.3333333,0,0,-1.3333333,720.33333,420)"
       clip-path="url(#clipPath18)" />
    <path
       id="path19"
       d="M 0,0 H 21.11 L 17.77,21 H 2.147 Z M 22.282,-1 H -1.107 l 2.352,23 h 17.378 z"
       style="fill:#000000;fill-opacity:1;fill-rule:nonzero;stroke:none"
       transform="matrix(1.3333333,0,0,-1.3333333,721.0716,418.66667)"
       clip-path="url(#clipPath20)" />
    <path
       id="path21"
       d="M 0,0 -13.965,17.147 -2.298,28.815 15.733,15.733 Z"
       style="fill:#000000;fill-opacity:1;fill-rule:nonzero;stroke:none"
       transform="matrix(1.3333333,0,0,-1.3333333,675.0488,449.52627)"
       clip-path="url(#clipPath22)" />
    <path
       id="path23"
       d="M 0,0 13.33,-16.368 28.258,-1.44 11.046,11.046 Z M 13.254,-17.858 -1.346,0.068 10.942,12.356 29.793,-1.319 Z"
       style="fill:#000000;fill-opacity:1;fill-rule:nonzero;stroke:none"
       transform="matrix(1.3333333,0,0,-1.3333333,657.32547,426.7084)"
       clip-path="url(#clipPath24)" />
    <path
       id="path25"
       d="M 0,0 13.965,17.147 2.298,28.815 -15.733,15.733 Z"
       style="fill:#000000;fill-opacity:1;fill-rule:nonzero;stroke:none"
       transform="matrix(1.3333333,0,0,-1.3333333,793.40587,449.52627)"
       clip-path="url(#clipPath26)" />
    <path
       id="path27"
       d="M 0,0 14.928,-14.928 28.258,1.44 17.212,12.486 Z M 15.004,-16.418 -1.535,0.121 17.315,13.797 29.604,1.509 Z"
       style="fill:#000000;fill-opacity:1;fill-rule:nonzero;stroke:none"
       transform="matrix(1.3333333,0,0,-1.3333333,773.45187,428.62893)"
       clip-path="url(#clipPath28)" />
    <path
       id="path29"
       d="m 0,0 -13.965,-17.147 11.667,-11.668 18.031,13.082 z"
       style="fill:#000000;fill-opacity:1;fill-rule:nonzero;stroke:none"
       transform="matrix(1.3333333,0,0,-1.3333333,675.0488,527.1068)"
       clip-path="url(#clipPath30)" />
    <path
       id="path31"
       d="M 0,0 11.046,-11.046 28.258,1.44 13.33,16.368 Z M 10.942,-12.356 -1.346,-0.068 13.254,17.858 29.793,1.319 Z"
       style="fill:#000000;fill-opacity:1;fill-rule:nonzero;stroke:none"
       transform="matrix(1.3333333,0,0,-1.3333333,657.32547,549.92453)"
       clip-path="url(#clipPath32)" />
    <path
       id="path33"
       d="M 0,0 13.965,-17.147 2.298,-28.815 -15.733,-15.733 Z"
       style="fill:#000000;fill-opacity:1;fill-rule:nonzero;stroke:none"
       transform="matrix(1.3333333,0,0,-1.3333333,796.07253,528.44013)"
       clip-path="url(#clipPath34)" />
    <path
       id="path35"
       d="M 0,0 17.212,-12.486 28.258,-1.44 14.928,14.928 Z m 17.315,-13.797 -18.85,13.676 16.539,16.539 14.6,-17.927 z"
       style="fill:#000000;fill-opacity:1;fill-rule:nonzero;stroke:none"
       transform="matrix(1.3333333,0,0,-1.3333333,776.11853,549.3372)"
       clip-path="url(#clipPath36)" />
    <path
       id="path37"
       d="m 0,0 2.25,-22 h 16.5 l 3.5,22 z"
       style="fill:#000000;fill-opacity:1;fill-rule:nonzero;stroke:none"
       transform="matrix(1.3333333,0,0,-1.3333333,720.33333,558.66667)"
       clip-path="url(#clipPath38)" />
    <path
       id="path39"
       d="m 0,0 h 15.622 l 3.341,21 H -2.147 Z M 16.476,-1 H -0.902 l -2.353,23 h 23.39 z"
       style="fill:#000000;fill-opacity:1;fill-rule:nonzero;stroke:none"
       transform="matrix(1.3333333,0,0,-1.3333333,723.93493,586.66667)"
       clip-path="url(#clipPath40)" />
    <path
       id="path41"
       d="m 0,0 -22,2.25 v 16.5 l 22,3.5 z"
       style="fill:#000000;fill-opacity:1;fill-rule:nonzero;stroke:#000000;stroke-width:1;stroke-linecap:butt;stroke-linejoin:miter;stroke-miterlimit:10;stroke-dasharray:none;stroke-opacity:1"
       transform="matrix(1.3333333,0,0,-1.3333333,664.66667,502.16667)"
       clip-path="url(#clipPath42)" />
    <path
       id="path43"
       d="m 0,0 22,2.25 v 16.5 l -22,3.5 z"
       style="fill:#000000;fill-opacity:1;fill-rule:nonzero;stroke:none"
       transform="matrix(1.3333333,0,0,-1.3333333,805.33333,502.16667)"
       clip-path="url(#clipPath44)" />
    <path
       id="path45"
       d="m 0,0 v -21.11 l 21,2.147 v 15.622 z m -1,-22.218 v 23.39 l 23,-3.659 v -17.378 z"
       style="fill:#000000;fill-opacity:1;fill-rule:nonzero;stroke:none"
       transform="matrix(1.3333333,0,0,-1.3333333,806.66667,473.2812)"
       clip-path="url(#clipPath46)" />
    <path
       id="path47"
       d="m 0,0 c -10.678,0 -19.366,-8.688 -19.366,-19.365 0,-10.678 8.688,-19.365 19.366,-19.365 10.678,0 19.366,8.687 19.366,19.365 C 19.366,-8.688 10.678,0 0,0 m 0,-53.195 c -18.654,0 -33.831,15.175 -33.831,33.83 0,18.654 15.177,33.83 33.831,33.83 18.654,0 33.831,-15.176 33.831,-33.83 0,-18.655 -15.177,-33.83 -33.831,-33.83"
       style="fill:#000000;fill-opacity:1;fill-rule:nonzero;stroke:none"
       transform="matrix(1.3333333,0,0,-1.3333333,575.59507,462.17973)"
       clip-path="url(#clipPath48)" />
    <path
       id="path49"
       d="m 0,0 2.25,22 h 16.5 l 3.5,-22 z"
       style="fill:#000000;fill-opacity:1;fill-rule:nonzero;stroke:none"
       transform="matrix(1.3333333,0,0,-1.3333333,560.33333,446.66667)"
       clip-path="url(#clipPath50)" />
    <path
       id="path51"
       d="M 0,0 H 21.11 L 17.77,21 H 2.148 Z M 22.282,-1 H -1.107 l 2.352,23 h 17.378 z"
       style="fill:#000000;fill-opacity:1;fill-rule:nonzero;stroke:none"
       transform="matrix(1.3333333,0,0,-1.3333333,561.0716,445.33333)"
       clip-path="url(#clipPath52)" />
    <path
       id="path53"
       d="m 0,0 2.25,-22 h 16.5 l 3.5,22 z"
       style="fill:#000000;fill-opacity:1;fill-rule:nonzero;stroke:none"
       transform="matrix(1.3333333,0,0,-1.3333333,560.33333,529.33333)"
       clip-path="url(#clipPath54)" />
    <path
       id="path55"
       d="m 0,0 h 15.622 l 3.34,21 H -2.148 Z M 16.475,-1 H -0.903 l -2.352,23 h 23.389 z"
       style="fill:#000000;fill-opacity:1;fill-rule:nonzero;stroke:none"
       transform="matrix(1.3333333,0,0,-1.3333333,563.9356,557.33333)"
       clip-path="url(#clipPath56)" />
    <path
       id="path57"
       d="m 0,0 -18.086,12.726 8.073,14.391 20.9,-7.712 z"
       style="fill:#000000;fill-opacity:1;fill-rule:nonzero;stroke:none"
       transform="matrix(1.3333333,0,0,-1.3333333,532.70013,479.446)"
       clip-path="url(#clipPath58)" />
    <path
       id="path59"
       d="M 0,0 17.264,-12.148 27.593,6.263 7.643,13.624 Z M 17.594,-13.604 -1.313,-0.299 7.189,14.858 29.038,6.796 Z"
       style="fill:#000000;fill-opacity:1;fill-rule:nonzero;stroke:none"
       transform="matrix(1.3333333,0,0,-1.3333333,509.4616,462.27867)"
       clip-path="url(#clipPath60)" />
    <path
       id="path61"
       d="m 0,0 -18.086,-12.726 8.073,-14.391 20.9,7.712 z"
       style="fill:#000000;fill-opacity:1;fill-rule:nonzero;stroke:none"
       transform="matrix(1.3333333,0,0,-1.3333333,532.70013,496.62387)"
       clip-path="url(#clipPath62)" />
    <path
       id="path63"
       d="m 0,0 7.643,-13.624 19.95,7.361 -10.329,18.411 z m 7.189,-14.858 -8.502,15.157 18.907,13.305 11.444,-20.4 z"
       style="fill:#000000;fill-opacity:1;fill-rule:nonzero;stroke:none"
       transform="matrix(1.3333333,0,0,-1.3333333,509.4616,513.79173)"
       clip-path="url(#clipPath64)" />
    <path
       id="path65"
       d="m 0,0 18.086,12.726 -8.073,14.391 -20.9,-7.712 z"
       style="fill:#000000;fill-opacity:1;fill-rule:nonzero;stroke:none"
       transform="matrix(1.3333333,0,0,-1.3333333,617.7676,479.446)"
       clip-path="url(#clipPath66)" />
    <path
       id="path67"
       d="M 0,0 10.329,-18.411 27.593,-6.263 19.949,7.361 Z M 9.999,-19.866 -1.445,0.533 20.403,8.596 28.907,-6.562 Z"
       style="fill:#000000;fill-opacity:1;fill-rule:nonzero;stroke:none"
       transform="matrix(1.3333333,0,0,-1.3333333,604.21613,453.9284)"
       clip-path="url(#clipPath68)" />
    <path
       id="path69"
       d="m 0,0 18.086,-12.726 -8.073,-14.391 -20.9,7.712 z"
       style="fill:#000000;fill-opacity:1;fill-rule:nonzero;stroke:none"
       transform="matrix(1.3333333,0,0,-1.3333333,617.7676,496.62387)"
       clip-path="url(#clipPath70)" />
    <path
       id="path71"
       d="M 0,0 19.949,-7.361 27.593,6.263 10.329,18.411 Z M 20.403,-8.596 -1.445,-0.533 9.999,19.866 28.907,6.562 Z"
       style="fill:#000000;fill-opacity:1;fill-rule:nonzero;stroke:none"
       transform="matrix(1.3333333,0,0,-1.3333333,604.21613,522.14187)"
       clip-path="url(#clipPath72)" />
    <path
       id="path73"
       d="m 0,0 c 0,5.408 4.384,9.792 9.792,9.792 5.407,0 9.791,-4.384 9.791,-9.792 0,-5.408 -4.384,-9.792 -9.791,-9.792 C 4.384,-9.792 0,-5.408 0,0"
       style="fill:#000000;fill-opacity:1;fill-rule:nonzero;stroke:none"
       transform="matrix(1.3333333,0,0,-1.3333333,562.1784,488.27773)"
       clip-path="url(#clipPath74)" />
    <path
       id="path75"
       d="m 0,0 c -5.124,0 -9.292,-4.168 -9.292,-9.291 0,-5.124 4.168,-9.292 9.292,-9.292 5.124,0 9.292,4.168 9.292,9.292 C 9.292,-4.168 5.124,0 0,0 m 0,-19.583 c -5.675,0 -10.292,4.617 -10.292,10.292 C -10.292,-3.616 -5.675,1 0,1 5.675,1 10.292,-3.616 10.292,-9.291 10.292,-14.966 5.675,-19.583 0,-19.583"
       style="fill:#000000;fill-opacity:1;fill-rule:nonzero;stroke:none"
       transform="matrix(1.3333333,0,0,-1.3333333,575.23373,475.88933)"
       clip-path="url(#clipPath76)" />
  </g>
</svg>
