<?xml version="1.0" encoding="UTF-8" standalone="no"?>
<!-- Created with Inkscape (http://www.inkscape.org/) -->

<svg
   version="1.1"
   id="svg1"
   width="1280"
   height="746.66669"
   viewBox="0 0 1280 746.66669"
   sodipodi:docname="xbqry-63sxj.ai"
   xmlns:inkscape="http://www.inkscape.org/namespaces/inkscape"
   xmlns:sodipodi="http://sodipodi.sourceforge.net/DTD/sodipodi-0.dtd"
   xmlns="http://www.w3.org/2000/svg"
   xmlns:svg="http://www.w3.org/2000/svg">
  <defs
     id="defs1">
    <clipPath
       clipPathUnits="userSpaceOnUse"
       id="clipPath2">
      <path
         d="M 0,560 H 960 V 0 H 0 Z"
         transform="translate(-439.00001,-412.41801)"
         id="path2" />
    </clipPath>
    <clipPath
       clipPathUnits="userSpaceOnUse"
       id="clipPath4">
      <path
         d="M 0,560 H 960 V 0 H 0 Z"
         transform="translate(-481.82031,-409.36771)"
         id="path4" />
    </clipPath>
    <clipPath
       clipPathUnits="userSpaceOnUse"
       id="clipPath6">
      <path
         d="M 0,560 H 960 V 0 H 0 Z"
         transform="translate(-281.23681,-205.78421)"
         id="path6" />
    </clipPath>
    <clipPath
       clipPathUnits="userSpaceOnUse"
       id="clipPath8">
      <path
         d="M 0,560 H 960 V 0 H 0 Z"
         transform="translate(-249.3799,-143.1143)"
         id="path8" />
    </clipPath>
    <clipPath
       clipPathUnits="userSpaceOnUse"
       id="clipPath10">
      <path
         d="M 0,560 H 960 V 0 H 0 Z"
         transform="translate(-373.66701,-298.8315)"
         id="path10" />
    </clipPath>
    <clipPath
       clipPathUnits="userSpaceOnUse"
       id="clipPath12">
      <path
         d="M 0,560 H 960 V 0 H 0 Z"
         transform="translate(-591.02152,-387.91701)"
         id="path12" />
    </clipPath>
  </defs>
  <sodipodi:namedview
     id="namedview1"
     pagecolor="#ffffff"
     bordercolor="#000000"
     borderopacity="0.25"
     inkscape:showpageshadow="2"
     inkscape:pageopacity="0.0"
     inkscape:pagecheckerboard="0"
     inkscape:deskcolor="#d1d1d1">
    <inkscape:page
       x="0"
       y="0"
       inkscape:label="1"
       id="page1"
       width="1280"
       height="746.66669"
       margin="144.01733 292.444 93.333336 306.93866"
       bleed="0" />
  </sodipodi:namedview>
  <g
     id="layer-MC0"
     inkscape:groupmode="layer"
     inkscape:label="Слой 2">
    <path
       id="path1"
       d="m 0,0 c -7.962,0 -15.925,-3.031 -21.987,-9.092 l -123.672,-123.672 c -12.123,-12.124 -12.123,-31.85 0,-43.975 l 64.535,-64.534 c 12.125,-12.126 31.852,-12.125 43.975,0 l 123.671,123.671 c 12.124,12.124 12.124,31.851 0,43.975 L 21.987,-9.092 C 15.925,-3.031 7.962,0 0,0 m -59.136,-267.333 c -12.878,0 -24.955,4.985 -34.008,14.038 l -64.536,64.535 c -18.752,18.753 -18.751,49.265 0,68.016 L -34.007,2.928 c 9.052,9.053 21.13,14.039 34.007,14.039 12.877,0 24.955,-4.986 34.007,-14.039 l 64.537,-64.535 c 18.751,-18.752 18.751,-49.264 0,-68.015 L -25.129,-253.295 c -9.053,-9.053 -21.13,-14.038 -34.007,-14.038"
       style="fill:#000000;fill-opacity:1;fill-rule:nonzero;stroke:none"
       transform="matrix(1.3333333,0,0,-1.3333333,585.33333,196.776)"
       clip-path="url(#clipPath2)" />
    <path
       id="path3"
       d="m 0,0 49.744,-49.744 8.063,8.062 L 8.063,8.062 Z m 49.744,-68.267 c -3.559,0 -6.905,1.386 -9.421,3.903 L -14.621,-9.42 c -2.516,2.516 -3.902,5.861 -3.902,9.42 0,3.559 1.386,6.904 3.902,9.42 l 13.263,13.263 c 2.515,2.516 5.861,3.902 9.421,3.902 3.557,0 6.903,-1.385 9.419,-3.901 l 54.946,-54.945 c 5.193,-5.195 5.193,-13.646 0,-18.841 L 59.165,-64.365 c -2.518,-2.516 -5.863,-3.902 -9.421,-3.902"
       style="fill:#000000;fill-opacity:1;fill-rule:nonzero;stroke:none"
       transform="matrix(1.3333333,0,0,-1.3333333,642.42707,200.84307)"
       clip-path="url(#clipPath4)" />
    <path
       id="path5"
       d="m 0,0 49.744,-49.744 8.062,8.062 L 8.063,8.063 Z m 49.744,-68.268 c -3.559,0 -6.905,1.387 -9.422,3.904 l -54.943,54.943 c -2.516,2.515 -3.902,5.861 -3.902,9.421 0,3.559 1.386,6.904 3.902,9.421 l 13.262,13.263 c 5.195,5.19 13.646,5.193 18.84,10e-4 l 54.946,-54.946 c 2.516,-2.517 3.902,-5.863 3.902,-9.421 0,-3.559 -1.386,-6.905 -3.903,-9.421 L 59.165,-64.365 c -2.517,-2.517 -5.863,-3.903 -9.421,-3.903"
       style="fill:#000000;fill-opacity:1;fill-rule:nonzero;stroke:none"
       transform="matrix(1.3333333,0,0,-1.3333333,374.9824,472.28773)"
       clip-path="url(#clipPath6)" />
    <path
       id="path7"
       d="m 0,0 15.931,-15.932 34.65,34.651 -15.931,15.93 z m 15.931,-35.102 c -3.593,0 -7.186,1.369 -9.922,4.104 l -21.075,21.076 c -2.651,2.65 -4.11,6.173 -4.11,9.922 0,3.749 1.459,7.272 4.11,9.923 l 39.794,39.793 c 5.471,5.472 14.373,5.47 19.843,0 L 65.647,28.641 c 5.471,-5.473 5.47,-14.374 0,-19.844 L 25.853,-30.998 c -2.736,-2.735 -6.329,-4.104 -9.922,-4.104"
       style="fill:#000000;fill-opacity:1;fill-rule:nonzero;stroke:none"
       transform="matrix(1.3333333,0,0,-1.3333333,332.50653,555.8476)"
       clip-path="url(#clipPath8)" />
    <path
       id="path9"
       d="m 0,0 c -2.277,0 -4.552,0.875 -6.28,2.62 -3.432,3.468 -3.403,9.062 0.065,12.494 l 64.667,64 c 3.467,3.433 9.062,3.403 12.494,-0.064 3.432,-3.468 3.403,-9.062 -0.065,-12.494 L 6.214,2.556 C 4.492,0.851 2.246,0 0,0"
       style="fill:#000000;fill-opacity:1;fill-rule:nonzero;stroke:none"
       transform="matrix(1.3333333,0,0,-1.3333333,498.22267,348.22467)"
       clip-path="url(#clipPath10)" />
  </g>
  <g
     id="layer-MC1"
     inkscape:groupmode="layer"
     inkscape:label="Слой 3">
    <path
       id="path11"
       d="M 0,0 C 16.946,-11.065 35.163,-12.953 54.147,-5.607 67.58,-0.41 76.871,7.825 78.216,9.058 L 128.3,64.509 112.575,80.608 65.16,33.121 C 54.438,21.382 42.899,15.521 30.823,15.665 15.622,15.86 5.514,25.608 3.004,28.307 -11.917,41.149 -29.979,44.2 -50.684,37.375 -59.193,34.569 -66.536,30.589 -71.694,27.357 l 17.873,-19.013 0.768,0.769 c 0.685,0.684 1.475,1.254 2.339,1.686 C -28.444,21.931 -3.861,3.139 0,0 m 31.876,-27.981 c -14.647,-10e-4 -28.909,4.429 -42.198,13.226 -0.304,0.201 -0.596,0.421 -0.873,0.657 -0.159,0.135 -17.524,14.326 -30.292,9.321 l -6.17,-6.17 c -1.722,-1.722 -4.071,-2.667 -6.503,-2.636 -2.436,0.038 -4.751,1.061 -6.419,2.835 l -31.333,33.333 c -1.699,1.808 -2.576,4.236 -2.426,6.711 0.15,2.476 1.317,4.78 3.222,6.368 0.584,0.486 14.521,11.988 34.225,18.616 27.197,9.15 52.137,4.736 72.129,-12.758 0.317,-0.276 0.614,-0.364 0.888,-0.683 0.011,-0.011 6.308,-6.756 15.084,-6.756 h 0.063 c 6.675,0 13.642,3.733 20.711,11.514 0.095,0.104 0.193,0.101 0.292,0.201 l 54,53.863 c 1.689,1.692 3.981,2.422 6.37,2.422 h 0.049 c 2.407,0 4.707,-0.823 6.389,-2.545 l 28,-28.583 c 3.32,-3.4 3.426,-8.753 0.24,-12.28 l -56,-61.979 C 91.19,-3.452 91.052,-3.586 90.907,-3.725 90.419,-4.199 78.722,-15.404 60.644,-22.399 51.002,-26.13 41.357,-27.981 31.876,-27.981"
       style="fill:#000000;fill-opacity:1;fill-rule:nonzero;stroke:none"
       transform="matrix(1.3333333,0,0,-1.3333333,788.02867,229.444)"
       clip-path="url(#clipPath12)" />
  </g>
</svg>
