<?xml version="1.0" encoding="UTF-8" standalone="no"?>
<!-- Created with Inkscape (http://www.inkscape.org/) -->

<svg
   version="1.1"
   id="svg1"
   width="1280"
   height="746.66669"
   viewBox="0 0 1280 746.66669"
   sodipodi:docname="vb3bs-ocb46.ai"
   xmlns:inkscape="http://www.inkscape.org/namespaces/inkscape"
   xmlns:sodipodi="http://sodipodi.sourceforge.net/DTD/sodipodi-0.dtd"
   xmlns="http://www.w3.org/2000/svg"
   xmlns:svg="http://www.w3.org/2000/svg">
  <defs
     id="defs1">
    <clipPath
       clipPathUnits="userSpaceOnUse"
       id="clipPath2">
      <path
         d="M 0,560 H 960 V 0 H 0 Z"
         transform="translate(-484.97951,-62.112299)"
         id="path2" />
    </clipPath>
    <clipPath
       clipPathUnits="userSpaceOnUse"
       id="clipPath4">
      <path
         d="M 0,560 H 960 V 0 H 0 Z"
         transform="translate(-483.97951,-381.97511)"
         id="path4" />
    </clipPath>
    <clipPath
       clipPathUnits="userSpaceOnUse"
       id="clipPath6">
      <path
         d="M 0,560 H 960 V 0 H 0 Z"
         transform="translate(-484.06251,-316.53271)"
         id="path6" />
    </clipPath>
    <clipPath
       clipPathUnits="userSpaceOnUse"
       id="clipPath8">
      <path
         d="M 0,560 H 960 V 0 H 0 Z"
         transform="translate(-492.00001,-354.50001)"
         id="path8" />
    </clipPath>
    <clipPath
       clipPathUnits="userSpaceOnUse"
       id="clipPath10">
      <path
         d="M 0,560 H 960 V 0 H 0 Z"
         transform="translate(-557.75002,-305.50001)"
         id="path10" />
    </clipPath>
    <clipPath
       clipPathUnits="userSpaceOnUse"
       id="clipPath12">
      <path
         d="M 0,560 H 960 V 0 H 0 Z"
         transform="translate(-533.00002,-232.25001)"
         id="path12" />
    </clipPath>
    <clipPath
       clipPathUnits="userSpaceOnUse"
       id="clipPath14">
      <path
         d="M 0,560 H 960 V 0 H 0 Z"
         transform="translate(-451.75001,-232.25001)"
         id="path14" />
    </clipPath>
    <clipPath
       clipPathUnits="userSpaceOnUse"
       id="clipPath16">
      <path
         d="M 0,560 H 960 V 0 H 0 Z"
         transform="translate(-427.25001,-305.50001)"
         id="path16" />
    </clipPath>
    <clipPath
       clipPathUnits="userSpaceOnUse"
       id="clipPath18">
      <path
         d="M 0,560 H 960 V 0 H 0 Z"
         transform="translate(-607.68461,-237.27441)"
         id="path18" />
    </clipPath>
    <clipPath
       clipPathUnits="userSpaceOnUse"
       id="clipPath20">
      <path
         d="M 0,560 H 960 V 0 H 0 Z"
         transform="translate(-550.73141,-419.25931)"
         id="path20" />
    </clipPath>
    <clipPath
       clipPathUnits="userSpaceOnUse"
       id="clipPath22">
      <path
         d="M 0,560 H 960 V 0 H 0 Z"
         transform="translate(-622.10842,-164.59181)"
         id="path22" />
    </clipPath>
    <clipPath
       clipPathUnits="userSpaceOnUse"
       id="clipPath24">
      <path
         d="M 0,560 H 960 V 0 H 0 Z"
         transform="translate(-642.40042,-258.19341)"
         id="path24" />
    </clipPath>
    <clipPath
       clipPathUnits="userSpaceOnUse"
       id="clipPath26">
      <path
         d="M 0,560 H 960 V 0 H 0 Z"
         transform="translate(-626.83691,-405.49611)"
         id="path26" />
    </clipPath>
    <clipPath
       clipPathUnits="userSpaceOnUse"
       id="clipPath28">
      <path
         d="M 0,560 H 960 V 0 H 0 Z"
         transform="translate(-715.43462,-266.97561)"
         id="path28" />
    </clipPath>
    <clipPath
       clipPathUnits="userSpaceOnUse"
       id="clipPath30">
      <path
         d="M 0,560 H 960 V 0 H 0 Z"
         transform="translate(-548.75591,-169.9736)"
         id="path30" />
    </clipPath>
    <clipPath
       clipPathUnits="userSpaceOnUse"
       id="clipPath32">
      <path
         d="M 0,560 H 960 V 0 H 0 Z"
         transform="translate(-483.14941,-153.1016)"
         id="path32" />
    </clipPath>
  </defs>
  <sodipodi:namedview
     id="namedview1"
     pagecolor="#ffffff"
     bordercolor="#000000"
     borderopacity="0.25"
     inkscape:showpageshadow="2"
     inkscape:pageopacity="0.0"
     inkscape:pagecheckerboard="0"
     inkscape:deskcolor="#d1d1d1">
    <inkscape:page
       x="0"
       y="0"
       inkscape:label="1"
       id="page1"
       width="1280"
       height="746.66669"
       margin="82.816399 311.10266 55.213333 342.32132"
       bleed="0" />
  </sodipodi:namedview>
  <g
     id="layer-MC0"
     inkscape:groupmode="layer"
     inkscape:label="Слой 9">
    <path
       id="path1"
       d="m 0,0 c -60.965,0 -118.281,23.741 -161.389,66.85 -43.109,43.108 -66.85,100.424 -66.85,161.389 0,60.965 23.741,118.281 66.85,161.389 43.109,43.109 100.424,66.85 161.389,66.85 36.855,0 80.835,-11.312 114.776,-29.522 l -6.511,-12.137 C 76.205,432.02 34.721,442.705 0,442.705 c -118.257,0 -214.465,-96.209 -214.465,-214.466 0,-118.257 96.208,-214.466 214.465,-214.466 76.87,0 151.598,45.054 190.377,114.78 l 12.037,-6.696 C 161.242,47.832 81.79,0 0,0"
       style="fill:#000000;fill-opacity:1;fill-rule:nonzero;stroke:none"
       transform="matrix(1.3333333,0,0,-1.3333333,646.63933,663.85027)"
       clip-path="url(#clipPath2)" />
    <path
       id="path3"
       d="m 0,0 c -50.715,0 -91.975,-41.26 -91.975,-91.975 0,-50.715 41.26,-91.975 91.975,-91.975 50.715,0 91.975,41.26 91.975,91.975 C 91.975,-41.26 50.715,0 0,0 m 0,-198 c -58.462,0 -106.025,47.563 -106.025,106.025 0,58.462 47.563,106.025 106.025,106.025 58.462,0 106.025,-47.563 106.025,-106.025 C 106.025,-150.437 58.462,-198 0,-198"
       style="fill:#000000;fill-opacity:1;fill-rule:nonzero;stroke:none"
       transform="matrix(1.3333333,0,0,-1.3333333,645.306,237.36653)"
       clip-path="url(#clipPath4)" />
    <path
       id="path5"
       d="m 0,0 c -14.734,0 -26.72,-11.986 -26.72,-26.72 0,-14.734 11.986,-26.721 26.72,-26.721 14.733,0 26.721,11.987 26.721,26.721 C 26.721,-11.986 14.733,0 0,0 m 0,-66.625 c -22.003,0 -39.905,17.901 -39.905,39.905 0,22.003 17.902,39.905 39.905,39.905 22.004,0 39.904,-17.902 39.904,-39.905 0,-22.004 -17.9,-39.905 -39.904,-39.905"
       style="fill:#000000;fill-opacity:1;fill-rule:nonzero;stroke:none"
       transform="matrix(1.3333333,0,0,-1.3333333,645.41667,324.62307)"
       clip-path="url(#clipPath6)" />
    <path
       id="path7"
       d="m 0,0 c 0,-4.971 -4.029,-9 -9,-9 -4.971,0 -9,4.029 -9,9 0,4.971 4.029,9 9,9 4.971,0 9,-4.029 9,-9"
       style="fill:#000000;fill-opacity:1;fill-rule:nonzero;stroke:none"
       transform="matrix(1.3333333,0,0,-1.3333333,656,274)"
       clip-path="url(#clipPath8)" />
    <path
       id="path9"
       d="m 0,0 c 0,-4.971 -4.029,-9 -9,-9 -4.971,0 -9,4.029 -9,9 0,4.971 4.029,9 9,9 4.971,0 9,-4.029 9,-9"
       style="fill:#000000;fill-opacity:1;fill-rule:nonzero;stroke:none"
       transform="matrix(1.3333333,0,0,-1.3333333,743.66667,339.33333)"
       clip-path="url(#clipPath10)" />
    <path
       id="path11"
       d="m 0,0 c 0,-4.971 -4.029,-9 -9,-9 -4.971,0 -9,4.029 -9,9 0,4.971 4.029,9 9,9 4.971,0 9,-4.029 9,-9"
       style="fill:#000000;fill-opacity:1;fill-rule:nonzero;stroke:none"
       transform="matrix(1.3333333,0,0,-1.3333333,710.66667,437)"
       clip-path="url(#clipPath12)" />
    <path
       id="path13"
       d="m 0,0 c 0,-4.971 -4.029,-9 -9,-9 -4.971,0 -9,4.029 -9,9 0,4.971 4.029,9 9,9 4.971,0 9,-4.029 9,-9"
       style="fill:#000000;fill-opacity:1;fill-rule:nonzero;stroke:none"
       transform="matrix(1.3333333,0,0,-1.3333333,602.33333,437)"
       clip-path="url(#clipPath14)" />
    <path
       id="path15"
       d="m 0,0 c 0,-4.971 -4.029,-9 -9,-9 -4.971,0 -9,4.029 -9,9 0,4.971 4.029,9 9,9 4.971,0 9,-4.029 9,-9"
       style="fill:#000000;fill-opacity:1;fill-rule:nonzero;stroke:none"
       transform="matrix(1.3333333,0,0,-1.3333333,569.66667,339.33333)"
       clip-path="url(#clipPath16)" />
    <path
       id="path17"
       d="m 0,0 84.979,-40.57 c 13.248,29.393 19.959,60.779 19.959,93.397 0,77.497 -38.38,148.297 -103.001,190.638 l -56.527,-71.559 42.478,-49.594 c 4.032,2.136 8.541,3.272 13.177,3.272 15.591,0 28.276,-12.684 28.276,-28.275 0,-14.256 -10.607,-26.081 -24.342,-28.002 z m 88.33,-56.983 c -1.015,0 -2.045,0.22 -3.021,0.686 l -95.687,45.683 c -2.609,1.246 -4.188,3.962 -3.98,6.845 l 5.807,80.51 c 0.139,1.919 1.058,3.697 2.544,4.919 1.486,1.222 3.409,1.783 5.317,1.548 0.692,-0.084 1.25,-0.124 1.755,-0.124 7.844,0 14.226,6.381 14.226,14.225 0,7.844 -6.382,14.225 -14.226,14.225 -3.56,0 -6.977,-1.342 -9.622,-3.78 -1.402,-1.292 -3.263,-1.957 -5.174,-1.847 -1.905,0.113 -3.681,0.994 -4.921,2.443 l -50.368,58.806 c -2.184,2.55 -2.258,6.289 -0.177,8.924 l 64.041,81.072 c 2.212,2.8 6.171,3.496 9.205,1.621 34.464,-21.295 63.278,-51.14 83.329,-86.309 20.68,-36.272 31.61,-77.642 31.61,-119.637 0,-37.115 -8.189,-72.732 -24.339,-105.862 -1.215,-2.495 -3.715,-3.948 -6.319,-3.948"
       style="fill:#000000;fill-opacity:1;fill-rule:nonzero;stroke:none"
       transform="matrix(1.3333333,0,0,-1.3333333,810.24613,430.3008)"
       clip-path="url(#clipPath18)" />
    <path
       id="path19"
       d="m 0,0 -24.886,26.838 c -3.404,3.688 -4.967,8.641 -4.298,13.599 0.669,4.958 3.49,9.319 7.737,11.964 l 42.712,26.6 7.4,-11.884 -42.712,-26.6 c -0.949,-0.591 -1.198,-1.477 -1.263,-1.953 -0.064,-0.476 -0.058,-1.397 0.701,-2.218 L 10.266,9.52 Z"
       style="fill:#000000;fill-opacity:1;fill-rule:nonzero;stroke:none"
       transform="matrix(1.3333333,0,0,-1.3333333,734.30853,187.65427)"
       clip-path="url(#clipPath20)" />
    <path
       id="path21"
       d="m 0,0 c -4.879,0 -9.481,2.107 -12.674,5.814 -3.264,3.791 -4.655,8.795 -3.814,13.728 L -10.256,55.624 3.539,53.241 -2.69,17.175 C -2.875,16.088 -2.378,15.313 -2.064,14.949 -1.757,14.592 -1.084,14 0,14 c 0.02,0 0.039,0 0.059,10e-4 L 50.366,14.988 50.642,0.99 0.334,0.003 C 0.223,0.001 0.11,0 0,0"
       style="fill:#000000;fill-opacity:1;fill-rule:nonzero;stroke:none"
       transform="matrix(1.3333333,0,0,-1.3333333,829.47787,527.21093)"
       clip-path="url(#clipPath22)" />
    <path
       id="path23"
       d="m 0,0 62.159,-25.109 c 3.37,12.771 9.415,41.588 6.923,76.798 -4.318,61.017 -30.964,112.497 -79.228,153.128 l -40.286,-57.918 18.231,-19.983 c 4.581,2.444 11.675,5.166 20.551,5.166 16.608,0 31.887,-6.399 41.922,-17.557 8.7,-9.673 12.715,-22.295 11.307,-35.541 C 38.339,48.494 18.64,38.845 -6.43,27.029 -5.315,21.25 -2.655,10.212 0,0 m 66.717,-41.552 c -0.893,0 -1.786,0.171 -2.631,0.512 l -72.617,29.333 c -2.053,0.829 -3.594,2.576 -4.16,4.716 -0.024,0.09 -2.413,9.123 -4.581,18.13 -1.287,5.345 -2.25,9.659 -2.864,12.818 -1.01,5.21 -2.156,11.116 3.306,13.7 l 3.444,1.625 c 24.856,11.711 38.547,18.162 40.994,41.187 0.996,9.365 -1.696,17.893 -7.782,24.661 -7.375,8.199 -18.847,12.902 -31.476,12.902 -10.438,0 -17.1,-5.491 -17.163,-5.547 -2.88,-2.482 -7.213,-2.224 -9.777,0.587 l -26,28.5 c -2.211,2.423 -2.45,6.053 -0.577,8.746 l 47.823,68.758 c 1.11,1.594 2.828,2.658 4.75,2.939 1.924,0.283 3.874,-0.245 5.393,-1.454 30.381,-24.184 53.539,-52.77 68.832,-84.966 12.244,-25.776 19.479,-53.869 21.507,-83.5 3.445,-50.371 -9.247,-87.388 -9.789,-88.939 -0.634,-1.813 -1.983,-3.289 -3.734,-4.082 -0.92,-0.416 -1.909,-0.625 -2.898,-0.626"
       style="fill:#000000;fill-opacity:1;fill-rule:nonzero;stroke:none"
       transform="matrix(1.3333333,0,0,-1.3333333,856.53387,402.4088)"
       clip-path="url(#clipPath24)" />
    <path
       id="path25"
       d="M 0,0 -9.201,10.617 28.546,43.332 37.747,32.714 Z"
       style="fill:#000000;fill-opacity:1;fill-rule:nonzero;stroke:none"
       transform="matrix(1.3333333,0,0,-1.3333333,835.78253,206.0052)"
       clip-path="url(#clipPath26)" />
    <path
       id="path27"
       d="m 0,0 -46.505,0.431 0.131,14.048 46.505,-0.43 z"
       style="fill:#000000;fill-opacity:1;fill-rule:nonzero;stroke:none"
       transform="matrix(1.3333333,0,0,-1.3333333,953.9128,390.6992)"
       clip-path="url(#clipPath28)" />
    <path
       id="path29"
       d="m 0,0 c -2.497,0 -4.914,1.334 -6.186,3.686 -1.843,3.409 -0.576,7.667 2.83,9.514 0.144,0.079 14.616,8.055 30.668,24.702 2.691,2.792 7.139,2.874 9.933,0.181 2.793,-2.692 2.874,-7.14 0.181,-9.933 C 19.757,9.826 3.997,1.205 3.335,0.847 2.273,0.272 1.128,0 0,0"
       style="fill:#000000;fill-opacity:1;fill-rule:nonzero;stroke:none"
       transform="matrix(1.3333333,0,0,-1.3333333,731.67453,520.0352)"
       clip-path="url(#clipPath30)" />
    <path
       id="path31"
       d="m 0,0 c -75.459,0 -136.849,61.391 -136.849,136.849 0,75.459 61.39,136.85 136.849,136.85 3.866,0 7,-3.134 7,-7 0,-3.866 -3.134,-7 -7,-7 -67.739,0 -122.849,-55.111 -122.849,-122.85 C -122.849,69.11 -67.739,14 0,14 3.866,14 7,10.866 7,7 7,3.134 3.866,0 0,0"
       style="fill:#000000;fill-opacity:1;fill-rule:nonzero;stroke:none"
       transform="matrix(1.3333333,0,0,-1.3333333,644.1992,542.5312)"
       clip-path="url(#clipPath32)" />
  </g>
</svg>
