<?xml version="1.0" encoding="UTF-8"?>
<svg xmlns="http://www.w3.org/2000/svg" xmlns:xlink="http://www.w3.org/1999/xlink" width="312.77pt" height="374pt" viewBox="0 0 312.77 374" version="1.1">
<g id="surface1">
<path style="fill:none;stroke-width:0.035;stroke-linecap:round;stroke-linejoin:round;stroke:rgb(0%,0%,0%);stroke-opacity:1;stroke-miterlimit:10;" d="M 104.628906 372.851563 L 74.871094 372.828125 L 49.550781 372.78125 L 27 372.710938 L 25.660156 372.628906 L 24.898438 372.519531 L 23.960938 372.351563 L 23.011719 372.160156 L 22.210938 371.96875 L 21.378906 371.738281 L 20.371094 371.421875 L 19.351563 371.078125 L 18.480469 370.761719 L 17.609375 370.390625 L 16.550781 369.890625 L 15.488281 369.351563 L 14.609375 368.851563 L 13.738281 368.300781 L 12.738281 367.621094 L 11.769531 366.910156 L 10.980469 366.300781 L 10.238281 365.671875 L 9.410156 364.890625 L 8.601563 364.101563 L 7.96875 363.421875 L 7.378906 362.730469 L 6.71875 361.921875 L 6.101563 361.109375 L 5.609375 360.441406 L 5.140625 359.730469 L 4.570313 358.789063 L 4.011719 357.78125 L 3.53125 356.871094 L 3.078125 355.921875 L 2.609375 354.808594 L 2.179688 353.71875 L 1.878906 352.820313 L 1.628906 351.929688 L 1.359375 350.828125 L 1.109375 349.71875 L 0.929688 348.769531 L 0.761719 347.460938 L 0.699219 346.148438 L 0.628906 327.480469 L 0.578125 297.558594 L 0.570313 229.371094 L 0.589844 178.230469 L 0.640625 141.601563 L 0.699219 112 L 0.808594 110.410156 L 0.941406 109.640625 L 1.121094 108.710938 L 1.320313 107.761719 L 1.511719 106.960938 L 1.738281 106.148438 L 2.050781 105.171875 L 2.390625 104.199219 L 2.710938 103.390625 L 3.058594 102.589844 L 3.511719 101.640625 L 3.988281 100.710938 L 4.421875 99.941406 L 4.871094 99.210938 L 5.410156 98.378906 L 5.949219 97.589844 L 6.410156 96.96875 L 6.898438 96.359375 L 7.558594 95.601563 L 8.269531 94.808594 L 8.921875 94.128906 L 9.628906 93.449219 L 10.519531 92.660156 L 11.441406 91.890625 L 12.238281 91.261719 L 13.089844 90.671875 L 14.140625 90 L 15.21875 89.351563 L 16.171875 88.839844 L 17.121094 88.371094 L 18.238281 87.878906 L 19.351563 87.429688 L 20.25 87.109375 L 21.140625 86.828125 L 22.179688 86.539063 L 23.210938 86.269531 L 24.058594 86.078125 L 25.109375 85.910156 L 26.160156 85.851563 L 33.679688 85.75 L 46.300781 85.679688 L 75.039063 85.621094 L 124.179688 85.539063 L 124.339844 82.511719 L 124.421875 81.160156 L 124.550781 79.578125 L 124.699219 78.03125 L 124.851563 76.78125 L 125.011719 75.589844 L 125.210938 74.261719 L 125.410156 73 L 125.578125 72.019531 L 125.761719 71.101563 L 125.980469 70.011719 L 126.210938 68.949219 L 126.410156 68.070313 L 126.640625 67.171875 L 126.929688 66.03125 L 127.25 64.839844 L 127.550781 63.789063 L 127.871094 62.699219 L 128.289063 61.371094 L 128.738281 60.039063 L 129.128906 58.910156 L 129.550781 57.78125 L 130.070313 56.421875 L 130.609375 55.070313 L 131.078125 53.941406 L 131.578125 52.800781 L 132.210938 51.429688 L 132.859375 50.050781 L 133.429688 48.890625 L 134.039063 47.699219 L 134.828125 46.25 L 135.660156 44.78125 L 136.398438 43.519531 L 137.160156 42.300781 L 138.039063 40.921875 L 138.898438 39.601563 L 139.589844 38.570313 L 140.28125 37.609375 L 141.109375 36.46875 L 141.941406 35.359375 L 142.640625 34.460938 L 143.421875 33.5 L 144.511719 32.199219 L 145.710938 30.820313 L 146.839844 29.539063 L 148.078125 28.21875 L 149.589844 26.679688 L 151.140625 25.160156 L 152.460938 23.929688 L 153.78125 22.761719 L 155.269531 21.480469 L 156.71875 20.28125 L 157.859375 19.359375 L 159 18.488281 L 160.449219 17.449219 L 161.949219 16.398438 L 163.261719 15.519531 L 164.558594 14.679688 L 166.011719 13.769531 L 167.378906 12.929688 L 168.429688 12.320313 L 169.5 11.730469 L 170.921875 10.988281 L 172.441406 10.21875 L 173.820313 9.550781 L 175.300781 8.871094 L 177.101563 8.078125 L 178.929688 7.320313 L 180.488281 6.699219 L 182.050781 6.128906 L 183.910156 5.5 L 185.75 4.910156 L 187.269531 4.460938 L 188.75 4.050781 L 190.46875 3.621094 L 192.148438 3.21875 L 193.511719 2.929688 L 194.828125 2.671875 L 196.351563 2.398438 L 197.851563 2.148438 L 199.058594 1.96875 L 200.320313 1.820313 L 201.960938 1.640625 L 203.691406 1.460938 L 205.25 1.328125 L 207.019531 1.21875 L 209.109375 1.160156 L 211.308594 1.148438 L 213.449219 1.179688 L 215.449219 1.269531 L 217.640625 1.390625 L 219.671875 1.539063 L 221.179688 1.699219 L 222.519531 1.871094 L 224 2.070313 L 225.378906 2.28125 L 226.421875 2.449219 L 227.410156 2.640625 L 228.660156 2.890625 L 229.941406 3.160156 L 231.050781 3.410156 L 232.191406 3.679688 L 233.550781 4.03125 L 234.910156 4.390625 L 236.050781 4.710938 L 237.230469 5.070313 L 238.761719 5.570313 L 240.351563 6.121094 L 241.761719 6.628906 L 243.25 7.210938 L 245.089844 7.988281 L 246.980469 8.820313 L 248.609375 9.570313 L 250.160156 10.328125 L 251.820313 11.171875 L 253.339844 11.960938 L 254.429688 12.558594 L 255.421875 13.140625 L 256.570313 13.828125 L 257.710938 14.519531 L 258.648438 15.109375 L 259.578125 15.730469 L 260.738281 16.511719 L 261.910156 17.339844 L 262.929688 18.070313 L 263.941406 18.828125 L 265.121094 19.738281 L 266.269531 20.648438 L 267.210938 21.421875 L 268.121094 22.191406 L 269.191406 23.128906 L 270.25 24.078125 L 271.121094 24.890625 L 272.011719 25.75 L 273.121094 26.851563 L 274.269531 28.019531 L 275.269531 29.058594 L 276.300781 30.179688 L 277.53125 31.578125 L 278.761719 33.03125 L 279.800781 34.289063 L 280.789063 35.570313 L 281.898438 37.039063 L 282.949219 38.480469 L 283.761719 39.640625 L 284.511719 40.769531 L 285.339844 42.070313 L 286.148438 43.359375 L 286.769531 44.398438 L 287.390625 45.488281 L 288.160156 46.910156 L 288.949219 48.398438 L 289.640625 49.75 L 290.320313 51.148438 L 291.078125 52.808594 L 291.808594 54.460938 L 292.371094 55.820313 L 292.898438 57.179688 L 293.5 58.820313 L 294.078125 60.460938 L 294.539063 61.839844 L 294.96875 63.199219 L 295.421875 64.738281 L 295.828125 66.238281 L 296.128906 67.429688 L 296.390625 68.539063 L 296.660156 69.75 L 296.898438 70.890625 L 297.078125 71.761719 L 297.25 72.679688 L 297.480469 74.058594 L 297.71875 75.609375 L 297.949219 77.109375 L 298.46875 80.679688 L 298.539063 162.871094 L 298.609375 245.058594 L 300.78125 245.328125 L 301.898438 245.511719 L 302.859375 245.738281 L 303.769531 246.039063 L 304.730469 246.460938 L 305.640625 246.929688 L 306.449219 247.460938 L 307.21875 248.070313 L 308.011719 248.828125 L 308.679688 249.558594 L 309.300781 250.339844 L 309.820313 251.128906 L 310.21875 251.859375 L 310.511719 252.53125 L 310.800781 253.300781 L 311.050781 254.058594 L 311.199219 254.671875 L 311.308594 255.320313 L 311.351563 255.980469 L 311.398438 262.871094 L 311.429688 272.589844 L 311.410156 288.210938 L 311.328125 320.441406 L 310.671875 322.539063 L 310.378906 323.410156 L 310.058594 324.308594 L 309.75 325.109375 L 309.511719 325.628906 L 309.25 326.121094 L 308.839844 326.800781 L 308.390625 327.539063 L 307.941406 328.230469 L 307.410156 328.949219 L 306.71875 329.800781 L 305.96875 330.640625 L 305.289063 331.320313 L 304.589844 331.960938 L 303.78125 332.640625 L 302.980469 333.261719 L 302.351563 333.710938 L 301.730469 334.101563 L 301 334.519531 L 300.269531 334.910156 L 299.671875 335.199219 L 298.371094 335.769531 L 298.371094 350.359375 L 298.359375 358.320313 L 298.300781 362.488281 L 298.210938 365.050781 L 298.140625 365.691406 L 298.011719 366.320313 L 297.820313 366.921875 L 297.550781 367.589844 L 297.238281 368.230469 L 296.949219 368.71875 L 296.601563 369.160156 L 296.128906 369.648438 L 295.621094 370.109375 L 295.160156 370.460938 L 294.648438 370.761719 L 294.039063 371.050781 L 293.398438 371.300781 L 292.859375 371.46875 L 292.320313 371.570313 L 291.671875 371.628906 L 291.03125 371.648438 L 290.488281 371.621094 L 289.96875 371.53125 L 289.359375 371.390625 L 288.769531 371.210938 L 288.28125 371.019531 L 287.808594 370.769531 L 287.25 370.398438 L 286.699219 369.96875 L 286.238281 369.558594 L 285.820313 369.089844 L 285.378906 368.53125 L 284.988281 367.949219 L 284.730469 367.449219 L 284.53125 366.910156 L 284.410156 366.351563 L 284.269531 364.5 L 284.199219 361.050781 L 284.148438 351.078125 L 284.078125 335.808594 L 282.761719 335.199219 L 282.128906 334.890625 L 281.339844 334.460938 L 280.53125 333.96875 L 279.808594 333.519531 L 279.070313 332.96875 L 278.148438 332.210938 L 277.230469 331.371094 L 276.449219 330.578125 L 275.71875 329.761719 L 274.980469 328.871094 L 274.328125 328.019531 L 273.910156 327.378906 L 273.558594 326.761719 L 273.148438 325.949219 L 272.75 325.121094 L 272.429688 324.378906 L 272.140625 323.601563 L 271.839844 322.671875 L 271.570313 321.71875 L 271.378906 320.921875 L 271.230469 320 L 271.171875 319.058594 L 271.078125 313.941406 L 271.03125 305.398438 L 271.011719 287.320313 L 271.03125 269.160156 L 271.078125 260.71875 L 271.160156 255.628906 L 271.230469 254.851563 L 271.378906 254.078125 L 271.570313 253.460938 L 271.828125 252.738281 L 272.109375 252.039063 L 272.390625 251.480469 L 272.738281 250.910156 L 273.269531 250.191406 L 273.890625 249.441406 L 274.5 248.78125 L 275.269531 248.050781 L 276.039063 247.449219 L 276.828125 246.929688 L 277.710938 246.46875 L 278.488281 246.140625 L 279.398438 245.820313 L 280.289063 245.558594 L 281 245.398438 L 281.671875 245.308594 L 282.390625 245.230469 L 283.070313 245.179688 L 283.558594 245.160156 L 284.570313 245.160156 L 284.570313 167.429688 L 284.550781 135.5 L 284.5 109.878906 L 284.441406 88.871094 L 284.339844 85.179688 L 284.21875 83.25 L 284.070313 81.230469 L 283.910156 79.398438 L 283.75 78.121094 L 283.578125 76.980469 L 283.359375 75.640625 L 283.128906 74.308594 L 282.910156 73.210938 L 282.671875 72.101563 L 282.328125 70.691406 L 281.960938 69.238281 L 281.609375 67.980469 L 281.230469 66.71875 L 280.78125 65.28125 L 280.320313 63.890625 L 279.929688 62.789063 L 279.460938 61.609375 L 278.699219 59.890625 L 277.828125 57.988281 L 276.960938 56.179688 L 276.011719 54.320313 L 274.898438 52.28125 L 273.800781 50.359375 L 272.898438 48.921875 L 272.019531 47.601563 L 270.960938 46.089844 L 269.910156 44.621094 L 269.03125 43.449219 L 268.03125 42.230469 L 266.550781 40.558594 L 264.890625 38.769531 L 263.289063 37.121094 L 261.648438 35.5 L 259.859375 33.828125 L 258.199219 32.328125 L 256.980469 31.308594 L 255.789063 30.398438 L 254.269531 29.289063 L 252.679688 28.171875 L 251.269531 27.21875 L 249.761719 26.269531 L 247.851563 25.148438 L 245.871094 24.050781 L 244.140625 23.140625 L 242.441406 22.320313 L 240.601563 21.460938 L 238.871094 20.691406 L 237.589844 20.171875 L 236.371094 19.710938 L 234.820313 19.179688 L 233.230469 18.660156 L 231.828125 18.230469 L 230.410156 17.828125 L 228.75 17.410156 L 227.109375 17.011719 L 225.761719 16.71875 L 224.410156 16.460938 L 222.730469 16.179688 L 221 15.921875 L 219.519531 15.71875 L 217.800781 15.550781 L 215.78125 15.429688 L 213.578125 15.339844 L 211.308594 15.308594 L 209.261719 15.328125 L 207.128906 15.390625 L 205.21875 15.480469 L 203.941406 15.589844 L 202.820313 15.730469 L 201.511719 15.898438 L 200.230469 16.078125 L 199.179688 16.238281 L 198.109375 16.441406 L 196.71875 16.710938 L 195.261719 17.03125 L 193.960938 17.328125 L 192.578125 17.691406 L 190.859375 18.179688 L 189.078125 18.730469 L 187.539063 19.238281 L 186.011719 19.789063 L 184.261719 20.460938 L 182.558594 21.140625 L 181.21875 21.71875 L 179.960938 22.308594 L 178.511719 23.03125 L 177.101563 23.75 L 175.988281 24.359375 L 174.960938 24.949219 L 173.820313 25.609375 L 172.75 26.261719 L 171.949219 26.761719 L 171.089844 27.320313 L 169.828125 28.210938 L 168.421875 29.210938 L 167.070313 30.210938 L 165.378906 31.53125 L 163.621094 33.03125 L 161.738281 34.769531 L 159.679688 36.78125 L 157.769531 38.738281 L 156.019531 40.640625 L 154.511719 42.378906 L 153.300781 43.910156 L 152.359375 45.179688 L 151.359375 46.570313 L 150.449219 47.871094 L 149.808594 48.828125 L 149.21875 49.789063 L 148.460938 51.050781 L 147.679688 52.390625 L 146.988281 53.609375 L 146.308594 54.878906 L 145.550781 56.410156 L 144.820313 57.929688 L 144.25 59.199219 L 143.730469 60.449219 L 143.160156 61.890625 L 142.621094 63.300781 L 142.210938 64.429688 L 141.828125 65.558594 L 141.398438 66.941406 L 140.980469 68.339844 L 140.648438 69.53125 L 140.351563 70.679688 L 140.039063 71.949219 L 139.769531 73.148438 L 139.578125 74.050781 L 139.421875 74.941406 L 139.230469 76.070313 L 139.050781 77.25 L 138.890625 78.300781 L 138.761719 79.378906 L 138.609375 80.691406 L 138.480469 82.011719 L 138.398438 83.109375 L 138.230469 85.550781 L 168.429688 85.550781 L 168.558594 80.851563 L 168.640625 78.898438 L 168.769531 76.910156 L 168.921875 75.148438 L 169.070313 74.019531 L 169.25 73.050781 L 169.488281 71.910156 L 169.761719 70.78125 L 170 69.851563 L 170.28125 68.921875 L 170.660156 67.761719 L 171.078125 66.578125 L 171.460938 65.570313 L 171.898438 64.539063 L 172.46875 63.300781 L 173.089844 62.050781 L 173.648438 61 L 174.238281 59.980469 L 174.980469 58.789063 L 175.730469 57.640625 L 176.378906 56.71875 L 177.128906 55.769531 L 178.21875 54.519531 L 179.429688 53.199219 L 180.601563 52.011719 L 181.828125 50.851563 L 183.21875 49.609375 L 184.570313 48.480469 L 185.628906 47.679688 L 186.691406 46.960938 L 188.058594 46.128906 L 189.480469 45.308594 L 190.738281 44.648438 L 192.011719 44.050781 L 193.488281 43.398438 L 194.929688 42.820313 L 196.089844 42.398438 L 197.230469 42.050781 L 198.589844 41.660156 L 199.949219 41.300781 L 201.078125 41.03125 L 202.648438 40.75 L 204.078125 40.589844 L 205.890625 40.511719 L 208.929688 40.488281 L 211.980469 40.5 L 213.800781 40.570313 L 215.238281 40.730469 L 216.828125 41.011719 L 217.960938 41.269531 L 219.269531 41.609375 L 220.550781 41.960938 L 221.578125 42.269531 L 222.589844 42.628906 L 223.789063 43.089844 L 225 43.589844 L 226.011719 44.050781 L 226.96875 44.519531 L 228.011719 45.050781 L 228.980469 45.570313 L 229.699219 45.980469 L 230.410156 46.429688 L 231.371094 47.070313 L 232.390625 47.78125 L 233.308594 48.460938 L 234.320313 49.261719 L 235.601563 50.378906 L 236.921875 51.609375 L 238.078125 52.769531 L 239.28125 54.050781 L 240.46875 55.449219 L 241.550781 56.820313 L 242.441406 58.058594 L 243.191406 59.230469 L 244 60.601563 L 244.769531 61.96875 L 245.339844 63.089844 L 245.851563 64.199219 L 246.410156 65.53125 L 246.929688 66.871094 L 247.320313 67.988281 L 247.660156 69.070313 L 248 70.28125 L 248.308594 71.449219 L 248.511719 72.351563 L 248.671875 73.21875 L 248.859375 74.289063 L 249.03125 75.359375 L 249.171875 76.269531 L 249.28125 77.339844 L 249.320313 78.398438 L 249.410156 96.230469 L 249.480469 120.96875 L 249.539063 161.609375 L 249.628906 244.921875 L 250.390625 244.921875 L 250.78125 244.949219 L 251.371094 245.03125 L 252.019531 245.140625 L 252.640625 245.28125 L 253.308594 245.460938 L 254.058594 245.710938 L 254.789063 245.988281 L 255.378906 246.261719 L 255.96875 246.609375 L 256.730469 247.171875 L 257.519531 247.828125 L 258.21875 248.488281 L 258.960938 249.28125 L 259.601563 250.070313 L 260.128906 250.839844 L 260.539063 251.589844 L 260.828125 252.261719 L 261.109375 253.011719 L 261.351563 253.730469 L 261.5 254.300781 L 261.621094 255.460938 L 261.671875 263.109375 L 261.699219 273.199219 L 261.679688 287.859375 L 261.621094 307.78125 L 261.550781 315.601563 L 261.441406 320.011719 L 261.359375 320.828125 L 261.179688 321.628906 L 260.941406 322.320313 L 260.578125 323.261719 L 260.148438 324.269531 L 259.730469 325.199219 L 259.25 326.140625 L 258.628906 327.199219 L 257.980469 328.21875 L 257.390625 329.019531 L 256.769531 329.761719 L 255.980469 330.589844 L 255.160156 331.390625 L 254.441406 332.019531 L 253.710938 332.601563 L 252.828125 333.21875 L 251.949219 333.800781 L 251.21875 334.230469 L 249.621094 335.101563 L 249.558594 350.601563 L 249.488281 366.109375 L 248.851563 367.300781 L 248.550781 367.820313 L 248.140625 368.398438 L 247.699219 368.941406 L 247.308594 369.371094 L 246.878906 369.738281 L 246.351563 370.128906 L 245.800781 370.480469 L 245.328125 370.730469 L 244.730469 370.949219 L 244.089844 371.101563 L 243.359375 371.179688 L 242.46875 371.210938 L 241.601563 371.179688 L 240.871094 371.101563 L 240.25 370.960938 L 239.691406 370.761719 L 239.230469 370.519531 L 238.679688 370.148438 L 238.109375 369.738281 L 237.640625 369.328125 L 237.191406 368.871094 L 236.71875 368.28125 L 236.308594 367.660156 L 236.019531 367.109375 L 235.449219 365.871094 L 235.339844 350.808594 L 235.21875 335.761719 L 233.898438 335.21875 L 233.308594 334.960938 L 232.589844 334.621094 L 231.878906 334.261719 L 231.289063 333.941406 L 230.691406 333.570313 L 229.96875 333.089844 L 229.238281 332.570313 L 228.621094 332.101563 L 228.011719 331.578125 L 227.289063 330.898438 L 226.578125 330.160156 L 226 329.5 L 225.460938 328.808594 L 224.851563 327.980469 L 224.28125 327.160156 L 223.851563 326.46875 L 223.449219 325.730469 L 222.988281 324.738281 L 222.550781 323.671875 L 222.191406 322.699219 L 221.421875 320.441406 L 221.351563 287.96875 L 221.320313 272.179688 L 221.351563 262.410156 L 221.398438 255.511719 L 221.441406 254.851563 L 221.550781 254.191406 L 221.710938 253.578125 L 221.988281 252.808594 L 222.308594 252.011719 L 222.648438 251.320313 L 223.050781 250.621094 L 223.609375 249.820313 L 224.21875 249.039063 L 224.789063 248.421875 L 225.398438 247.859375 L 226.128906 247.269531 L 226.859375 246.738281 L 227.46875 246.371094 L 228.101563 246.070313 L 228.839844 245.75 L 229.601563 245.46875 L 230.230469 245.28125 L 230.898438 245.140625 L 231.761719 245.019531 L 232.671875 244.941406 L 233.488281 244.921875 L 235.339844 244.921875 L 235.269531 161.128906 L 235.210938 77.351563 L 234.699219 75.199219 L 234.460938 74.261719 L 234.160156 73.199219 L 233.839844 72.191406 L 233.570313 71.398438 L 233.261719 70.648438 L 232.871094 69.769531 L 232.460938 68.898438 L 232.089844 68.191406 L 231.691406 67.488281 L 231.191406 66.679688 L 230.671875 65.871094 L 230.21875 65.210938 L 229.710938 64.539063 L 228.980469 63.691406 L 228.179688 62.808594 L 227.429688 62.039063 L 226.640625 61.300781 L 225.730469 60.488281 L 224.839844 59.761719 L 224.128906 59.230469 L 223.421875 58.75 L 222.519531 58.199219 L 221.578125 57.660156 L 220.769531 57.21875 L 219.929688 56.820313 L 218.929688 56.390625 L 217.921875 55.988281 L 217.089844 55.691406 L 216.230469 55.441406 L 215.160156 55.160156 L 214.058594 54.921875 L 213.101563 54.738281 L 212.128906 54.609375 L 210.988281 54.5 L 209.851563 54.421875 L 208.921875 54.390625 L 207.96875 54.421875 L 206.820313 54.511719 L 205.640625 54.628906 L 204.628906 54.78125 L 203.628906 54.980469 L 202.460938 55.261719 L 201.308594 55.570313 L 200.371094 55.871094 L 199.511719 56.191406 L 198.589844 56.550781 L 197.75 56.898438 L 197.160156 57.179688 L 196.589844 57.488281 L 195.828125 57.929688 L 195.03125 58.410156 L 194.300781 58.878906 L 193.539063 59.421875 L 192.609375 60.140625 L 191.679688 60.929688 L 190.878906 61.640625 L 190.140625 62.378906 L 189.351563 63.210938 L 188.640625 64 L 188.128906 64.621094 L 187.691406 65.230469 L 187.171875 65.96875 L 186.660156 66.738281 L 186.25 67.398438 L 185.871094 68.078125 L 185.421875 68.941406 L 185 69.828125 L 184.660156 70.601563 L 184.351563 71.398438 L 184.011719 72.359375 L 183.710938 73.328125 L 183.480469 74.148438 L 183.28125 75.039063 L 183.078125 76.230469 L 182.898438 77.511719 L 182.769531 78.679688 L 182.679688 79.871094 L 182.601563 81.230469 L 182.550781 82.53125 L 182.53125 83.558594 L 182.53125 85.71875 L 184.101563 85.878906 L 184.808594 85.96875 L 185.660156 86.101563 L 186.5 86.25 L 187.191406 86.398438 L 187.898438 86.578125 L 188.78125 86.828125 L 189.671875 87.109375 L 190.441406 87.371094 L 191.238281 87.671875 L 192.210938 88.089844 L 193.210938 88.539063 L 194.058594 88.960938 L 194.910156 89.429688 L 195.921875 90.039063 L 196.921875 90.691406 L 197.738281 91.28125 L 198.570313 91.929688 L 199.589844 92.820313 L 200.621094 93.789063 L 201.5 94.671875 L 202.359375 95.609375 L 203.28125 96.71875 L 204.148438 97.839844 L 204.800781 98.769531 L 205.371094 99.679688 L 205.96875 100.738281 L 206.519531 101.789063 L 206.921875 102.628906 L 207.269531 103.480469 L 207.648438 104.519531 L 208.019531 105.578125 L 208.300781 106.480469 L 208.539063 107.421875 L 208.789063 108.578125 L 209.011719 109.75 L 209.160156 110.769531 L 209.269531 111.96875 L 209.308594 113.179688 L 209.359375 138.460938 L 209.378906 173.269531 L 209.359375 230.769531 L 209.289063 348.511719 L 208.648438 350.921875 L 208.328125 352 L 207.921875 353.25 L 207.480469 354.480469 L 207.070313 355.480469 L 206.640625 356.441406 L 206.101563 357.519531 L 205.539063 358.558594 L 205.058594 359.378906 L 204.53125 360.171875 L 203.828125 361.140625 L 203.078125 362.121094 L 202.398438 362.949219 L 201.660156 363.761719 L 200.710938 364.699219 L 199.730469 365.621094 L 198.871094 366.351563 L 198 367.019531 L 196.96875 367.761719 L 195.960938 368.449219 L 195.140625 368.960938 L 194.320313 369.410156 L 193.328125 369.910156 L 192.339844 370.390625 L 191.5 370.738281 L 190.648438 371.058594 L 189.648438 371.398438 L 188.648438 371.71875 L 187.820313 371.949219 L 186.980469 372.148438 L 185.941406 372.351563 L 184.878906 372.53125 L 183.96875 372.648438 L 182.121094 372.761719 L 162.210938 372.808594 L 137.660156 372.851563 L 104.628906 372.851563 " transform="matrix(1,0,0,-1,0,374)"/>
<path style="fill:none;stroke-width:0.035;stroke-linecap:round;stroke-linejoin:round;stroke:rgb(0%,0%,0%);stroke-opacity:1;stroke-miterlimit:10;" d="M 105.460938 358.53125 L 184.078125 358.5 L 185.609375 357.921875 L 186.320313 357.621094 L 187.21875 357.160156 L 188.140625 356.640625 L 188.941406 356.128906 L 189.710938 355.550781 L 190.539063 354.851563 L 191.308594 354.128906 L 191.878906 353.488281 L 192.378906 352.828125 L 192.921875 352 L 193.429688 351.148438 L 193.820313 350.410156 L 194.140625 349.679688 L 194.46875 348.851563 L 194.75 348.050781 L 194.929688 347.441406 L 195.078125 346.640625 L 195.128906 345.839844 L 195.199219 324.519531 L 195.238281 292.78125 L 195.261719 228.980469 L 195.261719 111.839844 L 194.609375 109.929688 L 194.289063 109.101563 L 193.871094 108.160156 L 193.410156 107.261719 L 193 106.570313 L 192.519531 105.910156 L 191.871094 105.121094 L 191.171875 104.328125 L 190.519531 103.679688 L 189.808594 103.070313 L 188.941406 102.421875 L 188.070313 101.839844 L 187.308594 101.410156 L 186.539063 101.058594 L 185.609375 100.710938 L 184.679688 100.398438 L 183.898438 100.191406 L 182.839844 100.011719 L 181.761719 99.949219 L 169.949219 99.878906 L 150.460938 99.851563 L 104.160156 99.878906 L 26.140625 99.941406 L 24.53125 100.570313 L 23.820313 100.859375 L 23.011719 101.238281 L 22.230469 101.640625 L 21.601563 101.988281 L 20.988281 102.398438 L 20.269531 102.960938 L 19.539063 103.570313 L 18.921875 104.140625 L 18.351563 104.75 L 17.738281 105.46875 L 17.191406 106.191406 L 16.800781 106.78125 L 16.46875 107.371094 L 16.109375 108.078125 L 15.789063 108.789063 L 15.558594 109.390625 L 15.359375 110.019531 L 15.148438 110.808594 L 14.96875 111.628906 L 14.839844 112.351563 L 14.710938 113.988281 L 14.671875 141.75 L 14.640625 177.398438 L 14.660156 230.410156 L 14.71875 346.839844 L 15.21875 348.289063 L 15.46875 348.949219 L 15.800781 349.738281 L 16.160156 350.511719 L 16.480469 351.160156 L 16.851563 351.800781 L 17.339844 352.539063 L 17.871094 353.261719 L 18.351563 353.851563 L 18.898438 354.421875 L 19.648438 355.078125 L 20.449219 355.730469 L 21.199219 356.261719 L 21.96875 356.730469 L 22.859375 357.199219 L 23.71875 357.601563 L 24.410156 357.871094 L 25.019531 358.058594 L 25.601563 358.238281 L 26.101563 358.378906 L 26.378906 358.449219 L 26.769531 358.5 L 49.800781 358.519531 L 75.289063 358.53125 L 105.460938 358.53125 " transform="matrix(1,0,0,-1,0,374)"/>
<path style="fill:none;stroke-width:0.035;stroke-linecap:round;stroke-linejoin:round;stroke:rgb(0%,0%,0%);stroke-opacity:1;stroke-miterlimit:10;" d="M 291.128906 322.929688 L 291.5 322.910156 L 292.019531 322.820313 L 292.601563 322.699219 L 293.148438 322.550781 L 293.808594 322.308594 L 294.398438 322 L 294.960938 321.601563 L 295.550781 321.070313 L 296.078125 320.480469 L 296.480469 319.921875 L 296.789063 319.328125 L 297.03125 318.671875 L 297.199219 317.960938 L 297.261719 317.230469 L 297.351563 312.828125 L 297.410156 305.371094 L 297.421875 288.398438 L 297.421875 259.429688 L 285.039063 259.429688 L 285.101563 288.980469 L 285.171875 318.539063 L 285.679688 319.488281 L 285.941406 319.910156 L 286.289063 320.398438 L 286.671875 320.871094 L 287.03125 321.238281 L 287.441406 321.578125 L 288 321.941406 L 288.589844 322.261719 L 289.140625 322.480469 L 289.671875 322.648438 L 290.238281 322.789063 L 290.761719 322.898438 L 291.128906 322.929688 " transform="matrix(1,0,0,-1,0,374)"/>
<path style="fill:none;stroke-width:0.035;stroke-linecap:round;stroke-linejoin:round;stroke:rgb(0%,0%,0%);stroke-opacity:1;stroke-miterlimit:10;" d="M 241.78125 322.410156 L 242.78125 322.339844 L 243.460938 322.21875 L 244.050781 322 L 244.738281 321.621094 L 245.230469 321.28125 L 245.75 320.839844 L 246.21875 320.371094 L 246.550781 319.960938 L 246.820313 319.519531 L 247.078125 319 L 247.308594 318.460938 L 247.449219 318.011719 L 247.578125 317.058594 L 247.640625 310.160156 L 247.691406 301.121094 L 247.699219 287.980469 L 247.699219 258.949219 L 235.339844 258.949219 L 235.339844 288.171875 L 235.351563 304.859375 L 235.398438 312.550781 L 235.480469 317.21875 L 235.539063 317.839844 L 235.699219 318.449219 L 235.890625 318.921875 L 236.179688 319.46875 L 236.5 320 L 236.808594 320.421875 L 237.191406 320.808594 L 237.699219 321.230469 L 238.25 321.621094 L 238.769531 321.910156 L 239.480469 322.199219 L 240.078125 322.359375 L 240.78125 322.421875 L 241.78125 322.410156 " transform="matrix(1,0,0,-1,0,374)"/>
<path style="fill:none;stroke-width:0.035;stroke-linecap:round;stroke-linejoin:round;stroke:rgb(0%,0%,0%);stroke-opacity:1;stroke-miterlimit:10;" d="M 105.578125 339.511719 L 74.539063 339.519531 L 59.128906 339.480469 L 49.210938 339.421875 L 48.320313 339.359375 L 47.449219 339.21875 L 46.761719 339.058594 L 45.949219 338.839844 L 45.140625 338.609375 L 44.46875 338.398438 L 43.789063 338.148438 L 42.960938 337.78125 L 42.109375 337.359375 L 41.378906 336.960938 L 40.648438 336.519531 L 39.808594 335.960938 L 38.988281 335.378906 L 38.339844 334.878906 L 37.691406 334.320313 L 36.890625 333.53125 L 36.078125 332.671875 L 35.398438 331.871094 L 34.738281 331 L 34.039063 329.96875 L 33.390625 328.929688 L 32.921875 328.058594 L 32.519531 327.191406 L 32.089844 326.148438 L 31.710938 325.109375 L 31.429688 324.238281 L 31.238281 323.441406 L 31.109375 322.628906 L 30.960938 320.601563 L 30.898438 317.011719 L 30.890625 306.761719 L 30.890625 291.179688 L 31.550781 289.089844 L 31.859375 288.179688 L 32.230469 287.179688 L 32.621094 286.230469 L 32.949219 285.519531 L 33.300781 284.851563 L 33.769531 284.058594 L 34.261719 283.269531 L 34.699219 282.621094 L 35.199219 281.96875 L 35.859375 281.191406 L 36.578125 280.410156 L 37.230469 279.75 L 37.890625 279.140625 L 38.628906 278.511719 L 39.339844 277.929688 L 39.878906 277.539063 L 40.429688 277.179688 L 41.179688 276.75 L 41.988281 276.320313 L 42.730469 275.949219 L 43.53125 275.601563 L 44.511719 275.21875 L 45.5 274.859375 L 46.359375 274.589844 L 48.261719 274.058594 L 103.679688 273.988281 L 129.441406 273.96875 L 146.488281 274 L 159.148438 274.050781 L 161.089844 274.179688 L 161.980469 274.320313 L 163.03125 274.53125 L 164.058594 274.769531 L 164.898438 275.019531 L 165.738281 275.320313 L 166.769531 275.761719 L 167.820313 276.25 L 168.710938 276.730469 L 169.609375 277.28125 L 170.640625 278.011719 L 171.660156 278.789063 L 172.46875 279.5 L 173.21875 280.238281 L 174.03125 281.101563 L 174.761719 281.941406 L 175.28125 282.621094 L 175.75 283.308594 L 176.269531 284.171875 L 176.769531 285.070313 L 177.171875 285.851563 L 177.53125 286.671875 L 177.921875 287.691406 L 178.28125 288.730469 L 178.539063 289.640625 L 178.859375 291.308594 L 179.011719 293.351563 L 179.070313 296.890625 L 179.078125 306.761719 L 179.070313 315.949219 L 179.011719 319.851563 L 178.890625 322.109375 L 178.789063 322.878906 L 178.628906 323.648438 L 178.410156 324.449219 L 178.101563 325.398438 L 177.769531 326.328125 L 177.460938 327.101563 L 177.109375 327.851563 L 176.648438 328.738281 L 176.160156 329.609375 L 175.71875 330.328125 L 175.210938 331.050781 L 174.53125 331.910156 L 173.789063 332.769531 L 173.101563 333.488281 L 172.378906 334.179688 L 171.511719 334.929688 L 170.640625 335.621094 L 169.910156 336.148438 L 169.199219 336.601563 L 168.378906 337.070313 L 167.589844 337.5 L 166.960938 337.808594 L 166.320313 338.070313 L 165.511719 338.378906 L 164.660156 338.691406 L 163.898438 338.929688 L 162.191406 339.46875 L 105.578125 339.511719 " transform="matrix(1,0,0,-1,0,374)"/>
<path style="fill:none;stroke-width:0.035;stroke-linecap:round;stroke-linejoin:round;stroke:rgb(0%,0%,0%);stroke-opacity:1;stroke-miterlimit:10;" d="M 105.339844 325.488281 L 160.050781 325.429688 L 161.140625 324.929688 L 161.621094 324.671875 L 162.160156 324.328125 L 162.671875 323.941406 L 163.070313 323.589844 L 163.429688 323.179688 L 163.828125 322.660156 L 164.199219 322.101563 L 164.480469 321.589844 L 165.050781 320.441406 L 165.050781 293.320313 L 164.488281 292.078125 L 164.199219 291.539063 L 163.800781 290.929688 L 163.351563 290.359375 L 162.929688 289.921875 L 162.460938 289.53125 L 161.878906 289.128906 L 161.269531 288.78125 L 160.75 288.539063 L 159.988281 288.320313 L 159.199219 288.238281 L 152.351563 288.148438 L 140.160156 288.101563 L 104.871094 288.089844 L 50.160156 288.089844 L 48.921875 288.648438 L 48.371094 288.941406 L 47.761719 289.351563 L 47.179688 289.808594 L 46.730469 290.238281 L 46.328125 290.699219 L 45.929688 291.230469 L 45.578125 291.761719 L 45.351563 292.179688 L 45.191406 292.628906 L 45.101563 293.101563 L 44.980469 294.96875 L 44.910156 298.261719 L 44.859375 306.019531 L 44.839844 311.851563 L 44.871094 316.058594 L 44.929688 319.179688 L 45.050781 320.210938 L 45.199219 320.769531 L 45.449219 321.421875 L 45.738281 322.050781 L 46.03125 322.558594 L 46.359375 323.011719 L 46.761719 323.480469 L 47.171875 323.898438 L 47.5 324.179688 L 47.871094 324.410156 L 48.378906 324.679688 L 48.929688 324.929688 L 49.441406 325.121094 L 50.199219 325.320313 L 50.980469 325.390625 L 58.519531 325.46875 L 71.460938 325.511719 L 105.339844 325.488281 " transform="matrix(1,0,0,-1,0,374)"/>
<path style="fill:none;stroke-width:0.035;stroke-linecap:round;stroke-linejoin:round;stroke:rgb(0%,0%,0%);stroke-opacity:1;stroke-miterlimit:10;" d="M 106.179688 259.269531 L 104.671875 259.300781 L 103.011719 259.289063 L 101.429688 259.261719 L 100.230469 259.191406 L 99.109375 259.089844 L 97.800781 258.941406 L 96.519531 258.769531 L 95.46875 258.601563 L 94.441406 258.410156 L 93.210938 258.160156 L 91.980469 257.890625 L 90.949219 257.648438 L 89.910156 257.371094 L 88.621094 256.988281 L 87.320313 256.589844 L 86.199219 256.21875 L 84.988281 255.769531 L 83.378906 255.089844 L 81.679688 254.328125 L 80.128906 253.601563 L 78.589844 252.808594 L 76.929688 251.898438 L 75.371094 251 L 74.230469 250.28125 L 73.210938 249.578125 L 72.078125 248.78125 L 71 247.988281 L 70.179688 247.359375 L 69.359375 246.679688 L 68.25 245.699219 L 67.078125 244.628906 L 66.011719 243.621094 L 64.929688 242.53125 L 63.710938 241.230469 L 62.539063 239.929688 L 61.628906 238.851563 L 60.769531 237.761719 L 59.789063 236.441406 L 58.839844 235.101563 L 58.070313 233.980469 L 57.339844 232.800781 L 56.46875 231.300781 L 55.628906 229.75 L 54.929688 228.390625 L 54.269531 226.980469 L 53.550781 225.289063 L 52.871094 223.601563 L 52.351563 222.191406 L 51.890625 220.800781 L 51.410156 219.191406 L 50.96875 217.621094 L 50.660156 216.351563 L 50.398438 215.078125 L 50.121094 213.511719 L 49.871094 211.910156 L 49.691406 210.53125 L 49.550781 209.121094 L 49.429688 207.410156 L 49.351563 205.679688 L 49.328125 204.210938 L 49.351563 202.789063 L 49.398438 201.191406 L 49.480469 199.671875 L 49.578125 198.5 L 49.710938 197.351563 L 49.929688 195.890625 L 50.171875 194.378906 L 50.421875 193.058594 L 50.730469 191.671875 L 51.191406 189.921875 L 51.710938 188.109375 L 52.210938 186.519531 L 52.78125 184.929688 L 53.5 183.089844 L 54.261719 181.300781 L 54.921875 179.859375 L 55.621094 178.5 L 56.46875 176.949219 L 57.339844 175.449219 L 58.070313 174.269531 L 58.839844 173.140625 L 59.789063 171.808594 L 60.78125 170.480469 L 61.628906 169.390625 L 62.558594 168.28125 L 63.800781 166.921875 L 65.109375 165.539063 L 66.300781 164.359375 L 67.511719 163.230469 L 68.890625 162.011719 L 70.21875 160.878906 L 71.261719 160.058594 L 72.269531 159.320313 L 73.488281 158.480469 L 74.710938 157.660156 L 75.730469 157.011719 L 76.800781 156.390625 L 78.171875 155.640625 L 79.589844 154.890625 L 80.851563 154.261719 L 82.171875 153.648438 L 83.800781 152.96875 L 85.46875 152.320313 L 86.910156 151.808594 L 88.300781 151.371094 L 89.808594 150.921875 L 91.21875 150.53125 L 92.261719 150.28125 L 93.269531 150.070313 L 94.539063 149.820313 L 95.859375 149.589844 L 97.019531 149.398438 L 98.488281 149.21875 L 100.171875 149.089844 L 102.148438 149.019531 L 104.511719 149 L 106.878906 149.019531 L 108.851563 149.089844 L 110.53125 149.21875 L 112 149.398438 L 113.160156 149.589844 L 114.480469 149.820313 L 115.761719 150.070313 L 116.761719 150.28125 L 117.808594 150.53125 L 119.21875 150.921875 L 120.730469 151.371094 L 122.109375 151.808594 L 123.578125 152.339844 L 125.359375 153.050781 L 127.148438 153.808594 L 128.648438 154.511719 L 130.101563 155.25 L 131.671875 156.101563 L 133.140625 156.949219 L 134.238281 157.628906 L 135.25 158.300781 L 136.390625 159.101563 L 137.5 159.890625 L 138.371094 160.539063 L 139.261719 161.25 L 140.390625 162.21875 L 141.570313 163.269531 L 142.621094 164.25 L 143.660156 165.269531 L 144.800781 166.460938 L 145.878906 167.621094 L 146.699219 168.558594 L 147.449219 169.480469 L 148.289063 170.550781 L 149.101563 171.621094 L 149.738281 172.488281 L 150.351563 173.398438 L 151.109375 174.589844 L 151.878906 175.839844 L 152.550781 176.960938 L 153.191406 178.140625 L 153.929688 179.558594 L 154.621094 180.988281 L 155.171875 182.199219 L 155.671875 183.421875 L 156.230469 184.878906 L 156.761719 186.339844 L 157.171875 187.570313 L 157.539063 188.820313 L 157.949219 190.351563 L 158.328125 191.921875 L 158.621094 193.269531 L 158.859375 194.601563 L 159.109375 196.121094 L 159.320313 197.578125 L 159.449219 198.738281 L 159.550781 199.890625 L 159.621094 201.339844 L 159.679688 202.828125 L 159.699219 204.121094 L 159.679688 205.421875 L 159.621094 206.910156 L 159.550781 208.359375 L 159.449219 209.511719 L 159.320313 210.671875 L 159.109375 212.128906 L 158.859375 213.648438 L 158.621094 214.980469 L 158.328125 216.328125 L 157.949219 217.890625 L 157.539063 219.421875 L 157.171875 220.671875 L 156.769531 221.871094 L 156.269531 223.28125 L 155.738281 224.671875 L 155.269531 225.808594 L 154.78125 226.910156 L 154.171875 228.199219 L 153.550781 229.449219 L 153.011719 230.46875 L 152.441406 231.480469 L 151.710938 232.691406 L 150.949219 233.921875 L 150.28125 234.949219 L 149.558594 235.980469 L 148.648438 237.21875 L 147.710938 238.449219 L 146.878906 239.46875 L 146.011719 240.46875 L 144.941406 241.648438 L 143.839844 242.800781 L 142.898438 243.738281 L 141.949219 244.628906 L 140.851563 245.621094 L 139.761719 246.558594 L 138.878906 247.289063 L 137.980469 247.980469 L 136.808594 248.839844 L 135.578125 249.710938 L 134.480469 250.460938 L 133.289063 251.199219 L 131.738281 252.101563 L 130.109375 252.988281 L 128.648438 253.730469 L 127.199219 254.410156 L 125.570313 255.128906 L 124.03125 255.769531 L 122.851563 256.210938 L 121.71875 256.578125 L 120.390625 256.988281 L 119.070313 257.371094 L 117.96875 257.671875 L 116.839844 257.929688 L 115.398438 258.230469 L 113.910156 258.5 L 112.601563 258.710938 L 111.210938 258.890625 L 109.488281 259.050781 L 107.710938 259.191406 L 106.179688 259.269531 " transform="matrix(1,0,0,-1,0,374)"/>
<path style="fill:none;stroke-width:0.035;stroke-linecap:round;stroke-linejoin:round;stroke:rgb(0%,0%,0%);stroke-opacity:1;stroke-miterlimit:10;" d="M 105.339844 245.050781 L 107.828125 244.980469 L 109.609375 244.871094 L 111.058594 244.699219 L 112.46875 244.449219 L 113.570313 244.191406 L 114.921875 243.839844 L 116.289063 243.449219 L 117.460938 243.089844 L 118.671875 242.660156 L 120.179688 242.050781 L 121.71875 241.371094 L 123.050781 240.730469 L 124.351563 240.03125 L 125.789063 239.199219 L 127.148438 238.371094 L 128.179688 237.671875 L 129.160156 236.941406 L 130.339844 235.988281 L 131.519531 234.988281 L 132.519531 234.089844 L 133.460938 233.179688 L 134.480469 232.140625 L 135.421875 231.128906 L 136.109375 230.328125 L 136.75 229.53125 L 137.5 228.53125 L 138.238281 227.5 L 138.859375 226.601563 L 139.460938 225.648438 L 140.160156 224.46875 L 140.839844 223.25 L 141.390625 222.179688 L 141.910156 221.050781 L 142.5 219.628906 L 143.078125 218.148438 L 143.53125 216.851563 L 143.941406 215.53125 L 144.359375 213.96875 L 144.730469 212.429688 L 144.988281 211.160156 L 145.238281 209.589844 L 145.390625 208.089844 L 145.46875 206.371094 L 145.488281 204.121094 L 145.46875 201.878906 L 145.390625 200.160156 L 145.230469 198.648438 L 144.988281 197.078125 L 144.75 195.851563 L 144.421875 194.441406 L 144.058594 193.070313 L 143.738281 191.96875 L 143.390625 190.921875 L 142.941406 189.699219 L 142.480469 188.5 L 142.078125 187.519531 L 141.640625 186.570313 L 141.070313 185.429688 L 140.46875 184.300781 L 139.929688 183.351563 L 139.429688 182.53125 L 138.949219 181.769531 L 138.539063 181.140625 L 138.328125 180.859375 L 138.109375 180.75 L 137.871094 180.828125 L 136.398438 182.109375 L 133.820313 184.578125 L 127.121094 191.21875 L 121.730469 196.578125 L 114.210938 204.058594 L 106.03125 212.171875 L 98.390625 219.761719 L 80.488281 237.5 L 82.328125 238.679688 L 83.191406 239.210938 L 84.261719 239.828125 L 85.359375 240.441406 L 86.320313 240.929688 L 87.289063 241.398438 L 88.441406 241.910156 L 89.601563 242.390625 L 90.550781 242.75 L 91.5 243.070313 L 92.601563 243.421875 L 93.691406 243.738281 L 94.578125 243.980469 L 95.46875 244.191406 L 96.539063 244.429688 L 97.628906 244.640625 L 98.550781 244.808594 L 99.75 244.949219 L 101.230469 245.039063 L 103.058594 245.070313 L 105.339844 245.050781 " transform="matrix(1,0,0,-1,0,374)"/>
<path style="fill:none;stroke-width:0.035;stroke-linecap:round;stroke-linejoin:round;stroke:rgb(0%,0%,0%);stroke-opacity:1;stroke-miterlimit:10;" d="M 74.269531 223.710938 L 76.761719 221.25 L 84.210938 213.871094 L 93.089844 205.078125 L 102.898438 195.339844 L 112.460938 185.851563 L 120.5 177.839844 L 127.769531 170.570313 L 127.808594 170.519531 L 127.820313 170.449219 L 127.808594 170.390625 L 127.769531 170.351563 L 127.378906 170.050781 L 126.898438 169.699219 L 126.320313 169.328125 L 125.589844 168.878906 L 124.609375 168.328125 L 123.558594 167.761719 L 122.601563 167.261719 L 121.550781 166.769531 L 120.21875 166.199219 L 118.839844 165.660156 L 117.621094 165.230469 L 116.378906 164.839844 L 114.941406 164.421875 L 113.519531 164.039063 L 112.359375 163.769531 L 110.800781 163.480469 L 109.371094 163.320313 L 107.570313 163.25 L 104.511719 163.230469 L 101.460938 163.25 L 99.648438 163.320313 L 98.230469 163.480469 L 96.660156 163.769531 L 95.511719 164.039063 L 94.089844 164.421875 L 92.640625 164.839844 L 91.398438 165.230469 L 90.191406 165.660156 L 88.800781 166.210938 L 87.460938 166.769531 L 86.410156 167.269531 L 85.410156 167.789063 L 84.238281 168.441406 L 83.089844 169.109375 L 82.148438 169.699219 L 81.261719 170.300781 L 80.230469 171.03125 L 79.238281 171.769531 L 78.449219 172.390625 L 77.648438 173.070313 L 76.628906 174.019531 L 75.578125 175.050781 L 74.640625 176.011719 L 73.730469 177 L 72.75 178.140625 L 71.839844 179.25 L 71.179688 180.128906 L 70.578125 181 L 69.871094 182.078125 L 69.179688 183.191406 L 68.621094 184.140625 L 68.078125 185.128906 L 67.480469 186.351563 L 66.910156 187.589844 L 66.46875 188.660156 L 66.070313 189.71875 L 65.640625 190.941406 L 65.238281 192.121094 L 64.949219 193.058594 L 64.699219 194 L 64.429688 195.160156 L 64.171875 196.328125 L 63.980469 197.351563 L 63.828125 198.410156 L 63.671875 199.75 L 63.539063 201.128906 L 63.460938 202.339844 L 63.421875 203.609375 L 63.429688 205.078125 L 63.488281 206.539063 L 63.578125 207.808594 L 63.730469 209.019531 L 63.921875 210.398438 L 64.140625 211.730469 L 64.351563 212.78125 L 64.589844 213.808594 L 64.929688 215.050781 L 65.289063 216.289063 L 65.640625 217.339844 L 66.011719 218.359375 L 66.449219 219.511719 L 66.898438 220.621094 L 67.28125 221.480469 L 67.679688 222.320313 L 68.21875 223.359375 L 68.800781 224.421875 L 69.328125 225.328125 L 70.550781 227.351563 L 74.269531 223.710938 " transform="matrix(1,0,0,-1,0,374)"/>
<path style="fill:none;stroke-width:0.035;stroke-linecap:round;stroke-linejoin:round;stroke:rgb(0%,0%,0%);stroke-opacity:1;stroke-miterlimit:10;" d="M 172.179688 138.210938 L 171.820313 138.230469 L 171.289063 138.210938 L 170.710938 138.140625 L 170.160156 138.039063 L 169.589844 137.890625 L 168.96875 137.679688 L 168.398438 137.441406 L 167.96875 137.210938 L 167.589844 136.949219 L 167.160156 136.601563 L 166.761719 136.238281 L 166.449219 135.910156 L 166.160156 135.53125 L 165.828125 135.019531 L 165.511719 134.46875 L 165.25 133.960938 L 164.96875 133.261719 L 164.808594 132.601563 L 164.71875 131.820313 L 164.691406 130.71875 L 164.691406 128.671875 L 162.441406 128.550781 L 161.238281 128.460938 L 160.378906 128.328125 L 159.660156 128.121094 L 158.890625 127.800781 L 158.339844 127.488281 L 157.761719 127.101563 L 157.230469 126.691406 L 156.859375 126.328125 L 156.539063 125.941406 L 156.191406 125.449219 L 155.851563 124.941406 L 155.601563 124.488281 L 155.328125 123.890625 L 155.171875 123.289063 L 155.089844 122.550781 L 155.058594 121.46875 L 155.089844 120.378906 L 155.171875 119.648438 L 155.328125 119.050781 L 155.601563 118.441406 L 155.851563 118 L 156.191406 117.488281 L 156.539063 117 L 156.859375 116.609375 L 157.230469 116.238281 L 157.761719 115.839844 L 158.339844 115.449219 L 158.890625 115.140625 L 159.660156 114.820313 L 160.378906 114.609375 L 161.238281 114.46875 L 162.441406 114.390625 L 164.691406 114.269531 L 164.691406 112.21875 L 164.71875 111.121094 L 164.808594 110.339844 L 164.96875 109.679688 L 165.25 108.980469 L 165.511719 108.46875 L 165.839844 107.910156 L 166.171875 107.398438 L 166.460938 107.011719 L 166.789063 106.671875 L 167.21875 106.300781 L 167.679688 105.941406 L 168.109375 105.660156 L 168.578125 105.429688 L 169.191406 105.191406 L 169.828125 104.988281 L 170.398438 104.859375 L 171.019531 104.769531 L 171.660156 104.738281 L 172.289063 104.761719 L 172.851563 104.828125 L 173.351563 104.941406 L 173.878906 105.089844 L 174.390625 105.261719 L 174.761719 105.410156 L 175.121094 105.601563 L 175.550781 105.871094 L 175.988281 106.171875 L 176.359375 106.460938 L 176.730469 106.808594 L 177.148438 107.320313 L 177.558594 107.878906 L 177.890625 108.421875 L 178.269531 109.199219 L 178.480469 109.871094 L 178.601563 110.691406 L 178.679688 111.980469 L 178.78125 114.269531 L 180.949219 114.390625 L 181.871094 114.460938 L 182.769531 114.589844 L 183.550781 114.738281 L 184.058594 114.898438 L 184.488281 115.109375 L 185.011719 115.421875 L 185.550781 115.78125 L 186 116.121094 L 186.460938 116.550781 L 186.921875 117.101563 L 187.351563 117.710938 L 187.691406 118.320313 L 188.03125 119.109375 L 188.230469 119.761719 L 188.328125 120.480469 L 188.359375 121.46875 L 188.328125 122.460938 L 188.230469 123.171875 L 188.03125 123.828125 L 187.691406 124.621094 L 187.351563 125.21875 L 186.921875 125.828125 L 186.460938 126.390625 L 186 126.808594 L 185.550781 127.160156 L 185.011719 127.511719 L 184.488281 127.828125 L 184.058594 128.039063 L 183.550781 128.199219 L 182.769531 128.351563 L 181.871094 128.46875 L 180.949219 128.550781 L 178.78125 128.671875 L 178.691406 130.960938 L 178.609375 132.28125 L 178.488281 133.089844 L 178.261719 133.761719 L 177.859375 134.558594 L 177.488281 135.128906 L 177.019531 135.738281 L 176.488281 136.289063 L 175.988281 136.730469 L 175.480469 137.078125 L 174.898438 137.421875 L 174.328125 137.691406 L 173.871094 137.851563 L 173.449219 137.949219 L 172.96875 138.058594 L 172.53125 138.148438 L 172.179688 138.210938 " transform="matrix(1,0,0,-1,0,374)"/>
<path style="fill:none;stroke-width:0.035;stroke-linecap:round;stroke-linejoin:round;stroke:rgb(0%,0%,0%);stroke-opacity:1;stroke-miterlimit:10;" d="M 133.289063 128.53125 L 129.078125 128.53125 L 125.390625 128.488281 L 122.238281 128.441406 L 121.570313 128.351563 L 121.171875 128.238281 L 120.679688 128.058594 L 120.199219 127.871094 L 119.789063 127.679688 L 119.390625 127.441406 L 118.910156 127.078125 L 118.421875 126.691406 L 118.019531 126.308594 L 117.648438 125.871094 L 117.238281 125.308594 L 116.878906 124.730469 L 116.609375 124.199219 L 116.371094 123.570313 L 116.210938 122.929688 L 116.109375 122.238281 L 116.078125 121.46875 L 116.121094 120.691406 L 116.210938 119.988281 L 116.378906 119.339844 L 116.628906 118.679688 L 116.921875 118.121094 L 117.328125 117.5 L 117.808594 116.898438 L 118.28125 116.398438 L 118.789063 115.96875 L 119.410156 115.53125 L 120.039063 115.160156 L 120.570313 114.910156 L 121.089844 114.738281 L 121.628906 114.648438 L 123.238281 114.519531 L 126.050781 114.460938 L 132.820313 114.449219 L 139.550781 114.460938 L 142.378906 114.519531 L 144 114.640625 L 144.53125 114.738281 L 145.039063 114.898438 L 145.558594 115.128906 L 146.140625 115.46875 L 146.699219 115.839844 L 147.140625 116.191406 L 147.539063 116.589844 L 147.980469 117.101563 L 148.398438 117.640625 L 148.710938 118.121094 L 149.058594 118.808594 L 149.238281 119.398438 L 149.328125 120.148438 L 149.351563 121.46875 L 149.328125 122.78125 L 149.238281 123.53125 L 149.058594 124.121094 L 148.710938 124.800781 L 148.410156 125.261719 L 148.03125 125.78125 L 147.640625 126.261719 L 147.289063 126.628906 L 146.898438 126.960938 L 146.378906 127.328125 L 145.820313 127.671875 L 145.308594 127.941406 L 144.789063 128.128906 L 144.261719 128.261719 L 142.890625 128.421875 L 140.421875 128.488281 L 133.289063 128.53125 " transform="matrix(1,0,0,-1,0,374)"/>
</g>
</svg>
