<?xml version="1.0" encoding="UTF-8" standalone="no"?>
<!-- Created with Inkscape (http://www.inkscape.org/) -->

<svg
   version="1.1"
   id="svg1"
   width="1280"
   height="746.66669"
   viewBox="0 0 1280 746.66669"
   sodipodi:docname="hthhr-905ki.ai"
   xmlns:inkscape="http://www.inkscape.org/namespaces/inkscape"
   xmlns:sodipodi="http://sodipodi.sourceforge.net/DTD/sodipodi-0.dtd"
   xmlns="http://www.w3.org/2000/svg"
   xmlns:svg="http://www.w3.org/2000/svg">
  <defs
     id="defs1">
    <clipPath
       clipPathUnits="userSpaceOnUse"
       id="clipPath2">
      <path
         d="M 0,560 H 960 V 0 H 0 Z"
         transform="translate(-327.66651,-519.50001)"
         id="path2" />
    </clipPath>
    <clipPath
       clipPathUnits="userSpaceOnUse"
       id="clipPath4">
      <path
         d="M 0,560 H 960 V 0 H 0 Z"
         transform="translate(-342.05181,-471.50001)"
         id="path4" />
    </clipPath>
    <clipPath
       clipPathUnits="userSpaceOnUse"
       id="clipPath6">
      <path
         d="M 0,560 H 960 V 0 H 0 Z"
         transform="translate(-422.33351,-360.54351)"
         id="path6" />
    </clipPath>
    <clipPath
       clipPathUnits="userSpaceOnUse"
       id="clipPath8">
      <path
         d="M 0,560 H 960 V 0 H 0 Z"
         transform="translate(-466.16551,-247.1562)"
         id="path8" />
    </clipPath>
    <clipPath
       clipPathUnits="userSpaceOnUse"
       id="clipPath10">
      <path
         d="M 0,560 H 960 V 0 H 0 Z"
         transform="translate(-477.00001,-176.83301)"
         id="path10" />
    </clipPath>
    <clipPath
       clipPathUnits="userSpaceOnUse"
       id="clipPath12">
      <path
         d="M 0,560 H 960 V 0 H 0 Z"
         transform="translate(-530.16701,-176.83301)"
         id="path12" />
    </clipPath>
    <clipPath
       clipPathUnits="userSpaceOnUse"
       id="clipPath14">
      <path
         d="M 0,560 H 960 V 0 H 0 Z"
         transform="translate(-516.83302,-163.5)"
         id="path14" />
    </clipPath>
    <clipPath
       clipPathUnits="userSpaceOnUse"
       id="clipPath16">
      <path
         d="M 0,560 H 960 V 0 H 0 Z"
         transform="translate(-572.95121,-19.7012)"
         id="path16" />
    </clipPath>
    <clipPath
       clipPathUnits="userSpaceOnUse"
       id="clipPath18">
      <path
         d="M 0,560 H 960 V 0 H 0 Z"
         transform="translate(-607.39061,-364.81691)"
         id="path18" />
    </clipPath>
    <clipPath
       clipPathUnits="userSpaceOnUse"
       id="clipPath20">
      <path
         d="M 0,560 H 960 V 0 H 0 Z"
         transform="translate(-604.91702,-377.00001)"
         id="path20" />
    </clipPath>
    <clipPath
       clipPathUnits="userSpaceOnUse"
       id="clipPath22">
      <path
         d="M 0,560 H 960 V 0 H 0 Z"
         transform="translate(-674.39062,-377.00001)"
         id="path22" />
    </clipPath>
    <clipPath
       clipPathUnits="userSpaceOnUse"
       id="clipPath24">
      <path
         d="M 0,560 H 960 V 0 H 0 Z"
         transform="translate(-615.51461,-468.00001)"
         id="path24" />
    </clipPath>
    <clipPath
       clipPathUnits="userSpaceOnUse"
       id="clipPath26">
      <path
         d="M 0,560 H 960 V 0 H 0 Z"
         transform="translate(-684.68951,-468.00001)"
         id="path26" />
    </clipPath>
    <clipPath
       clipPathUnits="userSpaceOnUse"
       id="clipPath28">
      <path
         d="M 0,560 H 960 V 0 H 0 Z"
         transform="translate(-522.28612,-117.87401)"
         id="path28" />
    </clipPath>
  </defs>
  <sodipodi:namedview
     id="namedview1"
     pagecolor="#ffffff"
     bordercolor="#000000"
     borderopacity="0.25"
     inkscape:showpageshadow="2"
     inkscape:pageopacity="0.0"
     inkscape:pagecheckerboard="0"
     inkscape:deskcolor="#d1d1d1">
    <inkscape:page
       x="0"
       y="0"
       inkscape:label="1"
       id="page1"
       width="1280"
       height="746.66669"
       margin="26.268267 331.36667 31.333334 370.88934"
       bleed="0" />
  </sodipodi:namedview>
  <g
     id="layer-MC0"
     inkscape:groupmode="layer"
     inkscape:label="Слой 2">
    <path
       id="path1"
       d="m 0,0 c -17.92,0 -32.5,-14.58 -32.5,-32.5 v -298 c 0,-17.921 14.58,-32.5 32.5,-32.5 h 193.333 c 17.921,0 32.5,14.579 32.5,32.5 v 298 c 0,17.92 -14.579,32.5 -32.5,32.5 z M 193.333,-380 H 0 c -27.294,0 -49.5,22.206 -49.5,49.5 v 298 C -49.5,-5.206 -27.294,17 0,17 h 193.333 c 27.294,0 49.5,-22.206 49.5,-49.5 v -298 c 0,-27.294 -22.206,-49.5 -49.5,-49.5"
       style="fill:#000000;fill-opacity:1;fill-rule:nonzero;stroke:none"
       transform="matrix(1.3333333,0,0,-1.3333333,436.88867,54)"
       clip-path="url(#clipPath2)" />
    <path
       id="path3"
       d="m 0,0 c -1.564,0 -2.885,-1.321 -2.885,-2.885 v -43.897 c 0,-1.564 1.321,-2.885 2.885,-2.885 h 163.229 c 1.565,0 2.886,1.321 2.886,2.885 v 43.897 c 0,1.564 -1.321,2.885 -2.886,2.885 z M 163.229,-66.667 H 0 c -10.965,0 -19.885,8.921 -19.885,19.885 V -2.885 C -19.885,8.08 -10.965,17 0,17 h 163.229 c 10.965,0 19.886,-8.92 19.886,-19.885 v -43.897 c 0,-10.964 -8.921,-19.885 -19.886,-19.885"
       style="fill:#000000;fill-opacity:1;fill-rule:nonzero;stroke:none"
       transform="matrix(1.3333333,0,0,-1.3333333,456.06907,118)"
       clip-path="url(#clipPath4)" />
    <path
       id="path5"
       d="m 0,0 c -33.152,0 -60.124,-26.971 -60.124,-60.124 0,-33.151 26.972,-60.123 60.124,-60.123 33.152,0 60.124,26.972 60.124,60.123 C 60.124,-26.971 33.152,0 0,0 m 0,-137.247 c -42.526,0 -77.124,34.598 -77.124,77.123 C -77.124,-17.598 -42.526,17 0,17 c 42.526,0 77.124,-34.598 77.124,-77.124 0,-42.525 -34.598,-77.123 -77.124,-77.123"
       style="fill:#000000;fill-opacity:1;fill-rule:nonzero;stroke:none"
       transform="matrix(1.3333333,0,0,-1.3333333,563.11133,265.942)"
       clip-path="url(#clipPath6)" />
    <path
       id="path7"
       d="m 0,0 -96.133,94.791 11.935,12.105 96.134,-94.791 z"
       style="fill:#000000;fill-opacity:1;fill-rule:nonzero;stroke:none"
       transform="matrix(1.3333333,0,0,-1.3333333,621.554,417.12507)"
       clip-path="url(#clipPath8)" />
    <path
       id="path9"
       d="m 0,0 h -26.667 c -4.694,0 -8.5,3.806 -8.5,8.5 0,4.694 3.806,8.5 8.5,8.5 H 0 C 4.694,17 8.5,13.194 8.5,8.5 8.5,3.806 4.694,0 0,0"
       style="fill:#000000;fill-opacity:1;fill-rule:nonzero;stroke:none"
       transform="matrix(1.3333333,0,0,-1.3333333,636,510.88933)"
       clip-path="url(#clipPath10)" />
    <path
       id="path11"
       d="m 0,0 h -26.667 c -4.694,0 -8.5,3.806 -8.5,8.5 0,4.694 3.806,8.5 8.5,8.5 H 0 C 4.694,17 8.5,13.194 8.5,8.5 8.5,3.806 4.694,0 0,0"
       style="fill:#000000;fill-opacity:1;fill-rule:nonzero;stroke:none"
       transform="matrix(1.3333333,0,0,-1.3333333,706.88933,510.88933)"
       clip-path="url(#clipPath12)" />
    <path
       id="path13"
       d="m 0,0 c -4.694,0 -8.5,3.806 -8.5,8.5 v 26.667 c 0,4.694 3.806,8.5 8.5,8.5 4.694,0 8.5,-3.806 8.5,-8.5 V 8.5 C 8.5,3.806 4.694,0 0,0"
       style="fill:#000000;fill-opacity:1;fill-rule:nonzero;stroke:none"
       transform="matrix(1.3333333,0,0,-1.3333333,689.11067,528.66667)"
       clip-path="url(#clipPath14)" />
  </g>
  <g
     id="layer-MC1"
     inkscape:groupmode="layer"
     inkscape:label="Слой 3">
    <path
       id="path15"
       d="m 0,0 c -66.169,0 -120.025,53.851 -120.025,120.043 0,1.631 0.028,2.876 0.088,4.761 l 0.003,0.266 c 0.149,4.693 4.055,8.385 8.764,8.225 4.692,-0.15 8.372,-4.076 8.222,-8.768 l -0.009,-0.268 c -0.057,-1.782 -0.092,-2.858 -0.092,-4.216 C -103.049,63.225 -56.795,17 0,17 56.795,17 103.049,63.234 103.049,120.063 v 3.819 c 0,137.133 -0.011,220.464 -0.047,222.911 -0.149,4.692 3.512,8.568 8.204,8.717 4.67,0.144 8.653,-3.584 8.802,-8.275 0.052,-1.643 0.041,-122.37 0.041,-223.357 v -3.815 C 120.049,53.86 66.169,0 0,0"
       style="fill:#000000;fill-opacity:1;fill-rule:nonzero;stroke:none"
       transform="matrix(1.3333333,0,0,-1.3333333,763.93493,720.3984)"
       clip-path="url(#clipPath16)" />
    <path
       id="path17"
       d="m 0,0 v -0.001 z m 0.351,-1.221 c 0.001,-0.003 0.002,-0.007 0.003,-0.01 -0.001,0.003 -0.002,0.007 -0.003,0.01 M -38.421,-293.69 c -30.429,0 -55.183,24.784 -55.183,55.247 0,4.694 3.805,8.5 8.5,8.5 4.694,0 8.5,-3.806 8.5,-8.5 0,-21.09 17.128,-38.247 38.183,-38.247 21.053,0 38.181,17.148 38.181,38.227 0,0.854 0.041,5.627 0.107,13.277 C 1.388,-50.679 0.804,-6.294 0.029,-0.211 -1,3.884 1.157,8.202 5.196,9.772 c 4.374,1.7 9.302,-0.467 11.002,-4.842 1.104,-2.839 2.615,-6.726 0.669,-230.263 -0.066,-7.566 -0.107,-12.286 -0.107,-13.13 0,-30.453 -24.754,-55.227 -55.181,-55.227"
       style="fill:#000000;fill-opacity:1;fill-rule:nonzero;stroke:none"
       transform="matrix(1.3333333,0,0,-1.3333333,809.85413,260.24413)"
       clip-path="url(#clipPath18)" />
    <path
       id="path19"
       d="M 0,0 H 20.083 V 81.517 C 20.083,86.746 15.829,91 10.6,91 H 9.482 C 4.254,91 0,86.746 0,81.517 Z M 27.098,-17 H -7.016 C -12.521,-17 -17,-12.521 -17,-7.015 V 81.517 C -17,96.12 -5.12,108 9.482,108 H 10.6 C 25.202,108 37.083,96.12 37.083,81.517 V -7.015 c 0,-5.506 -4.479,-9.985 -9.985,-9.985"
       style="fill:#000000;fill-opacity:1;fill-rule:nonzero;stroke:none"
       transform="matrix(1.3333333,0,0,-1.3333333,806.556,244)"
       clip-path="url(#clipPath20)" />
    <path
       id="path21"
       d="M 0,0 H 20.084 V 81.517 C 20.084,86.746 15.83,91 10.601,91 H 9.483 C 4.254,91 0,86.746 0,81.517 Z M 27.099,-17 H -7.015 C -12.521,-17 -17,-12.521 -17,-7.015 V 81.517 C -17,96.12 -5.119,108 9.483,108 h 1.118 C 25.203,108 37.084,96.12 37.084,81.517 V -7.015 c 0,-5.506 -4.48,-9.985 -9.985,-9.985"
       style="fill:#000000;fill-opacity:1;fill-rule:nonzero;stroke:none"
       transform="matrix(1.3333333,0,0,-1.3333333,899.18747,244)"
       clip-path="url(#clipPath22)" />
    <path
       id="path23"
       d="m 0,0 c -4.653,0 -8.449,3.748 -8.498,8.413 l -0.517,50.173 c -0.048,4.694 3.719,8.539 8.412,8.587 0.031,0 0.06,0 0.09,0 4.654,0 8.45,-3.748 8.498,-8.412 L 8.502,8.587 C 8.55,3.894 4.783,0.049 0.09,0 0.06,0 0.03,0 0,0"
       style="fill:#000000;fill-opacity:1;fill-rule:nonzero;stroke:none"
       transform="matrix(1.3333333,0,0,-1.3333333,820.68613,122.66667)"
       clip-path="url(#clipPath24)" />
    <path
       id="path25"
       d="m 0,0 c -4.653,0 -8.449,3.748 -8.498,8.412 l -0.518,50.173 c -0.047,4.695 3.718,8.54 8.412,8.588 0.031,0 0.06,0 0.09,0 4.654,0 8.45,-3.748 8.498,-8.412 L 8.502,8.588 C 8.55,3.894 4.784,0.049 0.09,0 0.06,0 0.03,0 0,0"
       style="fill:#000000;fill-opacity:1;fill-rule:nonzero;stroke:none"
       transform="matrix(1.3333333,0,0,-1.3333333,912.91933,122.66667)"
       clip-path="url(#clipPath26)" />
    <path
       id="path27"
       d="m 0,0 c -4.694,0 -8.5,3.806 -8.5,8.5 v 18.126 c 0,4.694 3.806,8.5 8.5,8.5 4.694,0 8.5,-3.806 8.5,-8.5 V 8.5 C 8.5,3.806 4.694,0 0,0"
       style="fill:#000000;fill-opacity:1;fill-rule:nonzero;stroke:none"
       transform="matrix(1.3333333,0,0,-1.3333333,696.38147,589.50133)"
       clip-path="url(#clipPath28)" />
  </g>
</svg>
